<?xml version="1.0" encoding="utf-8"?>
<!-- Generator: Adobe Illustrator 18.0.0, SVG Export Plug-In . SVG Version: 6.00 Build 0)  -->
<svg version="1.2" baseProfile="tiny" id="Layer_4" xmlns="http://www.w3.org/2000/svg" xmlns:xlink="http://www.w3.org/1999/xlink"
	 x="0px" y="0px" viewBox="0 0 338.7 677.3" xml:space="preserve">
<g>
	<g>
		<rect x="0" y="338.7" fill="#F6873D" width="37.6" height="37.6"/>
		<rect x="37.6" y="338.7" fill="#FFD970" width="37.6" height="37.6"/>
		<rect x="75.3" y="338.7" fill="#F6873D" width="37.6" height="37.6"/>
		<rect x="112.9" y="338.7" fill="#FFD970" width="37.6" height="37.6"/>
		<rect x="150.5" y="338.7" fill="#F6873D" width="37.6" height="37.6"/>
		<rect x="188.2" y="338.7" fill="#FFD970" width="37.6" height="37.6"/>
		<rect x="225.8" y="338.7" fill="#F6873D" width="37.6" height="37.6"/>
		<rect x="263.4" y="338.7" fill="#FFD970" width="37.6" height="37.6"/>
		<rect x="301.1" y="338.7" fill="#F6873D" width="37.6" height="37.6"/>
		<rect x="0" y="376.3" fill="#C8D6EE" width="37.6" height="37.6"/>
		<rect x="0" y="413.9" fill="#C8D6EE" width="37.6" height="0"/>
		<rect x="75.3" y="376.3" fill="#C8D6EE" width="37.6" height="37.6"/>
		<rect x="75.3" y="413.9" fill="#C8D6EE" width="37.6" height="0"/>
		<rect x="150.5" y="376.3" fill="#C8D6EE" width="37.6" height="37.6"/>
		<polygon fill="#C8D6EE" points="188.1,413.9 188.1,413.9 150.5,413.9 150.5,376.3 150.5,376.3 150.5,413.9 		"/>
		<rect x="301.1" y="376.3" fill="#C8D6EE" width="37.6" height="37.6"/>
		<polygon fill="#C8D6EE" points="338.7,413.9 338.7,413.9 301,413.9 301,376.3 301.1,376.3 301.1,413.9 		"/>
		<polygon fill="#F6873D" points="338.7,451.6 338.7,677.3 301,677.3 301,639.7 263.4,639.7 263.4,677.3 225.8,677.3 225.8,639.7 
			188.1,639.7 188.1,677.3 150.5,677.3 150.5,639.7 112.9,639.7 112.9,677.3 75.3,677.3 75.3,639.7 37.6,639.7 37.6,677.3 0,677.3 
			0,526.8 37.6,526.8 37.6,526.8 0,526.8 0,451.6 37.6,451.6 37.6,489.2 75.3,489.2 75.3,451.6 112.9,451.6 112.9,489.2 
			150.5,489.2 150.5,451.6 188.2,451.6 188.2,489.2 225.8,489.2 225.8,451.6 263.4,451.6 263.4,489.2 301,489.2 301,489.2 
			301,489.2 301,451.6 		"/>
		<rect x="263.4" y="639.7" fill="#C8D6EE" width="37.6" height="37.6"/>
		<rect x="188.1" y="639.7" fill="#C8D6EE" width="37.6" height="37.6"/>
		<rect x="112.9" y="639.7" fill="#C8D6EE" width="37.6" height="37.6"/>
		<rect x="37.6" y="639.7" fill="#C8D6EE" width="37.6" height="37.6"/>
		<rect x="301" y="413.9" fill="#F6873D" width="0" height="0"/>
		<rect x="225.8" y="413.9" fill="#F6873D" width="0" height="0"/>
		<rect x="150.5" y="413.9" fill="#F6873D" width="0" height="0"/>
		<polygon fill="#FFD970" points="301,451.6 301,451.6 301,451.6 301,489.2 263.4,489.2 263.4,451.6 		"/>
		<rect x="301" y="451.6" fill="#FFD970" width="0" height="37.6"/>
		<rect x="37.6" y="451.6" fill="#FFD970" width="37.6" height="37.6"/>
		<polygon fill="#FFD970" points="338.7,413.9 338.7,451.5 301.1,451.5 301.1,413.9 338.7,413.9 338.7,413.9 		"/>
		<rect x="301.1" y="413.9" fill="#C8D6EE" width="37.6" height="0"/>
		<rect y="413.9" fill="#FFD970" width="37.6" height="37.6"/>
		<rect x="0" y="413.9" fill="#C8D6EE" width="37.6" height="0"/>
		<polygon fill="#F6873D" points="225.8,413.9 225.8,413.9 225.8,451.5 188.2,451.5 188.2,376.3 225.8,376.3 225.8,376.3 
			225.8,376.3 		"/>
		<rect x="225.8" y="376.3" fill="#C8D6EE" width="0" height="37.6"/>
		<polygon fill="#F6873D" points="150.5,413.9 150.5,413.9 150.5,451.5 112.9,451.5 112.9,376.3 150.5,376.3 150.5,376.3 
			150.5,376.3 		"/>
		<rect x="150.5" y="376.3" fill="#C8D6EE" width="0" height="37.6"/>
		<rect x="37.6" y="376.3" fill="#F6873D" width="37.6" height="75.3"/>
		<rect x="301" y="451.6" fill="#F6873D" width="0" height="37.6"/>
		<rect x="188.2" y="451.6" fill="#FFD970" width="37.6" height="37.6"/>
		<rect x="112.9" y="451.6" fill="#FFD970" width="37.6" height="37.6"/>
		<polygon fill="#F6873D" points="301,413.9 301.1,413.9 301.1,451.5 263.4,451.5 263.4,376.3 301.1,376.3 301.1,376.3 301,376.3 		
			"/>
		<rect x="301" y="376.3" fill="#C8D6EE" width="0" height="37.6"/>
		<rect x="225.8" y="376.3" fill="#C8D6EE" width="37.6" height="37.6"/>
		<polygon fill="#C8D6EE" points="263.4,413.9 263.4,413.9 225.8,413.9 225.8,376.3 225.8,376.3 225.8,413.9 		"/>
		<polygon fill="#FFD970" points="263.4,413.9 263.4,451.6 225.8,451.6 225.8,413.9 263.4,413.9 263.4,413.9 		"/>
		<rect x="225.8" y="413.9" fill="#C8D6EE" width="37.6" height="0"/>
		<polygon fill="#FFD970" points="188.2,413.9 188.2,451.6 150.5,451.6 150.5,413.9 188.1,413.9 188.1,413.9 		"/>
		<rect x="150.5" y="413.9" fill="#C8D6EE" width="37.6" height="0"/>
		<polygon fill="#FFD970" points="112.9,413.9 112.9,451.6 75.3,451.6 75.3,413.9 112.9,413.9 112.9,413.9 		"/>
		<rect x="75.3" y="413.9" fill="#C8D6EE" width="37.6" height="0"/>
	</g>
	<g>
		<rect x="37.6" fill="#F6873D" width="37.6" height="37.6"/>
		<rect x="112.9" fill="#F6873D" width="37.6" height="37.6"/>
		<rect x="188.1" fill="#F6873D" width="37.6" height="37.6"/>
		<rect x="263.4" fill="#F6873D" width="37.6" height="37.6"/>
		<polygon fill="#C8D6EE" points="338.7,0 338.7,188.1 301,188.1 301,150.5 263.4,150.5 263.4,188.1 225.8,188.1 225.8,150.5 
			188.1,150.5 188.1,188.1 150.5,188.1 150.5,150.5 112.9,150.5 112.9,188.1 75.3,188.1 75.3,150.5 37.6,150.5 37.6,188.1 0,188.1 
			0,0 37.6,0 37.6,37.6 75.3,37.6 75.3,0 112.9,0 112.9,37.6 150.5,37.6 150.5,0 188.1,0 188.1,37.6 225.8,37.6 225.8,0 263.4,0 
			263.4,37.6 301,37.6 301,0 		"/>
		<rect x="301" y="301" fill="#C8D6EE" width="37.6" height="37.6"/>
		<rect x="225.8" y="301" fill="#C8D6EE" width="37.6" height="37.6"/>
		<rect x="150.5" y="301" fill="#C8D6EE" width="37.6" height="37.6"/>
		<rect x="75.3" y="301" fill="#C8D6EE" width="37.6" height="37.6"/>
		<rect x="0" y="301" fill="#C8D6EE" width="37.6" height="37.6"/>
		<polygon fill="#F6873D" points="338.7,225.8 338.7,301 301,301 301,338.7 263.4,338.7 263.4,301 225.8,301 225.8,338.7 
			188.1,338.7 188.1,301 150.5,301 150.5,338.7 112.9,338.7 112.9,301 75.3,301 75.3,338.7 37.6,338.7 37.6,301 0,301 0,225.8 
			37.6,225.8 37.6,263.4 75.3,263.4 75.3,225.8 112.9,225.8 112.9,263.4 150.5,263.4 150.5,225.8 188.1,225.8 188.1,263.4 
			225.8,263.4 225.8,225.8 263.4,225.8 263.4,263.4 301,263.4 301,225.8 		"/>
		<rect x="301" y="188.1" fill="#FFD970" width="37.6" height="37.6"/>
		<rect x="37.6" y="188.1" fill="#C8D6EE" width="37.6" height="75.3"/>
		<rect x="0" y="188.1" fill="#FFD970" width="37.6" height="37.6"/>
		<rect x="112.9" y="188.1" fill="#C8D6EE" width="37.6" height="75.3"/>
		<rect x="150.5" y="188.1" fill="#FFD970" width="37.6" height="37.6"/>
		<rect x="263.4" y="150.5" fill="#FFD970" width="37.6" height="37.6"/>
		<rect x="263.4" y="188.1" fill="#C8D6EE" width="37.6" height="75.3"/>
		<rect x="225.8" y="188.1" fill="#FFD970" width="37.6" height="37.6"/>
		<rect x="188.1" y="150.5" fill="#FFD970" width="37.6" height="37.6"/>
		<rect x="188.1" y="188.1" fill="#C8D6EE" width="37.6" height="75.3"/>
		<rect x="37.6" y="150.5" fill="#FFD970" width="37.6" height="37.6"/>
		<rect x="112.9" y="150.5" fill="#FFD970" width="37.6" height="37.6"/>
		<rect x="75.3" y="188.1" fill="#FFD970" width="37.6" height="37.6"/>
	</g>
</g>
</svg>
