<?xml version="1.0" encoding="utf-8"?>
<!-- Generator: Adobe Illustrator 18.0.0, SVG Export Plug-In . SVG Version: 6.00 Build 0)  -->
<svg version="1.2" baseProfile="tiny" xmlns="http://www.w3.org/2000/svg" xmlns:xlink="http://www.w3.org/1999/xlink" x="0px"
	 y="0px" viewBox="0 0 339.7 338.7" xml:space="preserve">
<g id="Layer_2">
	<rect x="79.8" y="0" fill="#F6873D" width="172.1" height="338.7"/>
	<rect fill="#F6873D" width="42.3" height="338.7"/>
	<rect x="297.4" fill="#F6873D" width="42.3" height="338.7"/>
</g>
<g id="OG_Grid">
	<g>
		<rect fill="#F6873D" width="42.3" height="42.3"/>
		<rect x="169.3" fill="#F6873D" width="42.3" height="42.3"/>
		<rect y="42.3" fill="#F6873D" width="42.3" height="42.3"/>
		<rect x="42.3" fill="#A7BEE3" width="84.7" height="338.7"/>
		<rect x="127" fill="#F6873D" width="42.3" height="42.3"/>
		<rect x="211.7" fill="#A7BEE3" width="84.7" height="338.7"/>
		<rect x="296.4" y="42.3" fill="#F6873D" width="42.3" height="42.3"/>
		<rect x="296.4" y="84.7" fill="#F6873D" width="42.3" height="42.3"/>
		<rect y="84.7" fill="#F6873D" width="42.3" height="42.3"/>
		<rect y="127" fill="#F6873D" width="42.3" height="42.3"/>
		<rect x="296.4" y="127" fill="#F6873D" width="42.3" height="42.3"/>
		<rect y="169.3" fill="#F6873D" width="42.3" height="42.3"/>
		<rect x="127" y="169.3" fill="#F6873D" width="42.3" height="42.3"/>
		<rect x="296.4" y="211.7" fill="#F6873D" width="42.3" height="42.3"/>
		<rect x="296.4" y="254" fill="#F6873D" width="42.3" height="42.3"/>
		<rect y="254" fill="#F6873D" width="42.3" height="42.3"/>
		<rect y="211.7" fill="#F6873D" width="42.3" height="42.3"/>
		<rect x="169.3" y="211.7" fill="#F6873D" width="42.3" height="42.3"/>
		<rect y="296.3" fill="#F6873D" width="42.3" height="42.3"/>
		<rect x="296.4" y="296.3" fill="#F6873D" width="42.3" height="42.3"/>
		<rect x="296.4" y="169.3" fill="#F6873D" width="42.3" height="42.3"/>
		<rect x="296.4" fill="#F6873D" width="42.3" height="42.3"/>
		<rect x="127" y="42.3" fill="#F6873D" width="42.3" height="42.3"/>
		<rect x="169.3" y="42.3" fill="#F6873D" width="42.3" height="42.3"/>
		<rect x="169.3" y="84.7" fill="#F6873D" width="42.3" height="42.3"/>
		<rect x="169.3" y="127" fill="#F6873D" width="42.3" height="42.3"/>
		<rect x="169.3" y="169.3" fill="#F6873D" width="42.3" height="42.3"/>
		<rect x="169.3" y="254" fill="#F6873D" width="42.3" height="42.3"/>
		<rect x="169.3" y="296.3" fill="#F6873D" width="42.3" height="42.3"/>
		<rect x="127" y="127" fill="#F6873D" width="42.3" height="42.3"/>
		<rect x="127" y="211.7" fill="#F6873D" width="42.3" height="42.3"/>
		<rect x="127" y="254" fill="#F6873D" width="42.3" height="42.3"/>
		<rect x="127" y="296.3" fill="#F6873D" width="42.3" height="42.3"/>
		<rect x="127" y="84.7" fill="#F6873D" width="42.3" height="42.3"/>
	</g>
</g>
</svg>
