<svg xmlns="http://www.w3.org/2000/svg" width="580mm" height="100mm" viewBox="0 0 580 100"><path fill="#6d427f" d="M0 0h580v100H0z"/><path d="M35.07 20l29.203 59.938H5.865z" fill="#d2a76d"/><path d="M35.07 27.746l23.542 48.32H11.526z" fill="#6e4080"/><path d="M70.114 79.938L40.91 20h58.408z" fill="#d2a76d"/><path d="M70.114 72.192l-23.543-48.32h47.086z" fill="#6e4080"/><path d="M105.159 20l29.204 59.938H75.955z" fill="#d2a76d"/><path d="M105.159 27.746l23.543 48.32H81.616z" fill="#6e4080"/><path d="M140.204 79.938L111 20h58.408z" fill="#d2a76d"/><path d="M140.204 72.192l-23.543-48.32h47.086z" fill="#6e4080"/><path d="M175.248 20l29.204 59.938h-58.408z" fill="#d2a76d"/><path d="M175.248 27.746l23.543 48.32h-47.086z" fill="#6e4080"/><path d="M210.293 79.938L181.09 20h58.408z" fill="#d2a76d"/><path d="M210.293 72.192l-23.543-48.32h47.086z" fill="#6e4080"/><path d="M245.338 20l29.204 59.938h-58.408z" fill="#d2a76d"/><path d="M245.338 27.746l23.543 48.32h-47.086z" fill="#6e4080"/><path d="M280.383 79.938L251.179 20h58.408z" fill="#d2a76d"/><path d="M280.383 72.192l-23.543-48.32h47.086z" fill="#6e4080"/><path d="M315.427 20l29.204 59.938h-58.408z" fill="#d2a76d"/><path d="M315.427 27.746l23.543 48.32h-47.086z" fill="#6e4080"/><path d="M350.472 79.938L321.268 20h58.408z" fill="#d2a76d"/><path d="M350.472 72.192l-23.543-48.32h47.086z" fill="#6e4080"/><path d="M.025 80L-29.18 20.062h58.408z" fill="#d2a76d"/><path d="M.025 72.254l-23.543-48.32h47.086z" fill="#6e4080"/><path d="M386.393 20l29.204 59.938h-58.408z" fill="#d2a76d"/><path d="M386.393 27.746l23.543 48.32H362.85z" fill="#6e4080"/><path d="M421.438 79.938L392.234 20h58.408z" fill="#d2a76d"/><path d="M421.438 72.192l-23.543-48.32h47.086z" fill="#6e4080"/><path d="M456.482 20l29.204 59.938h-58.408z" fill="#d2a76d"/><path d="M456.482 27.746l23.543 48.32H432.94z" fill="#6e4080"/><path d="M491.527 79.938L462.323 20h58.408z" fill="#d2a76d"/><path d="M491.527 72.192l-23.543-48.32h47.086z" fill="#6e4080"/><path d="M526.572 20l29.204 59.938h-58.408z" fill="#d2a76d"/><path d="M526.572 27.746l23.543 48.32h-47.086z" fill="#6e4080"/><path d="M561.617 79.938L532.413 20h58.408z" fill="#d2a76d"/><path d="M561.617 72.192l-23.543-48.32h47.086z" fill="#6e4080"/><path d="M596.204 20l29.204 59.938H567z" fill="#d2a76d"/><path d="M596.204 27.746l23.543 48.32H572.66z" fill="#6e4080"/></svg>