<svg xmlns="http://www.w3.org/2000/svg" version="1.1" id="svg54" width="994" height="240"><style id="style2">.st1{fill:#ffdb90}.st2{fill:#fd418d}</style><path fill="#724683" d="M0 0h994v1000H0z" id="bgcolor"/><g id="vectors"><circle class="st1" cx="267" cy="48" r="11" id="circle5"/><circle class="st1" cx="325" cy="48" r="11" id="circle7"/><circle class="st1" cx="325" cy="101" r="11" id="circle9"/><circle class="st1" cx="384" cy="48" r="11" id="circle11"/><circle class="st1" cx="384" cy="101" r="11" id="circle13"/><circle class="st1" cx="267" cy="101" r="11" id="circle15"/><circle class="st1" cx="324" cy="153" r="11" id="circle17"/><circle class="st1" cx="383" cy="153" r="11" id="circle19"/><circle class="st1" cx="266" cy="153" r="11" id="circle21"/><circle class="st2" cx="422" cy="76" r="62" id="circle23"/><circle class="st1" cy="-1" r="94" id="circle25" cx="0"/><path class="st1" d="M987-120c73.5 0 133 59.5 133 133s-59.5 133-133 133S854 86.5 854 13s59.5-133 133-133zm0 215.3c45.4 0 82.3-36.8 82.3-82.3s-36.8-82.3-82.3-82.3-82.3 36.9-82.3 82.3 36.9 82.3 82.3 82.3zM650-133c-73.5 0-133 59.5-133 133s59.5 133 133 133S783 73.5 783 0s-59.5-133-133-133zm0 215.3c-45.4 0-82.3-36.8-82.3-82.3s36.8-82.3 82.3-82.3S732.3-45.4 732.3 0 695.4 82.3 650 82.3zm-523.3 36.5c1.9 4.7 4.4 9 7.6 12.9h80.4c3.1-3.9 5.7-8.2 7.6-12.9zM123 99.5c0 2.2.1 4.3.4 6.4h102.2c.3-2.1.4-4.3.4-6.4 0-2.2-.1-4.3-.4-6.4H123.4c-.3 2.1-.4 4.2-.4 6.4zm11.3-32.2c-3.1 3.9-5.7 8.2-7.6 12.9h95.5c-1.9-4.7-4.4-9-7.6-12.9zm65.1-12.9c-7.4-4.1-15.9-6.4-24.9-6.4-9 0-17.6 2.3-24.9 6.4zm-49.8 90.2c7.4 4.1 15.9 6.4 24.9 6.4 9 0 17.6-2.3 24.9-6.4z" id="path27"/><path class="st2" d="M1002-140c73.5 0 133 59.5 133 133s-59.5 133-133 133S869 66.5 869-7s59.5-133 133-133zm0 215.3c45.4 0 82.3-36.8 82.3-82.3s-36.8-82.3-82.3-82.3S919.7-52.4 919.7-7s36.9 82.3 82.3 82.3z" id="path29"/><g id="g33"><path class="st2" d="M-45.7 111.2c-10.9-4.4-21.1-10.4-30.1-17.7V-94.6c9.1-7.3 19.2-13.2 30.1-17.7zM-.5 120c-5.1 0-10.1-.3-15.1-.9V-120c4.9-.6 10-.9 15.1-.9s10.1.3 15.1.9v239.1c-5 .6-10 .9-15.1.9zm75.3-26.4c-9.1 7.3-19.2 13.2-30.1 17.7v-223.5c10.9 4.4 21.1 10.4 30.1 17.7zm30.1-152.5C114.5-41.6 120-21.7 120-.5c0 21.2-5.5 41.1-15.1 58.4zM-105.9 57.9C-115.5 40.6-121 20.7-121-.5c0-21.2 5.5-41.1 15.1-58.4z" id="path31"/></g><circle class="st2" cx="818" cy="105" r="26" id="circle35"/><circle class="st2" cx="861" cy="164" r="26" id="circle37"/><circle class="st2" cx="774" cy="164" r="26" id="circle39"/><circle class="st2" cx="86" cy="153" r="18" id="circle41"/><circle class="st2" cx="-1" cy="186" r="41" id="circle43"/><circle class="st1" cx="422" cy="76" r="26" id="circle45"/><circle class="st1" cx="994" cy="183" r="21" id="circle47"/><circle class="st1" cx="516" cy="107" r="16" id="circle49"/><circle class="st2" cx="625" r="83" id="circle51" cy="0"/></g></svg>