<?xml version="1.0" encoding="UTF-8" standalone="no"?>
<svg
   xmlns:dc="http://purl.org/dc/elements/1.1/"
   xmlns:cc="http://creativecommons.org/ns#"
   xmlns:rdf="http://www.w3.org/1999/02/22-rdf-syntax-ns#"
   xmlns:svg="http://www.w3.org/2000/svg"
   xmlns="http://www.w3.org/2000/svg"
   xmlns:sodipodi="http://sodipodi.sourceforge.net/DTD/sodipodi-0.dtd"
   xmlns:inkscape="http://www.inkscape.org/namespaces/inkscape"
   viewBox="0 0 994 240"
   version="1.1"
   id="svg54"
   sodipodi:docname="card1.svg"
   width="994"
   height="240"
   inkscape:version="1.0.1 (3bc2e813f5, 2020-09-07)">
  <metadata
     id="metadata60">
    <rdf:RDF>
      <cc:Work
         rdf:about="">
        <dc:format>image/svg+xml</dc:format>
        <dc:type
           rdf:resource="http://purl.org/dc/dcmitype/StillImage" />
        <dc:title></dc:title>
      </cc:Work>
    </rdf:RDF>
  </metadata>
  <defs
     id="defs58" />
  <sodipodi:namedview
     pagecolor="#ffffff"
     bordercolor="#666666"
     borderopacity="1"
     objecttolerance="10"
     gridtolerance="10"
     guidetolerance="10"
     inkscape:pageopacity="0"
     inkscape:pageshadow="2"
     inkscape:window-width="1780"
     inkscape:window-height="1020"
     id="namedview56"
     showgrid="false"
     inkscape:zoom="0.63144636"
     inkscape:cx="463.93559"
     inkscape:cy="572.79284"
     inkscape:window-x="3972"
     inkscape:window-y="1104"
     inkscape:window-maximized="0"
     inkscape:current-layer="svg54" />
  <style
     id="style2">.st1{fill:#ffdb90}.st2{fill:#fd418d}</style>
  <path
     fill="#724683"
     d="M 0,0 H 994 V 1000 H 0 Z"
     id="bgcolor" />
  <g
     id="vectors">
    <circle
       class="st1"
       cx="267"
       cy="48"
       r="11"
       id="circle5" />
    <circle
       class="st1"
       cx="325"
       cy="48"
       r="11"
       id="circle7" />
    <circle
       class="st1"
       cx="325"
       cy="101"
       r="11"
       id="circle9" />
    <circle
       class="st1"
       cx="384"
       cy="48"
       r="11"
       id="circle11" />
    <circle
       class="st1"
       cx="384"
       cy="101"
       r="11"
       id="circle13" />
    <circle
       class="st1"
       cx="267"
       cy="101"
       r="11"
       id="circle15" />
    <circle
       class="st1"
       cx="324"
       cy="153"
       r="11"
       id="circle17" />
    <circle
       class="st1"
       cx="383"
       cy="153"
       r="11"
       id="circle19" />
    <circle
       class="st1"
       cx="266"
       cy="153"
       r="11"
       id="circle21" />
    <circle
       class="st2"
       cx="422"
       cy="76"
       r="62"
       id="circle23" />
    <circle
       class="st1"
       cy="-1"
       r="94"
       id="circle25"
       cx="0" />
    <path
       class="st1"
       d="m 987,-120 c 73.5,0 133,59.5 133,133 0,73.5 -59.5,133 -133,133 -73.5,0 -133,-59.5 -133,-133 0,-73.5 59.5,-133 133,-133 z m 0,215.3 c 45.4,0 82.3,-36.8 82.3,-82.3 0,-45.5 -36.8,-82.3 -82.3,-82.3 -45.5,0 -82.3,36.9 -82.3,82.3 0,45.4 36.9,82.3 82.3,82.3 z M 650,-133 c -73.5,0 -133,59.5 -133,133 0,73.5 59.5,133 133,133 73.5,0 133,-59.5 133,-133 0,-73.5 -59.5,-133 -133,-133 z m 0,215.3 c -45.4,0 -82.3,-36.8 -82.3,-82.3 0,-45.5 36.8,-82.3 82.3,-82.3 45.5,0 82.3,36.9 82.3,82.3 0,45.4 -36.9,82.3 -82.3,82.3 z m -523.3,36.5 c 1.9,4.7 4.4,9 7.6,12.9 h 80.4 c 3.1,-3.9 5.7,-8.2 7.6,-12.9 z M 123,99.5 c 0,2.2 0.1,4.3 0.4,6.4 h 102.2 c 0.3,-2.1 0.4,-4.3 0.4,-6.4 0,-2.2 -0.1,-4.3 -0.4,-6.4 H 123.4 c -0.3,2.1 -0.4,4.2 -0.4,6.4 z m 11.3,-32.2 c -3.1,3.9 -5.7,8.2 -7.6,12.9 h 95.5 c -1.9,-4.7 -4.4,-9 -7.6,-12.9 z M 199.4,54.4 C 192,50.3 183.5,48 174.5,48 c -9,0 -17.6,2.3 -24.9,6.4 z m -49.8,90.2 c 7.4,4.1 15.9,6.4 24.9,6.4 9,0 17.6,-2.3 24.9,-6.4 z"
       id="path27" />
    <path
       class="st2"
       d="m 1002,-140 c 73.5,0 133,59.5 133,133 0,73.5 -59.5,133 -133,133 -73.5,0 -133,-59.5 -133,-133 0,-73.5 59.5,-133 133,-133 z m 0,215.3 c 45.4,0 82.3,-36.8 82.3,-82.3 0,-45.5 -36.8,-82.3 -82.3,-82.3 -45.5,0 -82.3,36.9 -82.3,82.3 0,45.4 36.9,82.3 82.3,82.3 z"
       id="path29" />
    <g
       id="g33">
      <path
         class="st2"
         d="M -45.7,111.2 C -56.6,106.8 -66.8,100.8 -75.8,93.5 V -94.6 c 9.1,-7.3 19.2,-13.2 30.1,-17.7 z m 45.2,8.8 c -5.1,0 -10.1,-0.3 -15.1,-0.9 V -120 c 4.9,-0.6 10,-0.9 15.1,-0.9 5.1,0 10.1,0.3 15.1,0.9 v 239.1 c -5,0.6 -10,0.9 -15.1,0.9 z M 74.8,93.6 c -9.1,7.3 -19.2,13.2 -30.1,17.7 v -223.5 c 10.9,4.4 21.1,10.4 30.1,17.7 z m 30.1,-152.5 c 9.6,17.3 15.1,37.2 15.1,58.4 0,21.2 -5.5,41.1 -15.1,58.4 z M -105.9,57.9 C -115.5,40.6 -121,20.7 -121,-0.5 c 0,-21.2 5.5,-41.1 15.1,-58.4 z"
         id="path31" />
    </g>
    <circle
       class="st2"
       cx="818"
       cy="105"
       r="26"
       id="circle35" />
    <circle
       class="st2"
       cx="861"
       cy="164"
       r="26"
       id="circle37" />
    <circle
       class="st2"
       cx="774"
       cy="164"
       r="26"
       id="circle39" />
    <circle
       class="st2"
       cx="86"
       cy="153"
       r="18"
       id="circle41" />
    <circle
       class="st2"
       cx="-1"
       cy="186"
       r="41"
       id="circle43" />
    <circle
       class="st1"
       cx="422"
       cy="76"
       r="26"
       id="circle45" />
    <circle
       class="st1"
       cx="994"
       cy="183"
       r="21"
       id="circle47" />
    <circle
       class="st1"
       cx="516"
       cy="107"
       r="16"
       id="circle49" />
    <circle
       class="st2"
       cx="625"
       r="83"
       id="circle51"
       cy="0" />
  </g>
</svg>
