<svg xmlns="http://www.w3.org/2000/svg" width="727.873" height="64mm" viewBox="0 0 192.583 64"><path d="M176.766 4.555L96.64 48.396 15.189 5.9l29.785-70.107 99.86-.83z" fill="#3f6fb9"/><g transform="translate(-10.222 -5.97)"><path d="M125.346 26.449c2.02 4.215 8.999 2.204 11.893 1.603-2.424.256-10.302 1.597-11.009-3.524zM163.939 16.291c2.365-1.538 4.075-3.57 6.524-2.066 1.887 1.312-.404 5.594-.554 5.8-2.883 4.015-5.794 5.405-8.94 6.998 2.688-1.049 5.977-2.143 9.683-6.845.613-.865 3.388-5.78-.141-7.087-2.485-.542-3.532.421-6.572 3.2zM137.24 28.052c8.032 4.678 13.373 2.019 21.237-.174-7.387 1.345-10.713 3.655-19.05-.883z" fill="#fce391"/><path d="M116.117 27.534c5.542 8.434 16.26 9.286 22.749 9.783 3.763-.135 6.933.202 13.615-2.256 3.468-1.364 6.801-2.398 9.756-2.503.018-.044-17.448.173-19.872.712-2.922.65-9.683 1.78-16.684.214-5.986-1.339-9.564-5.95-9.564-5.95zM163.916 32.574c7.235.938 12.74 3.664 12.532 12.293-.257 8.266-8.657 10.694-14.989 6.39-2.162-1.833-1.692-4-.252-5.81-.517 2.119-.415 3.645 1.595 4.105 8.609 1.655 12.579-1.871 13.106-4.751.201-6.46-3.199-10.874-11.992-12.227z" fill="#fce391"/><path d="M163.804 35.589c2.97.457 4.919 1.474 6.364 2.767M171.645 39.863c.723.748 1.123 1.43 1.559 2.119" fill="none" stroke="#3f6fb9" stroke-width=".265"/><path d="M171.95 25.1c3.34 1.481 6.583 3.518 9.404 7.932 10.538-4.147 14.448-16.857 10.277-22.79-4.605-6.006-15.133-3.918-16.55 5.112 1.927-5.552 10-9.33 14.142-4.752.69.914 1.75 3.31-.012 6.674-1.971 2.918-10.297 7.417-17.261 7.823z" fill="#fce391"/><path d="M183.95 18.951c2.06-.848 3.166-2.512 3.037-5.235" fill="none" stroke="#3f6fb9" stroke-width=".265"/><path d="M185.344 11.238c-.245-.288-.555-.556-1.343-.68" fill="none" stroke="#d35454" stroke-width=".265"/><path d="M182.138 6.012c-1.266.46-2.229.468-4.457 2.353" fill="none" stroke="#3f6fb9" stroke-width=".265"/><path d="M151.055 16.876l-1.615-.144M145.762 16.217l-6.045-2.639M133.816 9.19l.913-2.554M128.338 9.427l-.522-2.786M181.782 10.904l-1.115.66" fill="none" stroke="#d35454" stroke-width=".265"/><ellipse ry="7.085" rx="6.081" cy="31.506" cx="106.334" fill="#d35454"/><path d="M92.674 22.963c9.639-3.704 18.902-2.873 27.995 0-.76-1.034-1.646-2.083-3.821-3.292-6.76-2.488-13.618-3.083-20.664 0-1.642 1.095-2.882 2.192-3.51 3.292z" fill="#fce391"/><path d="M100.353 35.707c1.241 1.98 2.378 2.811 3.663 3.253M107.785 39.296c2.102-.647 3.46-1.778 4.302-3.22" fill="none" stroke="#d35454" stroke-width=".265"/><path d="M182.552 36.542c1.025 5.427-1.113 11.82-4.103 15.642 10.36-3.66 21.412-14.425 23.356-26.394l-6.74-8.978c.787 4.112-.386 7.27-1.963 11.226-3.057 4.477-6.554 7.384-10.55 8.504z" fill="#fce391"/><path d="M194.98 13.403l3.52 4.69" fill="none" stroke="#3f6fb9" stroke-width=".265"/><path d="M87.68 26.341c-2.02 4.215-8.999 2.205-11.893 1.604 2.424.255 10.302 1.596 11.009-3.524z" fill="#fce391"/><path d="M101.58 25.569c-.44.486-.828 1.077-1.178 1.744" fill="none" stroke="#d35454" stroke-width=".265"/><path d="M120.802 17.763c1.628 2.33 3.263 4.62 4.544 8.686.685-1.472 1.771-2.44 3.875-2.138 2.673.709 5.346 1.963 8.018 3.741 14.34-3.104 19.169-7.097 23.91-9.89.393-.231-.416.205 0 0-5.457 1.921-11.03 3.529-20.291.007-1.791-.681-6.05-3.88-8.296-4.816l-2.673 8.151-1.336-9.087c-3.034-.103-6.371-.048-7.75 5.346zM49.087 16.183c-2.364-1.538-4.075-3.57-6.524-2.066-1.887 1.312.404 5.594.554 5.8 2.883 4.015 5.794 5.405 8.941 6.998-2.69-1.049-5.978-2.142-9.684-6.845-.613-.865-3.388-5.78.142-7.087 2.485-.542 3.531.421 6.571 3.2zM75.787 27.945c-8.032 4.677-13.374 2.018-21.238-.174 7.387 1.344 10.713 3.655 19.05-.884zM95.034 29.465c-5.542 8.433-16.26 9.286-22.749 9.783-3.762-.135-6.933.202-13.615-2.256-3.467-1.364-6.8-2.398-9.756-2.503-.018-.044 17.448.173 19.872.712 2.922.65 9.683 1.779 16.684.214 5.986-1.339 9.564-5.95 9.564-5.95zM48.914 34.49c-7.235.937-12.74 3.663-12.531 12.293.257 8.265 8.656 10.694 14.988 6.389 2.162-1.832 1.693-3.999.252-5.81.518 2.12.416 3.646-1.595 4.106-8.608 1.654-12.578-1.872-13.106-4.752-.2-6.46 3.2-10.874 11.992-12.227z" fill="#fce391"/><path d="M49.027 37.504c-2.97.458-4.92 1.474-6.365 2.767M41.186 41.778c-.724.749-1.123 1.43-1.56 2.12" fill="none" stroke="#3f6fb9" stroke-width=".265"/><path d="M41.076 24.992c-3.34 1.481-6.583 3.518-9.404 7.932-10.537-4.147-14.448-16.857-10.277-22.79C26 4.128 36.528 6.216 37.945 15.246c-1.927-5.552-10-9.33-14.141-4.752-.692.914-1.75 3.31.011 6.674 1.972 2.918 10.298 7.417 17.261 7.824z" fill="#fce391"/><path d="M29.077 18.843c-2.06-.848-3.167-2.512-3.038-5.235" fill="none" stroke="#3f6fb9" stroke-width=".265"/><path d="M27.683 11.13c.244-.288.554-.556 1.342-.68" fill="none" stroke="#d35454" stroke-width=".265"/><path d="M30.888 5.904c1.267.46 2.229.469 4.458 2.354" fill="none" stroke="#3f6fb9" stroke-width=".265"/><path d="M61.97 16.768l1.616-.144M67.264 16.109l6.045-2.639M79.21 9.082l-.913-2.554M84.688 9.32l.523-2.787M31.245 10.796l1.114.66" fill="none" stroke="#d35454" stroke-width=".265"/><path d="M97.435 32.508c.387 2.253.758 5.9 4.495 8.495-8.739-.154-11.258-1.346-12.69-3.702 2.781-1.166 5.122-2.862 8.195-4.793zM30.474 36.434c-1.025 5.427 1.114 11.821 4.103 15.642-10.36-3.66-21.412-14.424-23.355-26.394l6.74-8.978c-.788 4.112.385 7.27 1.962 11.226 3.058 4.477 6.554 7.384 10.55 8.504z" fill="#fce391"/><path d="M18.046 13.295l-3.519 4.69" fill="none" stroke="#3f6fb9" stroke-width=".265"/><path d="M92.224 17.655c-1.628 2.33-3.263 4.621-4.544 8.686-.684-1.472-1.771-2.44-3.875-2.138-2.673.71-5.346 1.963-8.018 3.742-14.34-3.105-19.168-7.098-23.91-9.89-.393-.232.416.204 0 0 5.457 1.92 11.03 3.528 20.292.006 1.79-.68 6.049-3.88 8.295-4.816l2.673 8.152 1.336-9.088c3.034-.103 6.371-.048 7.75 5.346z" fill="#fce391"/><path d="M78.12 30.012l-3.438 4.56M72.479 30.296l-3.183 4.275M83.329 30.012l-3.438 4.56" fill="none" stroke="#d35454" stroke-width=".265"/><path d="M66.869 31.092l-2.377 3.29M61.946 30.507l-2.782 3.61" fill="none" stroke="#3f6fb9" stroke-width=".265"/><path d="M112.997 33.881c.169-.552.228-1.106.28-1.659" fill="none" stroke="#d35454" stroke-width=".265"/><path d="M115.577 32.508c-.387 2.253-.759 5.9-4.495 8.495 8.738-.154 11.257-1.346 12.69-3.702-2.782-1.166-5.122-2.862-8.195-4.793z" fill="#fce391"/></g></svg>