<?xml version="1.0" encoding="UTF-8" standalone="no"?>
<svg
   xmlns:dc="http://purl.org/dc/elements/1.1/"
   xmlns:cc="http://creativecommons.org/ns#"
   xmlns:rdf="http://www.w3.org/1999/02/22-rdf-syntax-ns#"
   xmlns:svg="http://www.w3.org/2000/svg"
   xmlns="http://www.w3.org/2000/svg"
   xmlns:sodipodi="http://sodipodi.sourceforge.net/DTD/sodipodi-0.dtd"
   xmlns:inkscape="http://www.inkscape.org/namespaces/inkscape"
   width="192.58295mm"
   height="64mm"
   viewBox="0 0 192.58295 64.000001"
   version="1.1"
   id="svg8"
   sodipodi:docname="card6.svg"
   inkscape:version="1.0.1 (3bc2e813f5, 2020-09-07)">
  <defs
     id="defs2" />
  <sodipodi:namedview
     inkscape:snap-others="false"
     inkscape:snap-nodes="true"
     id="base"
     pagecolor="#ffffff"
     bordercolor="#666666"
     borderopacity="1.0"
     inkscape:pageopacity="0.0"
     inkscape:pageshadow="2"
     inkscape:zoom="1.4734708"
     inkscape:cx="299.29375"
     inkscape:cy="319.66529"
     inkscape:document-units="mm"
     inkscape:current-layer="layer2"
     inkscape:document-rotation="0"
     showgrid="false"
     inkscape:window-width="1908"
     inkscape:window-height="2052"
     inkscape:window-x="3844"
     inkscape:window-y="72"
     inkscape:window-maximized="0"
     fit-margin-top="0"
     fit-margin-left="1"
     fit-margin-right="1"
     fit-margin-bottom="0" />
  <metadata
     id="metadata5">
    <rdf:RDF>
      <cc:Work
         rdf:about="">
        <dc:format>image/svg+xml</dc:format>
        <dc:type
           rdf:resource="http://purl.org/dc/dcmitype/StillImage" />
        <dc:title></dc:title>
      </cc:Work>
    </rdf:RDF>
  </metadata>
  <g
     inkscape:label="Layer 2"
     id="layer2"
     inkscape:groupmode="layer"
     transform="translate(-10.221617,-5.9696904)">
    <path
       transform="matrix(1.5420026,0,0,1.1341039,-57.39921,-72.672405)"
       inkscape:transform-center-y="5.7583221"
       inkscape:transform-center-x="-0.29673535"
       d="M 158.48635,73.359467 106.52483,112.01661 53.702703,74.543982 73.018359,12.727475 137.77822,11.995405 Z"
       inkscape:randomized="0"
       inkscape:rounded="0"
       inkscape:flatsided="true"
       sodipodi:arg2="0.93117389"
       sodipodi:arg1="0.30285536"
       sodipodi:r2="44.57"
       sodipodi:r1="55.091545"
       sodipodi:cy="56.928589"
       sodipodi:cx="105.90209"
       sodipodi:sides="5"
       id="path1771"
       style="fill:#3f6fb9;fill-opacity:1;fill-rule:nonzero;stroke:none;stroke-width:0.264583;stroke-opacity:1"
       sodipodi:type="star" />
  </g>
  <g
     inkscape:label="Layer 1"
     inkscape:groupmode="layer"
     id="layer1"
     transform="translate(-10.221617,-5.9696904)" />
  <g
     inkscape:label="Layer 3"
     id="layer3"
     inkscape:groupmode="layer"
     transform="translate(-10.221617,-5.9696904)">
    <path
       sodipodi:nodetypes="cccc"
       id="path877"
       d="m 125.34591,26.448848 c 2.01979,4.21482 8.9988,2.20457 11.8935,1.60361 -2.4246,0.25585 -10.30239,1.59644 -11.00902,-3.52405 z"
       style="fill:#fce391;fill-opacity:1;stroke:none;stroke-width:0.264583px;stroke-linecap:butt;stroke-linejoin:miter;stroke-opacity:1" />
    <path
       sodipodi:nodetypes="ccccccc"
       id="path879"
       d="m 163.9389,16.291128 c 2.36475,-1.53855 4.07517,-3.56951 6.52439,-2.06606 1.88654,1.31217 -0.40426,5.59416 -0.55435,5.79908 -2.88313,4.01596 -5.7936,5.40575 -8.94086,6.99912 2.68936,-1.04911 5.97818,-2.14277 9.68424,-6.84507 0.61283,-0.86499 3.38737,-5.78088 -0.14174,-7.08706 -2.48504,-0.54204 -3.53161,0.4209 -6.57168,3.19999 z"
       style="fill:#fce391;fill-opacity:1;stroke:none;stroke-width:0.264583px;stroke-linecap:butt;stroke-linejoin:miter;stroke-opacity:1" />
    <path
       sodipodi:nodetypes="cccc"
       id="path881"
       d="m 137.23941,28.052458 c 8.03222,4.67765 13.37361,2.01852 21.23798,-0.17401 -7.38709,1.34449 -10.71353,3.65504 -19.0496,-0.88375 z"
       style="fill:#fce391;fill-opacity:1;stroke:none;stroke-width:0.264583px;stroke-linecap:butt;stroke-linejoin:miter;stroke-opacity:1" />
    <path
       sodipodi:nodetypes="ccccssc"
       id="path885"
       d="m 116.1172,27.533638 c 5.54185,8.433962 16.26028,9.286072 22.74861,9.783112 3.76286,-0.13451 6.93316,0.2027 13.61528,-2.25577 3.46757,-1.364192 6.80088,-2.398302 9.756,-2.502512 0.018,-0.0443 -17.44772,0.17233 -19.87226,0.71191 -2.92191,0.65026 -9.68295,1.778792 -16.68392,0.21341 -5.98578,-1.33839 -9.56371,-5.95015 -9.56371,-5.95015 z"
       style="fill:#fce391;fill-opacity:1;stroke:none;stroke-width:0.264583px;stroke-linecap:butt;stroke-linejoin:miter;stroke-opacity:1" />
    <path
       sodipodi:nodetypes="ccccccc"
       id="path887"
       d="m 163.91636,32.573928 c 7.23482,0.93782 12.73929,3.663862 12.53114,12.293552 -0.25683,8.26558 -8.65603,10.69399 -14.98802,6.38911 -2.16211,-1.83244 -1.69276,-3.99885 -0.25215,-5.81049 -0.5174,2.11966 -0.41573,3.64605 1.5948,4.10631 8.60855,1.65461 12.57848,-1.87145 13.10611,-4.75153 0.2012,-6.4596 -3.19903,-10.874272 -11.99188,-12.226952 z"
       style="fill:#fce391;fill-opacity:1;stroke:none;stroke-width:0.264583px;stroke-linecap:butt;stroke-linejoin:miter;stroke-opacity:1" />
    <path
       sodipodi:nodetypes="cc"
       id="path898"
       d="m 163.80372,35.5889 c 2.96957,0.45745 4.91932,1.47379 6.36445,2.76667"
       style="fill:none;stroke:#3f6fb9;stroke-width:0.264583px;stroke-linecap:butt;stroke-linejoin:miter;stroke-opacity:1" />
    <path
       sodipodi:nodetypes="cc"
       id="path916"
       d="m 171.64466,39.86283 c 0.72375,0.74835 1.12296,1.42984 1.55898,2.11892"
       style="fill:none;stroke:#3f6fb9;stroke-width:0.264583px;stroke-linecap:butt;stroke-linejoin:miter;stroke-opacity:1" />
    <path
       sodipodi:nodetypes="ccccccc"
       id="path918"
       d="m 171.94998,25.099428 c 3.34085,1.48176 6.58325,3.5186 9.40395,7.93283 10.53769,-4.14766 14.44782,-16.85713 10.27716,-22.79065 -4.60496,-6.0058504 -15.13293,-3.9177703 -16.54974,5.11191 1.9269,-5.5518303 10.00045,-9.3293703 14.14115,-4.75127 0.69129,0.91344 1.75017,3.30952 -0.0113,6.67342 -1.97155,2.9185 -10.29755,7.41763 -17.26122,7.82376 z"
       style="fill:#fce391;fill-opacity:1;stroke:none;stroke-width:0.264583px;stroke-linecap:butt;stroke-linejoin:miter;stroke-opacity:1" />
    <path
       sodipodi:nodetypes="cc"
       id="path920"
       d="m 183.94918,18.951178 c 2.06022,-0.84811 3.16698,-2.51249 3.03798,-5.23481"
       style="fill:none;stroke:#3f6fb9;stroke-width:0.264583px;stroke-linecap:butt;stroke-linejoin:miter;stroke-opacity:1" />
    <path
       sodipodi:nodetypes="cc"
       id="path922"
       d="m 185.34366,11.238288 c -0.24442,-0.28828 -0.55479,-0.55669 -1.34283,-0.68113"
       style="fill:none;stroke:#d35454;stroke-width:0.264583px;stroke-linecap:butt;stroke-linejoin:miter;stroke-opacity:1" />
    <path
       sodipodi:nodetypes="cc"
       id="path926"
       d="m 182.13842,6.0118577 c -1.26687,0.45995 -2.22912,0.46864 -4.45789,2.35353"
       style="fill:none;stroke:#3f6fb9;stroke-width:0.264583px;stroke-linecap:butt;stroke-linejoin:miter;stroke-opacity:1" />
    <path
       id="path928"
       d="m 151.05538,16.875798 -1.61528,-0.144"
       style="fill:none;stroke:#d35454;stroke-width:0.264583px;stroke-linecap:butt;stroke-linejoin:miter;stroke-opacity:1" />
    <path
       id="path930"
       d="m 145.76194,16.216748 -6.04518,-2.63863"
       style="fill:none;stroke:#d35454;stroke-width:0.264583px;stroke-linecap:butt;stroke-linejoin:miter;stroke-opacity:1" />
    <path
       id="path932"
       d="m 133.81637,9.1895277 0.91258,-2.55357"
       style="fill:none;stroke:#d35454;stroke-width:0.264583px;stroke-linecap:butt;stroke-linejoin:miter;stroke-opacity:1" />
    <path
       id="path934"
       d="m 128.33818,9.4272577 -0.52261,-2.78632"
       style="fill:none;stroke:#d35454;stroke-width:0.264583px;stroke-linecap:butt;stroke-linejoin:miter;stroke-opacity:1" />
    <path
       id="path936"
       d="m 181.78165,10.904078 -1.11484,0.66017"
       style="fill:none;stroke:#d35454;stroke-width:0.264583px;stroke-linecap:butt;stroke-linejoin:miter;stroke-opacity:1" />
    <ellipse
       ry="7.08499"
       rx="6.0808892"
       cy="31.506306"
       cx="106.3336"
       id="path940"
       style="fill:#d35454;fill-opacity:1;stroke:none;stroke-width:0.264583;stroke-opacity:1" />
    <path
       sodipodi:nodetypes="ccccc"
       id="path942"
       d="m 92.67442,22.962888 c 9.63814,-3.70398 18.9011,-2.87325 27.99508,0 -0.76015,-1.03375 -1.64699,-2.08315 -3.82195,-3.29163 -6.76031,-2.48867 -13.61769,-3.08314 -20.663513,0 -1.642326,1.09448 -2.882042,2.19129 -3.509617,3.29163 z"
       style="fill:#fce391;fill-opacity:1;stroke:none;stroke-width:0.264583px;stroke-linecap:butt;stroke-linejoin:miter;stroke-opacity:1" />
    <path
       sodipodi:nodetypes="cc"
       id="path944"
       d="m 100.35346,35.70702 c 1.24076,1.9801 2.37803,2.811 3.66236,3.25336"
       style="fill:none;stroke:#d35454;stroke-width:0.264583px;stroke-linecap:butt;stroke-linejoin:miter;stroke-opacity:1" />
    <path
       sodipodi:nodetypes="cc"
       id="path946"
       d="m 107.7848,39.29639 c 2.10249,-0.6477 3.45987,-1.77862 4.30191,-3.22053"
       style="fill:none;stroke:#d35454;stroke-width:0.264583px;stroke-linecap:butt;stroke-linejoin:miter;stroke-opacity:1" />
    <path
       style="fill:#fce391;fill-opacity:1;stroke:none;stroke-width:0.264583px;stroke-linecap:butt;stroke-linejoin:miter;stroke-opacity:1"
       d="m 182.5522,36.54175 c 1.02455,5.42745 -1.11361,11.82111 -4.10274,15.64215 10.36044,-3.66047 21.4119,-14.42442 23.3551,-26.394082 l -6.73995,-8.97753 c 0.78756,4.11165 -0.38592,7.269 -1.96215,11.22552 -3.05783,4.4767 -6.55421,7.384262 -10.55026,8.503942 z"
       id="path950-8"
       sodipodi:nodetypes="cccccc" />
    <path
       id="path976"
       d="m 194.97973,13.403378 3.51939,4.68908"
       style="fill:none;stroke:#3f6fb9;stroke-width:0.264583px;stroke-linecap:butt;stroke-linejoin:miter;stroke-opacity:1" />
    <path
       style="fill:#fce391;fill-opacity:1;stroke:none;stroke-width:0.264583px;stroke-linecap:butt;stroke-linejoin:miter;stroke-opacity:1"
       d="m 87.680271,26.340968 c -2.01979,4.21482 -8.9988,2.20457 -11.8935,1.60361 2.4246,0.25585 10.30239,1.59644 11.00902,-3.52405 z"
       id="path877-7"
       sodipodi:nodetypes="cccc" />
    <path
       sodipodi:nodetypes="cc"
       id="path1160"
       d="m 101.57919,25.568518 c -0.439,0.48681 -0.82696,1.0772 -1.17726,1.74399"
       style="fill:none;stroke:#d35454;stroke-width:0.264583px;stroke-linecap:butt;stroke-linejoin:miter;stroke-opacity:1" />
    <path
       sodipodi:nodetypes="ccccscsccccc"
       id="path864"
       d="m 120.80233,17.762588 c 1.62769,2.32962 3.26296,4.6213 4.54358,8.68626 0.68469,-1.47162 1.77159,-2.44046 3.87541,-2.13816 2.6727,0.70932 5.34539,1.96338 8.01809,3.74177 14.33925,-3.10467 19.16819,-7.09747 23.90986,-9.89044 0.39243,-0.23115 -0.41635,0.20523 0,0 -5.45701,1.92122 -11.03046,3.52849 -20.29165,0.007 -1.79108,-0.68107 -6.049,-3.88083 -8.29543,-4.81626 l -2.6727,8.15172 -1.33634,-9.08716 c -3.03373,-0.10312 -6.3712,-0.0484 -7.75082,5.34539 z"
       style="fill:#fce391;fill-opacity:1;stroke:none;stroke-width:0.264583px;stroke-linecap:butt;stroke-linejoin:miter;stroke-opacity:1" />
    <path
       style="fill:#fce391;fill-opacity:1;stroke:none;stroke-width:0.264583px;stroke-linecap:butt;stroke-linejoin:miter;stroke-opacity:1"
       d="m 49.087281,16.183248 c -2.36475,-1.53855 -4.07517,-3.56951 -6.52439,-2.06606 -1.88654,1.31217 0.40426,5.59416 0.55435,5.79908 2.88313,4.01596 5.7936,5.40575 8.94086,6.99912 -2.68936,-1.04911 -5.97818,-2.14277 -9.68424,-6.84507 -0.61283,-0.86499 -3.38737,-5.78088 0.14174,-7.08706 2.48504,-0.54204 3.53161,0.4209 6.57168,3.19999 z"
       id="path879-8"
       sodipodi:nodetypes="ccccccc" />
    <path
       style="fill:#fce391;fill-opacity:1;stroke:none;stroke-width:0.264583px;stroke-linecap:butt;stroke-linejoin:miter;stroke-opacity:1"
       d="m 75.786771,27.944578 c -8.03222,4.67765 -13.37361,2.01852 -21.23798,-0.17401 7.38709,1.34449 10.71353,3.65504 19.0496,-0.88375 z"
       id="path881-2"
       sodipodi:nodetypes="cccc" />
    <path
       style="fill:#fce391;fill-opacity:1;stroke:none;stroke-width:0.264583px;stroke-linecap:butt;stroke-linejoin:miter;stroke-opacity:1"
       d="m 95.03408,29.464508 c -5.54185,8.433962 -16.26028,9.286072 -22.7486,9.783112 -3.76287,-0.13451 -6.93316,0.2027 -13.61529,-2.25577 -3.46757,-1.36419 -6.80087,-2.398302 -9.756,-2.502512 -0.018,-0.0443 17.44772,0.17233 19.87226,0.711912 2.92191,0.65026 9.68295,1.77879 16.68392,0.21341 5.98578,-1.338392 9.56371,-5.950152 9.56371,-5.950152 z"
       id="path885-7"
       sodipodi:nodetypes="ccccssc" />
    <path
       style="fill:#fce391;fill-opacity:1;stroke:none;stroke-width:0.264583px;stroke-linecap:butt;stroke-linejoin:miter;stroke-opacity:1"
       d="M 48.91419,34.489338 C 41.67937,35.42716 36.1749,38.1532 36.38305,46.78289 c 0.25683,8.26558 8.65604,10.69399 14.98802,6.38911 2.16211,-1.83244 1.69276,-3.99885 0.25215,-5.81049 0.5174,2.11966 0.41573,3.64605 -1.5948,4.10631 -8.60855,1.65461 -12.57848,-1.87145 -13.10611,-4.75153 -0.2012,-6.4596 3.19903,-10.87427 11.99188,-12.226952 z"
       id="path887-9"
       sodipodi:nodetypes="ccccccc" />
    <path
       style="fill:none;stroke:#3f6fb9;stroke-width:0.264583px;stroke-linecap:butt;stroke-linejoin:miter;stroke-opacity:1"
       d="m 49.02683,37.50431 c -2.96956,0.45745 -4.91932,1.47379 -6.36445,2.76667"
       id="path898-6"
       sodipodi:nodetypes="cc" />
    <path
       style="fill:none;stroke:#3f6fb9;stroke-width:0.264583px;stroke-linecap:butt;stroke-linejoin:miter;stroke-opacity:1"
       d="m 41.18589,41.77824 c -0.72375,0.74835 -1.12296,1.42984 -1.55898,2.11892"
       id="path916-1"
       sodipodi:nodetypes="cc" />
    <path
       style="fill:#fce391;fill-opacity:1;stroke:none;stroke-width:0.264583px;stroke-linecap:butt;stroke-linejoin:miter;stroke-opacity:1"
       d="m 41.076201,24.991548 c -3.34085,1.48176 -6.58325,3.5186 -9.40395,7.93283 -10.537694,-4.14766 -14.447824,-16.85713 -10.277164,-22.79065 4.60496,-6.0058504 15.132934,-3.9177703 16.549744,5.11191 -1.9269,-5.5518303 -10.000454,-9.3293703 -14.141154,-4.75127 -0.69129,0.91344 -1.75017,3.30952 0.0113,6.67342 1.97155,2.9185 10.297554,7.41763 17.261224,7.82376 z"
       id="path918-8"
       sodipodi:nodetypes="ccccccc" />
    <path
       style="fill:none;stroke:#3f6fb9;stroke-width:0.264583px;stroke-linecap:butt;stroke-linejoin:miter;stroke-opacity:1"
       d="m 29.076997,18.843298 c -2.06022,-0.84811 -3.16698,-2.51249 -3.03798,-5.23481"
       id="path920-7"
       sodipodi:nodetypes="cc" />
    <path
       style="fill:none;stroke:#d35454;stroke-width:0.264583px;stroke-linecap:butt;stroke-linejoin:miter;stroke-opacity:1"
       d="m 27.682517,11.130408 c 0.24442,-0.28828 0.55479,-0.55669 1.34283,-0.68113"
       id="path922-7"
       sodipodi:nodetypes="cc" />
    <path
       style="fill:none;stroke:#3f6fb9;stroke-width:0.264583px;stroke-linecap:butt;stroke-linejoin:miter;stroke-opacity:1"
       d="m 30.887761,5.9039777 c 1.26687,0.45995 2.22912,0.46864 4.45789,2.35353"
       id="path926-1"
       sodipodi:nodetypes="cc" />
    <path
       style="fill:none;stroke:#d35454;stroke-width:0.264583px;stroke-linecap:butt;stroke-linejoin:miter;stroke-opacity:1"
       d="m 61.970801,16.767918 1.61529,-0.144"
       id="path928-6" />
    <path
       style="fill:none;stroke:#d35454;stroke-width:0.264583px;stroke-linecap:butt;stroke-linejoin:miter;stroke-opacity:1"
       d="m 67.264241,16.108868 6.04518,-2.63863"
       id="path930-9" />
    <path
       style="fill:none;stroke:#d35454;stroke-width:0.264583px;stroke-linecap:butt;stroke-linejoin:miter;stroke-opacity:1"
       d="m 79.209811,9.0816477 -0.91258,-2.55357"
       id="path932-0" />
    <path
       style="fill:none;stroke:#d35454;stroke-width:0.264583px;stroke-linecap:butt;stroke-linejoin:miter;stroke-opacity:1"
       d="m 84.688001,9.3193777 0.52261,-2.78632"
       id="path934-2" />
    <path
       style="fill:none;stroke:#d35454;stroke-width:0.264583px;stroke-linecap:butt;stroke-linejoin:miter;stroke-opacity:1"
       d="m 31.244531,10.796198 1.11484,0.66017"
       id="path936-1" />
    <path
       style="fill:#fce391;fill-opacity:1;stroke:none;stroke-width:0.264583px;stroke-linecap:butt;stroke-linejoin:miter;stroke-opacity:1"
       d="m 97.434651,32.508268 c 0.38688,2.25315 0.75837,5.900412 4.495209,8.495042 -8.738679,-0.15407 -11.257623,-1.34595 -12.690371,-3.70271 2.781483,-1.16554 5.122012,-2.861462 8.195162,-4.792332 z"
       id="path948-1"
       sodipodi:nodetypes="cccc" />
    <path
       sodipodi:nodetypes="cccccc"
       id="path950-8-6"
       d="m 30.473981,36.43387 c -1.02455,5.42745 1.11361,11.82111 4.10274,15.64215 C 24.216277,48.41555 13.164817,37.6516 11.221617,25.681938 l 6.73995,-8.97753 c -0.78756,4.11165 0.38592,7.269 1.96215,11.22552 3.05783,4.4767 6.55421,7.384262 10.550264,8.503942 z"
       style="fill:#fce391;fill-opacity:1;stroke:none;stroke-width:0.264583px;stroke-linecap:butt;stroke-linejoin:miter;stroke-opacity:1" />
    <path
       style="fill:none;stroke:#3f6fb9;stroke-width:0.264583px;stroke-linecap:butt;stroke-linejoin:miter;stroke-opacity:1"
       d="m 18.046447,13.295498 -3.51939,4.68908"
       id="path976-4" />
    <path
       style="fill:#fce391;fill-opacity:1;stroke:none;stroke-width:0.264583px;stroke-linecap:butt;stroke-linejoin:miter;stroke-opacity:1"
       d="m 92.223851,17.654708 c -1.62769,2.32962 -3.26296,4.6213 -4.54358,8.68626 -0.68469,-1.47162 -1.77159,-2.44046 -3.87541,-2.13816 -2.6727,0.70932 -5.34539,1.96338 -8.01809,3.74177 -14.33925,-3.10467 -19.16819,-7.09747 -23.90986,-9.89044 -0.39243,-0.23115 0.41635,0.20523 0,0 5.45701,1.92122 11.03046,3.52849 20.29166,0.007 1.79107,-0.68107 6.04899,-3.88083 8.29542,-4.81626 l 2.6727,8.15172 1.33634,-9.08716 c 3.03373,-0.10312 6.3712,-0.0484 7.75082,5.34539 z"
       id="path864-4"
       sodipodi:nodetypes="ccccscsccccc" />
    <path
       id="path1063"
       d="m 78.11995,30.012048 -3.43811,4.55913"
       style="fill:none;stroke:#d35454;stroke-width:0.264583px;stroke-linecap:butt;stroke-linejoin:miter;stroke-opacity:1" />
    <path
       sodipodi:nodetypes="cc"
       style="fill:none;stroke:#d35454;stroke-width:0.264583px;stroke-linecap:butt;stroke-linejoin:miter;stroke-opacity:1"
       d="m 72.478548,30.296258 -3.182522,4.27492"
       id="path1063-8" />
    <path
       id="path1063-4"
       d="m 83.328794,30.012048 -3.43811,4.55913"
       style="fill:none;stroke:#d35454;stroke-width:0.264583px;stroke-linecap:butt;stroke-linejoin:miter;stroke-opacity:1" />
    <path
       sodipodi:nodetypes="cc"
       id="path1063-4-0"
       d="m 66.868598,31.091658 -2.376485,3.29035"
       style="fill:none;stroke:#3f6fb9;stroke-width:0.264583px;stroke-linecap:butt;stroke-linejoin:miter;stroke-opacity:1" />
    <path
       sodipodi:nodetypes="cc"
       id="path1063-4-00"
       d="m 61.946154,30.506888 -2.782358,3.60996"
       style="fill:none;stroke:#3f6fb9;stroke-width:0.264583px;stroke-linecap:butt;stroke-linejoin:miter;stroke-opacity:1" />
    <path
       sodipodi:nodetypes="cc"
       id="path1158"
       d="m 112.99722,33.881418 c 0.16865,-0.5527 0.22785,-1.10602 0.27893,-1.6594"
       style="fill:none;stroke:#d35454;stroke-width:0.264583px;stroke-linecap:butt;stroke-linejoin:miter;stroke-opacity:1" />
    <path
       sodipodi:nodetypes="cccc"
       id="path948-1-5"
       d="m 115.5768,32.508268 c -0.38688,2.25315 -0.75837,5.900412 -4.49521,8.495042 8.73868,-0.15407 11.25763,-1.34595 12.69038,-3.70271 -2.78149,-1.16554 -5.12202,-2.861462 -8.19517,-4.792332 z"
       style="fill:#fce391;fill-opacity:1;stroke:none;stroke-width:0.264583px;stroke-linecap:butt;stroke-linejoin:miter;stroke-opacity:1" />
  </g>
</svg>
