<svg xmlns="http://www.w3.org/2000/svg" viewBox="0 0 1920 400"><defs><clipPath id="clip-path"><path fill="none" d="M37.545 35.116h1802.91v240.51H37.545z"/></clipPath><style>.cls-5{fill:#eeeafe}.cls-7{fill:#d6d2e8}.cls-8{fill:#d5d1e7}.cls-9{fill:#d6d1e7}</style></defs><g id="Layer_1" data-name="Layer 1"><path fill="#fd418d" d="M0 59.632V1080h1920V0H0v59.632z"/><g clip-path="url(#clip-path)"><path d="M1794.665 150.722c-7.365.1-14.734.083-22.1.313q-23.791.746-47.576 1.707c-14.97.61-29.932 1.417-44.9 2.033-16.087.663-32.182 1.152-48.269 1.813-17.2.706-34.4 1.558-51.606 2.285q-44.238 1.871-88.479 3.664c-11.842.49-23.683 1-35.526 1.472-27.037 1.073-54.076 2.084-81.111 3.2-26.142 1.079-52.278 2.281-78.419 3.379-16.31.686-32.625 1.253-48.936 1.924-15.864.652-31.725 1.37-47.587 2.057q-18.432.8-36.864 1.59-29.827 1.247-59.657 2.442c-1.292.052-2.594-.147-4.286-.255l-.962-6.31a28.8 28.8 0 014.077-.8c25.025-1.007 50.054-1.938 75.078-2.956 15.641-.637 31.276-1.405 46.914-2.091q17.091-.749 34.184-1.433c17.206-.672 34.416-1.25 51.619-1.969q18.048-.753 36.083-2.045c-10.274 0-20.55-.137-30.821.029-20.349.33-40.694.83-61.04 1.256q-65.065 1.361-130.131 2.727c-8.719.187-17.437.492-26.154.774-1.3.042-2.589.259-4.361.445.438 3.4.847 6.454 1.222 9.512 1.344 10.933 1.537 21.844-.585 32.718a54.651 54.651 0 01-11.239 24.777c-5.545 6.741-12.376 11.67-20.951 13.706a41.58 41.58 0 01-20.554-.038c-14.5-3.922-23.867-15.953-24.939-31.406-.689-9.921 1.938-19.063 6.861-27.569 7.458-12.886 18.573-21.633 32.109-27.326 5.329-2.241 11.005-3.655 16.512-5.476 1.228-.405 2.413-.939 4.105-1.6a51.648 51.648 0 00-14.055-16.4c-10.04-7.734-21.524-10.556-34.055-9.364-12.515 1.189-23.865 5.676-34.284 12.536q-33.5 22.054-45.258 60.458c-.843 2.768-1.6 5.563-2.653 9.257-.8-2.549-1.412-4.3-1.914-6.089-8.194-29.133-25.1-51.562-51.4-66.739a72.175 72.175 0 00-28.445-9.376c-20.736-2.284-38.1 7.671-47.867 24.407a6.353 6.353 0 00-.318 1.644c1.627.5 3.283 1.06 4.97 1.5 11.8 3.092 22.828 7.773 32.442 15.445a58.157 58.157 0 0117.566 22.515c3.908 9.039 5.482 18.46 3.156 28.169-3.256 13.59-11.59 22.943-25.311 25.747-14.054 2.873-27.1-.08-37.565-10.9a52.212 52.212 0 01-13.218-24.5 81.1 81.1 0 01-2.136-26.625c.447-4.893 1.081-9.769 1.591-14.657.136-1.3.127-2.621.183-3.9-2.476-1.375-5-.883-7.4-.941q-33.872-.821-67.747-1.514-66.742-1.379-133.486-2.706c-12.072-.244-24.144-.5-36.217-.7a60.132 60.132 0 00-7.077.4c82.391 3.806 164.8 7 247.012 10.541 1.112 2.795.2 4.795-.677 6.973-1.253.066-2.356.216-3.451.168-23.681-1.023-47.361-2.1-71.043-3.1-15.193-.643-30.392-1.155-45.585-1.78-16.758-.69-33.512-1.45-50.268-2.166q-17.763-.759-35.526-1.48c-27.261-1.078-54.525-2.087-81.784-3.212-26.141-1.079-52.277-2.289-78.416-3.4-14.746-.629-29.5-1.16-44.243-1.769-17.651-.729-35.3-1.51-52.951-2.241-14.747-.612-29.5-1.166-44.242-1.78q-26.141-1.087-52.279-2.233-18.1-.768-36.2-1.5c-18.323-.718-36.663-1.131-54.966-2.194-12.514-.726-25.022-.6-37.532-.915a25.464 25.464 0 01-7.352-1c2.959-.073 5.918-.228 8.876-.206 17 .129 33.993.434 50.989.437q274.755.049 549.509.054c24.6.009 49.2.425 73.793.765 7.139.1 14.274.587 21.793.914 1.177-1.777 2.41-3.594 3.6-5.44a72.8 72.8 0 0117.46-19.3c17.364-13 36.619-15.8 57.224-10.065 17.606 4.905 31.692 15.258 43.161 29.266 11.447 13.979 18.265 30.088 21.409 47.815.43 2.421.862 4.842 1.344 7.253a4.362 4.362 0 00.677 1.161c1.13-5.686 1.948-11.41 3.426-16.959 6.445-24.208 19.266-44.117 40.314-58.2 12.548-8.4 26.343-13.044 41.593-13.065 16.7-.022 30.971 5.9 43.09 17.243a75.536 75.536 0 0111.958 14.427c1.2 1.87 2.45 3.71 3.657 5.533a8.659 8.659 0 002.068.4c23-1.6 46.024-1.885 69.061-1.879q215.04.049 430.079.1 82.192.011 164.383-.094c10.287-.012 20.574-.247 30.86-.364 2.668-.03 5.336 0 8 0-.007.348-.02.712-.034 1.076zm-714.622 16.556a76.115 76.115 0 00-24.9 8.4c-14.575 8.063-23.258 20.538-27.043 36.577a29.9 29.9 0 00.043 14.612c2.369 9.028 8.752 13.984 18.01 14.026 8.312.038 15.186-3.385 20.938-9.123a50.733 50.733 0 0013.9-24.833c2.306-9.942 1.96-19.981.752-30.014-.362-3.054-1.057-6.068-1.7-9.645zm-267.67.546a6.512 6.512 0 00-.864 1.65 99.765 99.765 0 00-1.474 31.97 50.562 50.562 0 0015.183 30.585c5.783 5.714 12.77 8.937 21.025 8.828 8.872-.116 15.131-5.215 17.5-13.784 1.739-6.29.874-12.422-.851-18.482-6.327-22.233-26.457-38.466-50.519-40.767z"/><path d="M893.994 83.923a16.46 16.46 0 019.087-.833 44.707 44.707 0 0128.309 15.195c1.588 1.8 3.121 3.654 5.154 6.04 1.053-3.232.166-5.824.236-8.349.075-2.682-.052-5.37.047-8.05s.358-5.355.566-8.031c.225-2.9.4-5.8.73-8.689.306-2.664.733-5.318 1.216-7.956s1.047-5.262 1.678-7.868 1.3-5.207 2.115-7.76c.8-2.507 1.261-5.192 3.434-7.914 8.208 20.888 9.584 42.1 8.831 63.773 2.415-.007 3.012-1.976 4.028-3.231A46.564 46.564 0 01978.5 85.88a40.059 40.059 0 0115.7-3.022 31.546 31.546 0 013.871.636 17.272 17.272 0 01-1.935 2.361c-3.514 2.766-7.144 5.388-10.6 8.219a113.588 113.588 0 00-26.685 30.742c-3.039 5.214-6.037 10.454-9.088 15.662-.993 1.695-2.1 3.326-3.38 5.35-1.038-1.448-1.891-2.46-2.548-3.586-2.481-4.247-4.959-8.5-7.328-12.807a122.491 122.491 0 00-34.7-39.518c-2.313-1.717-4.569-3.499-7.813-5.994z"/></g></g><g id="icons"><path d="M943.754 141.787a11.061 11.061 0 001 3.309c.487.752 1.752 1.261 2.67 1.878l1.668 23.541-1.706.123c-.423-2-.911-4-1.258-6-1.142-6.6-2.292-13.21-3.278-19.826-.143-.978.582-2.012.904-3.025z" fill="#dbd7ec"/><path class="cls-5" d="M874.914 117.95a63.341 63.341 0 017.417 2.658c5.319 2.645 10.692 5.347 15.1 9.655 2 1.952 3.218 2 5.374.44 6.141-4.454 13.131-6.636 20.2-8.39 4.863-1.208 9.794-2.081 14.7-3.063.358-.072.769.18 1.155.281l3.983 3.865c-2.179 2.61-4.226 5.078-6.29 7.529-1.2 1.431-1.121 2.406.406 3.386a6.017 6.017 0 001.481.51c3.65 1.155 7.3 2.307 11.137 3.519-.572 1.016-.93 1.531-1.175 2.107-1.089 2.557-2.145 5.132-3.213 7.7a6.765 6.765 0 00-.338 1.82c.369 3.984.8 7.962 1.228 11.939.13 1.209.313 2.411.472 3.616l.639-.074-.625-14.178a13.738 13.738 0 01.593-2.4c1.351-3.024 2.8-5.994 4.171-9.007.944-2.074.772-2.4-.964-3.53-2.843-1.852-5.633-3.806-8.533-5.776 2.461-2.893 5.011-5.834 7.491-8.846a17.228 17.228 0 001.467-2.566 27.022 27.022 0 014.27.041c9.916 1.619 19.754 3.688 29.094 7.89a57.084 57.084 0 017.853 4.714 1.476 1.476 0 002.159-.087c8.178-7.723 17.754-12.261 27.993-15.289a85.677 85.677 0 00-.281 9.923 57.42 57.42 0 006.249 21.738c1.824 3.531 3.965 6.859 5.963 10.278-.848.6-1.672 1.246-2.55 1.784-1.171.716-1.605 1.279-.61 2.823 5.857 9.1 10.738 18.78 13.11 29.779a64.533 64.533 0 01-.249 28.381 34.415 34.415 0 01-6.8 13.477c-3.864 4.935-8.649 8.418-13.45 11.985-6.648 4.941-13.131 10.16-19.795 15.071a95.4 95.4 0 00-22.354 23.947c-4.63 6.87-7.251 14.651-9.064 22.839a65.252 65.252 0 01-11.323 25.244 9.838 9.838 0 01-2.84 2.552 2.28 2.28 0 01-2.142-.239c-3.2-2.4-4.791-6.165-6.206-9.949-1.245-3.332-2.162-6.817-3.268-10.373-.815 2.787-1.415 5.61-2.457 8.212a99.9 99.9 0 01-4.656 9.806 7.459 7.459 0 01-2.718 2.674 2.164 2.164 0 01-2.161-.453 53.247 53.247 0 01-5.239-6.46c-4.467-6.825-7.133-14.553-8.871-22.745a64.619 64.619 0 00-11.229-24.876 101.332 101.332 0 00-24.357-23.538c-5.429-3.794-10.549-8.137-15.822-12.212-2.392-1.849-4.944-3.469-7.2-5.5-7.692-6.909-12.762-15.484-13.69-26.8-.726-8.859-.416-17.557 2.213-26a101.251 101.251 0 0111.572-24.414c1.38-2.163 1.361-2.253-.821-3.5l-.625-.357a5.041 5.041 0 00.791-.752A90.655 90.655 0 00872.528 137a51.277 51.277 0 002.386-19.05zM914 207.4l-.346-.464c-.455.143-.9.313-1.365.423-1.837.438-3.845 1.57-5.443-.167a20.864 20.864 0 01-3.052-4.943c-.92-1.877-1.493-3.964-2.38-5.865-2.16-4.634-7.239-7.4-11.3-6.118-3.407 1.078-8 6.8-6.622 13.123.713 3.279 1.632 6.527 2.054 9.852a33.719 33.719 0 01.084 8.644c-.325 2.415-2.536 3.278-4.464 3.376-1.543.079-3.4-.305-4.116-2.318-2.706-7.646-4.416-15.462-3.242-23.793 1.641-11.634 10.259-18.691 20.116-18.366 7.553.25 13.166 4.983 17.174 11.867 1.68 2.886 2.648 6.29 3.864 9.273a3.4 3.4 0 00.3-1.043c.266-5.352 1.371-10.587.853-16.072-.608-6.422-1.084-12.867-3.253-18.853-2.846-7.854-8.414-11.7-15.937-10.222-6.211 1.217-10.828 5.578-15.077 10.406a55.283 55.283 0 00-8.192 13.059 79.172 79.172 0 00-6.531 18.873 66.2 66.2 0 00-.987 19.144 18.573 18.573 0 005.965 12.363c3.464 3.149 7.668 3.241 11.754 3.584a17.036 17.036 0 0013.1-4.341c2.333-2.047 4.98-3.732 7.028-6.079a80.81 80.81 0 006.336-9.051c1.329-2.018 2.464-4.192 3.679-6.292zm64.018-5.153l.541.016a26.938 26.938 0 014.864-11.724c5.074-6.742 11.125-10.7 19.339-9.487 9.692 1.43 16.421 10.232 16.941 20.85a56.322 56.322 0 01-2.646 18.565c-.412 1.422-1.094 3.127-2.13 3.874-3.6 2.592-8.033-.2-7.836-4.955a100.877 100.877 0 011.365-10.356c.429-2.936 1.326-5.866 1.3-8.789-.061-6.016-6.127-13.166-13.207-9.059-3.772 2.188-5.212 6.067-6.852 9.979a46.612 46.612 0 01-3.317 5.874 2.214 2.214 0 01-2.8.952c-1.355-.378-2.736-.641-4.256-.988a4.874 4.874 0 00.235.944c3.422 6.206 6.835 12.476 12 17.088a49.309 49.309 0 009.233 6.6c4.477 2.421 9.3 1.587 14.075.854 6.532-1 10.833-6.982 11.758-13.393a81.527 81.527 0 00.413-11.786c-.02-8.443-2.359-16.272-5.6-23.754-2.51-5.793-5.223-11.453-9.245-16.261-4.042-4.831-8.347-9.091-14.132-11.012-8.45-2.8-15.186 1.72-17.994 10.255a72.723 72.723 0 00-3.165 21.423c-.089 4.751.714 9.526 1.118 14.291z"/><path class="cls-5" d="M843.759 115.424a61.817 61.817 0 017.032-1.268 52.705 52.705 0 0122.545 3.357c.049.019.081.108.12.164-.326 4.836-.342 9.742-1.042 14.495-1.451 9.842-5.346 18.435-9.763 26.692-1.144 2.14-2.207 4.347-3.307 6.523-5.906-2.333-11.734-5.2-18.152-4.043.149-.632.3-1.265.446-1.9 1.325-5.557 3.014-11.032 3.86-16.7.679-4.553.278-9.34.464-14.016a36.241 36.241 0 00-2.203-13.304z"/><path class="cls-5" d="M838.691 161.383c-.406.286-.788.731-1.223.833a25.6 25.6 0 00-12.366 6.6c-.127.124-.342.109-.517.159-2.029-5.424-3.792-11.031-6.158-16.221a58.766 58.766 0 00-10.167-15.934 58.689 58.689 0 0123.481-18.148 101.4 101.4 0 0110.222-3.22 2.606 2.606 0 00.024.665c2.3 7.524 2.577 15.269 1.791 23.167a85.867 85.867 0 01-5.087 22.099zM792.325 187.7a49.05 49.05 0 01-.653-6.5c.13-4.793.312-9.614.867-14.353.87-7.436 3.8-13.813 7.532-19.633 1.895-2.958 3.95-5.762 5.957-8.609.171-.242.53-.284.8-.419 1.141 1.5 2.376 2.905 3.405 4.511a103.016 103.016 0 0111.689 25.019 21.1 21.1 0 001.205 2.615c-.993 1.534-1.927 3.132-2.989 4.589-2.57 3.53-3.311 7.9-3.9 12.363-.254 1.923-.5 3.85-.744 5.775-2.293-1.041-4.573-2.13-6.882-3.115-5.289-2.254-10.782-2.336-16.287-2.243zM815.507 195.723c.193 10.63 1.718 20.926 5.865 30.337 2.314 5.251 5.182 10.129 7.752 15.212a10.574 10.574 0 01.549 2.325 5.56 5.56 0 01-2.106.368c-5.646-1.3-10.1-5.3-14.326-9.786a83.54 83.54 0 01-14.812-21.89 67.381 67.381 0 01-6.08-22.372 37.711 37.711 0 0117.583 3.454c1.844.834 3.716 1.571 5.575 2.352z"/><path d="M950.792 119.143a17.228 17.228 0 01-1.467 2.566c-2.48 3.012-5.03 5.953-7.491 8.846 2.9 1.97 5.69 3.924 8.533 5.776 1.736 1.131 1.908 1.456.964 3.53-1.372 3.013-2.82 5.983-4.171 9.007a13.727 13.727 0 00-.593 2.4c-.344-.372-.818-.679-1-1.131a9.914 9.914 0 01-.375-1.993c1.068-2.568 2.124-5.143 3.213-7.7.245-.576.6-1.091 1.175-2.107-3.836-1.212-7.487-2.364-11.137-3.519a6.017 6.017 0 01-1.481-.51c-1.527-.98-1.611-1.955-.406-3.386 2.064-2.451 4.111-4.919 6.29-7.529l-3.983-3.865a26.4 26.4 0 0111.929-.385z" fill="#d2cde3"/><path class="cls-7" d="M859.344 165.387c1.1-2.176 2.163-4.383 3.307-6.523 4.417-8.257 8.312-16.85 9.763-26.692.7-4.753.716-9.659 1.042-14.495l1.824.874a64.031 64.031 0 01-2.458 21.679 107.357 107.357 0 01-11.6 24.748 5.36 5.36 0 01-.814.856z"/><path class="cls-8" d="M838.691 161.383a85.867 85.867 0 005.087-22.1c.786-7.9.506-15.643-1.791-23.167a2.606 2.606 0 01-.024-.665l1.8-.028a36.241 36.241 0 012.2 13.31c-.186 4.676.215 9.463-.464 14.016-.846 5.665-2.535 11.14-3.86 16.7-.15.632-.3 1.265-.446 1.9z"/><path class="cls-9" d="M823.128 170.332a21.1 21.1 0 01-1.205-2.615 103.016 103.016 0 00-11.689-25.017c-1.029-1.606-2.264-3.012-3.405-4.511l1.431-1.367a58.766 58.766 0 0110.167 15.939c2.366 5.19 4.129 10.8 6.158 16.221z"/><path class="cls-8" d="M815.507 195.723c-1.859-.781-3.731-1.518-5.575-2.352a37.711 37.711 0 00-17.583-3.454l-.024-2.216c5.5-.094 11-.012 16.286 2.243 2.309.985 4.589 2.074 6.882 3.115l.014 2.664z"/><path class="cls-5" d="M1048.761 114.889a62.038 62.038 0 00-7.032-1.268 52.706 52.706 0 00-22.545 3.358c-.049.018-.081.107-.12.163.326 4.837.342 9.743 1.042 14.5 1.451 9.841 5.346 18.434 9.763 26.692 1.144 2.14 2.207 4.346 3.307 6.522 5.906-2.333 11.734-5.2 18.152-4.043-.149-.632-.3-1.265-.446-1.9-1.325-5.558-3.014-11.032-3.86-16.7-.679-4.552-.278-9.339-.464-14.016a36.248 36.248 0 012.203-13.308z"/><path class="cls-5" d="M1053.829 160.849c.406.285.788.731 1.223.832a25.6 25.6 0 0112.366 6.606c.127.123.342.108.517.158 2.029-5.423 3.792-11.031 6.158-16.221a58.766 58.766 0 0110.167-15.939 58.679 58.679 0 00-23.481-18.147 101.408 101.408 0 00-10.222-3.221 2.6 2.6 0 01-.024.665c-2.3 7.524-2.578 15.27-1.791 23.167a85.884 85.884 0 005.087 22.1zM1100.2 187.167a49.065 49.065 0 00.653-6.5c-.13-4.793-.312-9.613-.867-14.352-.87-7.436-3.8-13.814-7.532-19.634-1.895-2.958-3.95-5.762-5.957-8.609-.171-.242-.53-.283-.8-.418-1.141 1.5-2.376 2.9-3.4 4.511a103.009 103.009 0 00-11.689 25.018 21.037 21.037 0 01-1.2 2.615c.993 1.534 1.927 3.132 2.989 4.59 2.57 3.529 3.311 7.9 3.9 12.362.254 1.924.5 3.85.744 5.775 2.293-1.041 4.573-2.129 6.882-3.114 5.277-2.256 10.767-2.338 16.277-2.244zM1077.013 195.188c-.193 10.631-1.718 20.926-5.865 30.338-2.314 5.25-5.182 10.128-7.752 15.211a10.569 10.569 0 00-.549 2.326 5.578 5.578 0 002.106.367c5.646-1.3 10.1-5.3 14.326-9.785a83.54 83.54 0 0014.812-21.89 67.386 67.386 0 006.08-22.373 37.724 37.724 0 00-17.583 3.455c-1.844.833-3.716 1.57-5.575 2.351z"/><path class="cls-7" d="M1033.176 164.852c-1.1-2.176-2.163-4.382-3.307-6.522-4.417-8.258-8.312-16.851-9.763-26.692-.7-4.753-.716-9.659-1.042-14.5l-1.825.875a64.05 64.05 0 002.461 21.687 107.357 107.357 0 0011.6 24.748 5.318 5.318 0 00.814.856z"/><path class="cls-8" d="M1053.829 160.849a85.884 85.884 0 01-5.087-22.1c-.787-7.9-.506-15.643 1.791-23.167a2.6 2.6 0 00.024-.665l-1.8-.028a36.248 36.248 0 00-2.2 13.31c.186 4.677-.215 9.464.464 14.016.846 5.666 2.535 11.14 3.86 16.7.15.631.3 1.264.446 1.9z"/><path class="cls-9" d="M1069.392 169.8a21.037 21.037 0 001.2-2.615 103.009 103.009 0 0111.689-25.018c1.029-1.607 2.264-3.013 3.4-4.511l-1.431-1.367a58.746 58.746 0 00-10.167 15.938c-2.366 5.19-4.129 10.8-6.158 16.221z"/><path class="cls-8" d="M1077.013 195.188c1.859-.781 3.731-1.518 5.575-2.351a37.724 37.724 0 0117.583-3.455l.024-2.215c-5.5-.094-11-.012-16.286 2.243-2.309.985-4.589 2.073-6.882 3.114l-.014 2.664z"/></g><g id="marks"><path class="cls-5" d="M1062.205 39.694a41.462 41.462 0 002.535-3.3c2.3-3.733 5.864-5.755 9.774-7.231 3.151-1.189 6.4-2.177 9.853-1.676 4.213.611 8.03 2.047 10.163 6.046a16.34 16.34 0 011.449 9.739 42.974 42.974 0 01-8.9 21.29c-2.582 3.392-5.5 6.531-8.244 9.8-2.657 3.158-5.176 6.443-7.981 9.463a71.771 71.771 0 01-6.127 5.335c-.1.086-.25.115-.354.2-.918.742-1.861 2.111-2.737 2.068-.926-.046-1.866-1.361-2.663-2.246-4.079-4.532-8.211-9.023-12.125-13.7a73.278 73.278 0 01-5.3-7.682 51.2 51.2 0 01-7.372-16.907c-1.319-6.25-1.7-12.525 2.532-18.106 2.369-3.126 7.942-5.173 11.855-4.3a16.575 16.575 0 0111.3 7.947c.637 1.066 1.453 2.031 2.342 3.26zM1118.858 134.959a63.561 63.561 0 01-11.781-12.132c-2.084-2.746-4.514-5.237-6.508-8.042a30.72 30.72 0 01-5.764-13.065c-.631-4.033-.764-8 1.346-11.645a10.019 10.019 0 013.1-3.365c6.135-3.911 16.4-.951 19.581 4.1 2.375 3.768 2.62 3.593 5.429-.257a12.506 12.506 0 0110.659-5.364 9.1 9.1 0 018.049 5.853 17.84 17.84 0 01.188 10.992c-2.313 8.612-7.106 15.765-13.125 22.134-3.521 3.716-7.364 7.132-11.174 10.791z"/></g></svg>