<?xml version="1.0" encoding="utf-8"?>
<!-- Generator: Adobe Illustrator 18.0.0, SVG Export Plug-In . SVG Version: 6.00 Build 0)  -->
<svg version="1.2" baseProfile="tiny" id="Layer_9" xmlns="http://www.w3.org/2000/svg" xmlns:xlink="http://www.w3.org/1999/xlink"
	 x="0px" y="0px" viewBox="0 0 323 85" xml:space="preserve">
<path fill="#EEEB64" d="M211.3,4.3c-0.6,2.8-1.8,4.7-3.8,5c2.7,2.2,4.5,5.4,5.5,9.6c-0.1-4.5,1.4-6.9,4.3-7.3
	C214,10.5,212.4,7.7,211.3,4.3z"/>
<path fill="#EEEB64" d="M219.3,11.6c5.1,1.4,7.9,8,9.9,16.7c-0.6-6.3,0.5-11.4,5.6-13.8c-4.2-3.1-7.6-7.2-9.5-13
	C224.6,6.2,222.9,9.9,219.3,11.6z"/>
<path fill="#FFFFFF" d="M222.4,12c3.1,0.8,4.8,4.9,6,10.1c-0.3-3.8,0.3-6.9,3.4-8.3c-2.6-1.9-4.6-4.4-5.7-7.9
	C225.6,8.8,224.6,11,222.4,12z"/>
<path fill="#FFFFFF" d="M211.1,6.4c-0.4,1.7-1,2.7-2.2,2.9c1.6,1.3,2.6,3.1,3.2,5.6c0-2.6,0.8-4,2.5-4.3
	C212.7,10,211.7,8.4,211.1,6.4z"/>
<polygon fill="#FAE02D" points="277.9,64.1 282.8,65.9 283.6,62.1 286.3,67.3 291.4,68.9 293.8,62.9 296.6,70.4 299.6,69.1 
	301.4,70.4 309.4,70.4 317.9,66.3 311.1,72.1 305.4,74.3 298.8,75.9 295.9,76.8 291.6,79.4 291.3,74.8 284.9,69.6 281.4,71.6 
	281.4,67.8 "/>
<path fill="#FAE02A" d="M52.4,75.3c0,0,0,0.9-0.1,2.5c0,0.4,0,0.9-0.1,1.3c-0.1,0.5-0.1,1-0.2,1.6c-0.1,0.6-0.1,1.2-0.3,1.9
	c-0.1,0.7-0.3,1.4-0.5,2.1c-0.1,0.4-0.2,0.8-0.3,1.1c-0.1,0.4-0.3,0.8-0.4,1.2c-0.3,0.8-0.5,1.7-0.8,2.5c-0.4,0.8-0.7,1.7-1.1,2.7
	c-0.4,0.9-0.9,1.8-1.4,2.7c-2.2,3.7-5.3,7.6-9.7,10.8c-4.4,3.2-10,5.4-16.2,6.1c-0.8,0.1-1.6,0.1-2.3,0.1l-1.2,0l-0.6,0l-0.2,0
	l-0.1,0l-0.1,0l-0.3,0c-1.5-0.1-3-0.2-4.7-0.6c-3.3-0.5-6.3-1.7-9.3-3.1c-3-1.4-5.7-3.4-8.3-5.6c-2.5-2.3-4.8-4.8-6.7-7.7l-1.4-2.2
	c-0.5-0.7-0.8-1.5-1.2-2.3l-0.6-1.2c-0.2-0.4-0.3-0.8-0.5-1.2c-0.3-0.8-0.7-1.6-0.9-2.4c-1.1-3.3-1.7-6.8-1.9-10.4
	c0.1-1.8-0.1-3.4,0.2-5.3l0.2-1.4c0-0.5,0.1-0.9,0.2-1.3l0.6-2.6c1-3.4,2.4-6.7,4.3-9.7c2-3,4.3-5.7,6.9-8c2.7-2.2,5.6-4.2,8.7-5.6
	c3.1-1.4,6.4-2.4,9.6-2.8c1.6-0.3,3.3-0.3,4.9-0.4l0.3,0l0.2,0l0.1,0l0.2,0l0.6,0l1.1,0.1c0.8,0.1,1.5,0.1,2.3,0.2
	c1.6,0.3,3.2,0.4,4.6,0.9c0.7,0.2,1.5,0.4,2.2,0.6c0.7,0.2,1.4,0.5,2.1,0.8c1.4,0.5,2.6,1.2,3.9,1.8c0.6,0.3,1.2,0.7,1.8,1.1
	c0.6,0.4,1.1,0.8,1.7,1.1C42,48,45.1,52,47.3,55.7c0.5,1,1,1.9,1.4,2.8c0.4,0.9,0.8,1.8,1.1,2.7c0.4,0.8,0.6,1.7,0.8,2.5
	c0.1,0.4,0.3,0.8,0.4,1.2c0.1,0.4,0.2,0.8,0.3,1.1c0.2,0.7,0.3,1.4,0.5,2.1c0.1,0.7,0.2,1.3,0.3,1.9c0.1,0.6,0.2,1.1,0.2,1.6
	c0.1,0.5,0,0.9,0.1,1.4C52.4,74.5,52.4,75.3,52.4,75.3L52.4,75.3z M52.1,75.3c0,0-0.1-0.9-0.2-2.4c0-0.4,0-0.8-0.1-1.3
	c-0.1-0.5-0.2-1-0.3-1.6c-0.1-0.6-0.2-1.2-0.3-1.8c-0.2-0.6-0.4-1.3-0.6-2c-0.9-2.8-2.3-6.2-4.8-9.4c-2.4-3.3-5.8-6.5-10-9
	c-2.1-1.2-4.4-2.4-6.9-3.2c-0.6-0.2-1.2-0.4-1.9-0.6c-0.6-0.2-1.3-0.3-2-0.5l-1-0.2c-0.3-0.1-0.7-0.1-1-0.2c-0.7-0.1-1.3-0.2-2-0.3
	c-0.7-0.1-1.5-0.1-2.2-0.1l-1.1,0l-0.6,0c-0.1,0,0.1,0,0,0l-0.1,0l-0.1,0l-0.3,0c-1.4,0.1-2.9,0.1-4.3,0.4c-2.9,0.3-5.7,1.3-8.6,2.4
	C1.1,46.4-1.5,48.1-4,50c-2.4,2-4.6,4.4-6.4,7l-1.3,2c-0.5,0.7-0.8,1.4-1.2,2.1l-0.6,1.1c-0.2,0.4-0.3,0.8-0.5,1.1
	c-0.3,0.8-0.6,1.5-0.9,2.3l-0.7,2.4c-0.1,0.4-0.2,0.8-0.3,1.2l-0.2,1.2c-0.4,1.5-0.4,3.4-0.6,5c0,3.3,0.3,6.7,1.1,9.9
	c1,3.2,2.3,6.3,4.1,9.1c0.5,0.7,1,1.3,1.5,2c0.3,0.3,0.5,0.7,0.8,1l0.8,0.9c0.6,0.6,1.1,1.2,1.7,1.8c0.6,0.5,1.2,1.1,1.9,1.6
	c0.6,0.5,1.3,0.9,2,1.4c0.3,0.2,0.7,0.5,1,0.7l1.1,0.6c0.7,0.4,1.4,0.8,2.1,1.1c0.7,0.3,1.4,0.6,2.2,0.9c2.9,1.1,5.9,1.9,8.8,2.1
	c1.4,0.2,3,0.2,4.5,0.2l0.3,0l0.1,0l0.1,0c0,0-0.1,0,0,0l0.5,0l1.1-0.1c0.7-0.1,1.4-0.1,2.1-0.2c5.6-0.7,10.6-2.7,14.8-5.2
	c4.2-2.6,7.5-5.8,10-9.1c2.5-3.3,3.9-6.6,4.8-9.5c0.2-0.7,0.4-1.4,0.6-2c0.2-0.6,0.2-1.3,0.3-1.8c0.1-0.6,0.2-1.1,0.3-1.6
	c0.1-0.5,0.1-0.9,0.1-1.3C52,76.2,52.1,75.3,52.1,75.3L52.1,75.3z"/>
<path fill="#FAE02A" d="M103,37.2L96.5,1.8l0.7,0.9L64.7-11.8l-4.4-2l4.3-2.1l32-15.4L95.9-30l5.5-35.1l0.2-1.4l1,1l25.6,24.6
	l-1.3-0.4l34.8-7.1l4.5-0.9l-2.1,4.2L148-13.5l0-2.2l16.9,31.2l2.5,4.6l-5.1-1l-34.9-6.8l1.2-0.4L103,37.2z M103.3,36.1l23.3-26
	l0.5-0.5l0.8,0.1l35.2,4.5l-2.6,3.7l-16.7-31.3l-0.6-1.1l0.6-1.1l16.3-31.5l2.4,3.2l-35.1,5.6l-0.8,0.1l-0.5-0.5l-24.5-25.7l1.3-0.4
	l-4,35.3l-0.1,0.8L98-28.5L66.7-11.8l0-4L98.2,0.4l0.6,0.3l0.1,0.6L103.3,36.1z"/>
<path fill="#FAE02A" d="M73.5,75.3c0,0,0,0.9-0.1,2.5c0,0.4,0,0.9-0.1,1.3c-0.1,0.5-0.1,1-0.2,1.6c-0.1,0.6-0.1,1.2-0.3,1.9
	c-0.1,0.7-0.3,1.4-0.5,2.1c-0.1,0.4-0.2,0.8-0.3,1.1c-0.1,0.4-0.3,0.8-0.4,1.2c-0.3,0.8-0.5,1.7-0.8,2.5c-0.4,0.8-0.7,1.7-1.1,2.7
	c-0.4,0.9-0.9,1.8-1.4,2.7c-2.2,3.7-5.3,7.6-9.7,10.8c-4.4,3.2-10,5.4-16.2,6.1c-0.8,0.1-1.6,0.1-2.3,0.1l-1.2,0l-0.6,0l-0.2,0
	l-0.1,0l-0.1,0l-0.3,0c-1.5-0.1-3-0.2-4.7-0.6c-3.3-0.5-6.3-1.7-9.3-3.1c-3-1.4-5.7-3.4-8.3-5.6c-2.5-2.3-4.8-4.8-6.7-7.7l-1.4-2.2
	c-0.5-0.7-0.8-1.5-1.2-2.3l-0.6-1.2C5.3,89,5.2,88.6,5,88.1c-0.3-0.8-0.7-1.6-0.9-2.4C3,82.4,2.4,78.9,2.2,75.3
	c0.1-1.8-0.1-3.4,0.2-5.3l0.2-1.4c0-0.5,0.1-0.9,0.2-1.3l0.6-2.6c1-3.4,2.4-6.7,4.3-9.7c2-3,4.3-5.7,6.9-8c2.7-2.2,5.6-4.2,8.7-5.6
	c3.1-1.4,6.4-2.4,9.6-2.8c1.6-0.3,3.3-0.3,4.9-0.4l0.3,0l0.2,0l0.1,0l0.2,0l0.6,0l1.1,0.1c0.8,0.1,1.5,0.1,2.3,0.2
	c1.6,0.3,3.2,0.4,4.6,0.9c0.7,0.2,1.5,0.4,2.2,0.6c0.7,0.2,1.4,0.5,2.1,0.8c1.4,0.5,2.6,1.2,3.9,1.8c0.6,0.3,1.2,0.7,1.8,1.1
	c0.6,0.4,1.1,0.8,1.7,1.1c4.4,3.2,7.5,7.1,9.6,10.8c0.5,1,1,1.9,1.4,2.8c0.4,0.9,0.8,1.8,1.1,2.7c0.4,0.8,0.6,1.7,0.8,2.5
	c0.1,0.4,0.3,0.8,0.4,1.2c0.1,0.4,0.2,0.8,0.3,1.1c0.2,0.7,0.3,1.4,0.5,2.1c0.1,0.7,0.2,1.3,0.3,1.9c0.1,0.6,0.2,1.1,0.2,1.6
	c0.1,0.5,0,0.9,0.1,1.4C73.5,74.5,73.5,75.3,73.5,75.3L73.5,75.3z M73.1,75.3c0,0-0.1-0.9-0.2-2.4c0-0.4,0-0.8-0.1-1.3
	c-0.1-0.5-0.2-1-0.3-1.6c-0.1-0.6-0.2-1.2-0.3-1.8c-0.2-0.6-0.4-1.3-0.6-2c-0.9-2.8-2.3-6.2-4.8-9.4c-2.4-3.3-5.8-6.5-10-9
	c-2.1-1.2-4.4-2.4-6.9-3.2c-0.6-0.2-1.2-0.4-1.9-0.6c-0.6-0.2-1.3-0.3-2-0.5l-1-0.2c-0.3-0.1-0.7-0.1-1-0.2c-0.7-0.1-1.3-0.2-2-0.3
	c-0.7-0.1-1.5-0.1-2.2-0.1l-1.1,0l-0.6,0c-0.1,0,0.1,0,0,0l-0.1,0l-0.1,0l-0.3,0c-1.4,0.1-2.9,0.1-4.3,0.4c-2.9,0.3-5.7,1.3-8.6,2.4
	c-2.8,1.2-5.4,2.8-7.9,4.8c-2.4,2-4.6,4.4-6.4,7l-1.3,2c-0.5,0.7-0.8,1.4-1.2,2.1l-0.6,1.1c-0.2,0.4-0.3,0.8-0.5,1.1
	c-0.3,0.8-0.6,1.5-0.9,2.3L5.5,68c-0.1,0.4-0.2,0.8-0.3,1.2L5,70.4c-0.4,1.5-0.4,3.4-0.6,5c0,3.3,0.3,6.7,1.1,9.9
	c1,3.2,2.3,6.3,4.1,9.1c0.5,0.7,1,1.3,1.5,2c0.3,0.3,0.5,0.7,0.8,1l0.8,0.9c0.6,0.6,1.1,1.2,1.7,1.8c0.6,0.5,1.2,1.1,1.9,1.6
	c0.6,0.5,1.3,0.9,2,1.4c0.3,0.2,0.7,0.5,1,0.7l1.1,0.6c0.7,0.4,1.4,0.8,2.1,1.1c0.7,0.3,1.4,0.6,2.2,0.9c2.9,1.1,5.9,1.9,8.8,2.1
	c1.4,0.2,3,0.2,4.5,0.2l0.3,0l0.1,0l0.1,0c0,0-0.1,0,0,0l0.5,0l1.1-0.1c0.7-0.1,1.4-0.1,2.1-0.2c5.6-0.7,10.6-2.7,14.8-5.2
	c4.2-2.6,7.5-5.8,10-9.1c2.5-3.3,3.9-6.6,4.8-9.5c0.2-0.7,0.4-1.4,0.6-2c0.2-0.6,0.2-1.3,0.3-1.8c0.1-0.6,0.2-1.1,0.3-1.6
	c0.1-0.5,0.1-0.9,0.1-1.3C73.1,76.2,73.1,75.3,73.1,75.3L73.1,75.3z"/>
<path fill="#FAE02A" d="M95,75.5c0,0,0,0.9-0.1,2.5c0,0.4,0,0.9-0.1,1.3c-0.1,0.5-0.1,1-0.2,1.6c-0.1,0.6-0.1,1.2-0.3,1.9
	c-0.1,0.7-0.3,1.4-0.5,2.1c-0.1,0.4-0.2,0.8-0.3,1.1c-0.1,0.4-0.3,0.8-0.4,1.2c-0.3,0.8-0.5,1.7-0.8,2.5c-0.4,0.8-0.7,1.7-1.1,2.7
	c-0.4,0.9-0.9,1.8-1.4,2.7c-2.2,3.7-5.3,7.6-9.7,10.8c-4.4,3.2-10,5.4-16.2,6.1c-0.8,0.1-1.6,0.1-2.3,0.1l-1.2,0l-0.6,0l-0.2,0
	l-0.1,0l-0.1,0l-0.3,0c-1.5-0.1-3-0.2-4.7-0.6c-3.3-0.5-6.3-1.7-9.3-3.1c-3-1.4-5.7-3.4-8.3-5.6c-2.5-2.3-4.8-4.8-6.7-7.7L28.8,93
	c-0.5-0.7-0.8-1.5-1.2-2.3L27,89.5c-0.2-0.4-0.3-0.8-0.5-1.2c-0.3-0.8-0.7-1.6-0.9-2.4c-1.1-3.3-1.7-6.8-1.9-10.4
	c0.1-1.8-0.1-3.4,0.2-5.3l0.2-1.4c0-0.5,0.1-0.9,0.2-1.3l0.6-2.6c1-3.4,2.4-6.7,4.3-9.7c2-3,4.3-5.7,6.9-8c2.7-2.2,5.6-4.2,8.7-5.6
	c3.1-1.4,6.4-2.4,9.6-2.8c1.6-0.3,3.3-0.3,4.9-0.4l0.3,0l0.2,0l0.1,0l0.2,0l0.6,0l1.1,0.1c0.8,0.1,1.5,0.1,2.3,0.2
	c1.6,0.3,3.2,0.4,4.6,0.9c0.7,0.2,1.5,0.4,2.2,0.6c0.7,0.2,1.4,0.5,2.1,0.8c1.4,0.5,2.6,1.2,3.9,1.8c0.6,0.3,1.2,0.7,1.8,1.1
	c0.6,0.4,1.1,0.8,1.7,1.1c4.4,3.2,7.5,7.1,9.6,10.8c0.5,1,1,1.9,1.4,2.8c0.4,0.9,0.8,1.8,1.1,2.7c0.4,0.8,0.6,1.7,0.8,2.5
	c0.1,0.4,0.3,0.8,0.4,1.2c0.1,0.4,0.2,0.8,0.3,1.1c0.2,0.7,0.3,1.4,0.5,2.1c0.1,0.7,0.2,1.3,0.3,1.9c0.1,0.6,0.2,1.1,0.2,1.6
	c0.1,0.5,0,0.9,0.1,1.4C95,74.6,95,75.5,95,75.5L95,75.5z M94.6,75.5c0,0-0.1-0.9-0.2-2.4c0-0.4,0-0.8-0.1-1.3
	c-0.1-0.5-0.2-1-0.3-1.6c-0.1-0.6-0.2-1.2-0.3-1.8c-0.2-0.6-0.4-1.3-0.6-2c-0.9-2.8-2.3-6.2-4.8-9.4c-2.4-3.3-5.8-6.5-10-9
	c-2.1-1.2-4.4-2.4-6.9-3.2c-0.6-0.2-1.2-0.4-1.9-0.6c-0.6-0.2-1.3-0.3-2-0.5l-1-0.2c-0.3-0.1-0.7-0.1-1-0.2c-0.7-0.1-1.3-0.2-2-0.3
	c-0.7-0.1-1.5-0.1-2.2-0.1l-1.1,0l-0.6,0c-0.1,0,0.1,0,0,0l-0.1,0l-0.1,0l-0.3,0c-1.4,0.1-2.9,0.1-4.3,0.4c-2.9,0.3-5.7,1.3-8.6,2.4
	c-2.8,1.2-5.4,2.8-7.9,4.8c-2.4,2-4.6,4.4-6.4,7l-1.3,2c-0.5,0.7-0.8,1.4-1.2,2.1l-0.6,1.1c-0.2,0.4-0.3,0.8-0.5,1.1
	c-0.3,0.8-0.6,1.5-0.9,2.3L27,68.2c-0.1,0.4-0.2,0.8-0.3,1.2l-0.2,1.2c-0.4,1.5-0.4,3.4-0.6,5c0,3.3,0.3,6.7,1.1,9.9
	c1,3.2,2.3,6.3,4.1,9.1c0.5,0.7,1,1.3,1.5,2c0.3,0.3,0.5,0.7,0.8,1l0.8,0.9c0.6,0.6,1.1,1.2,1.7,1.8c0.6,0.5,1.2,1.1,1.9,1.6
	c0.6,0.5,1.3,0.9,2,1.4c0.3,0.2,0.7,0.5,1,0.7l1.1,0.6c0.7,0.4,1.4,0.8,2.1,1.1c0.7,0.3,1.4,0.6,2.2,0.9c2.9,1.1,5.9,1.9,8.8,2.1
	c1.4,0.2,3,0.2,4.5,0.2l0.3,0l0.1,0l0.1,0c0,0-0.1,0,0,0l0.5,0l1.1-0.1c0.7-0.1,1.4-0.1,2.1-0.2c5.6-0.7,10.6-2.7,14.8-5.2
	c4.2-2.6,7.5-5.8,10-9.1c2.5-3.3,3.9-6.6,4.8-9.5c0.2-0.7,0.4-1.4,0.6-2c0.2-0.6,0.2-1.3,0.3-1.8c0.1-0.6,0.2-1.1,0.3-1.6
	c0.1-0.5,0.1-0.9,0.1-1.3C94.6,76.4,94.6,75.5,94.6,75.5L94.6,75.5z"/>
<g>
	<path fill="none" d="M92.1,46"/>
	<path fill="none" d="M132.4,7.8"/>
	<path fill="none" d="M172.6,46"/>
	<path fill="#FBEF54" d="M253.7,46c0,0,0,0.5,0.1,1.4c0,0.5,0.1,1,0.1,1.7c0.1,0.7,0,1.4,0,2.3c-0.1,0.9-0.1,1.9-0.3,2.9
		c-0.2,1-0.4,2.1-0.7,3.3c-0.3,1.2-0.7,2.4-1.2,3.7c-0.5,1.3-1.1,2.6-1.8,3.9c-0.4,0.6-0.8,1.3-1.2,2c-0.4,0.7-0.8,1.4-1.3,2
		c-0.5,0.6-1,1.3-1.5,2c-0.5,0.7-1.2,1.2-1.8,1.8c-1.2,1.3-2.7,2.3-4.1,3.4c-0.7,0.5-1.5,1-2.3,1.4c-0.4,0.2-0.8,0.5-1.2,0.7
		c-0.4,0.2-0.8,0.4-1.2,0.6c-0.8,0.4-1.7,0.8-2.5,1.2c-0.9,0.3-1.8,0.7-2.6,1c-0.9,0.4-1.8,0.6-2.7,0.9c-0.9,0.3-1.8,0.7-2.7,0.9
		c-0.9,0.2-1.9,0.5-2.8,0.7c-0.9,0.3-1.9,0.4-2.9,0.6l-1.4,0.3c-0.5,0.1-1,0.1-1.5,0.2l-3,0.3l-2.9,0.1c-0.5,0-1,0-1.5,0l-1.5-0.1
		c-1-0.1-2-0.1-3-0.3c-1-0.2-1.9-0.4-2.9-0.6c-0.5-0.1-1-0.2-1.4-0.4l-1.4-0.4c-0.9-0.3-1.9-0.6-2.8-1c-0.9-0.4-1.8-0.8-2.7-1.1
		c-0.8-0.5-1.7-0.9-2.5-1.4c-0.8-0.4-1.6-0.9-2.4-1.5c-0.8-0.5-1.6-1-2.2-1.6c-1.4-1.2-2.8-2.3-3.9-3.7c-2.4-2.5-4.2-5.3-5.7-8
		c-0.7-1.4-1.2-2.7-1.8-4c-0.4-1.3-0.8-2.5-1.2-3.7c-0.2-1.2-0.5-2.3-0.6-3.3c-0.2-1-0.2-2-0.2-2.9c-0.1-0.9-0.1-1.6,0-2.3
		c0-0.7,0.1-1.2,0.1-1.7c0.1-0.9,0.1-1.4,0.1-1.4h0.4c0,0,0.1,0.5,0.3,1.4c0.1,0.4,0.2,1,0.3,1.6c0.1,0.3,0.1,0.7,0.2,1
		c0.1,0.4,0.2,0.7,0.3,1.1c0.2,0.8,0.4,1.7,0.7,2.6c0.3,0.9,0.7,1.9,1.1,3c0.4,1,1,2.1,1.5,3.3c0.6,1.1,1.3,2.2,2,3.4
		c1.6,2.3,3.3,4.7,5.6,6.8c1.1,1.2,2.3,2.1,3.6,3.2c0.6,0.5,1.3,1,2,1.5l1,0.8c0.3,0.3,0.7,0.4,1.1,0.7c0.7,0.4,1.5,0.9,2.2,1.3
		c0.8,0.4,1.6,0.8,2.4,1.2c0.8,0.4,1.6,0.7,2.5,1c0.8,0.3,1.7,0.7,2.5,0.9c0.9,0.3,1.8,0.5,2.6,0.8c0.9,0.3,1.8,0.4,2.7,0.6l1.3,0.3
		c0.5,0.1,0.9,0.1,1.4,0.2l2.9,0.3c3.6,0.2,7.6,0,11.1-1.1c0.5-0.1,0.9-0.2,1.3-0.4l1.3-0.5l1.3-0.5c0.4-0.1,0.8-0.4,1.2-0.6
		c0.8-0.4,1.6-0.8,2.4-1.3c0.7-0.5,1.5-1,2.2-1.5c0.4-0.3,0.7-0.5,1.1-0.8l1-0.8c0.7-0.6,1.3-1.1,1.9-1.7c1.2-1.2,2.4-2.3,3.4-3.5
		c2.2-2.3,3.9-4.7,5.4-7c0.7-1.2,1.3-2.3,1.9-3.5c0.5-1.2,1-2.2,1.5-3.3c0.4-1.1,0.7-2.1,1.1-3c0.3-0.9,0.5-1.8,0.7-2.6
		c0.1-0.4,0.2-0.8,0.3-1.1c0.1-0.4,0.1-0.7,0.2-1c0.1-0.6,0.2-1.2,0.3-1.6c0.2-0.9,0.3-1.4,0.3-1.4L253.7,46z"/>
</g>
<g>
	<path fill="#FBEF54" d="M333.9,46c0,0-0.1-0.5-0.3-1.4c-0.1-0.4-0.2-1-0.3-1.6c-0.1-0.3-0.1-0.7-0.2-1c-0.1-0.4-0.2-0.7-0.3-1.1
		c-0.2-0.8-0.4-1.7-0.7-2.6c-0.3-0.9-0.7-1.9-1.1-3c-0.4-1-1-2.1-1.5-3.3c-0.6-1.1-1.2-2.3-1.9-3.5c-1.5-2.3-3.2-4.7-5.4-7
		c-1-1.2-2.2-2.3-3.4-3.5c-0.6-0.6-1.3-1.1-1.9-1.7l-1-0.8c-0.3-0.3-0.7-0.5-1.1-0.8c-0.7-0.5-1.5-1-2.2-1.5
		c-0.8-0.4-1.6-0.8-2.4-1.3c-0.4-0.2-0.8-0.4-1.2-0.6l-1.3-0.5l-1.3-0.5c-0.4-0.2-0.9-0.3-1.3-0.4c-3.6-1-7.5-1.2-11.1-1.1L291,9.3
		c-0.5,0.1-1,0.1-1.4,0.2l-1.3,0.3c-0.9,0.2-1.8,0.3-2.7,0.6c-0.9,0.3-1.8,0.5-2.6,0.8c-0.9,0.2-1.7,0.6-2.5,0.9
		c-0.8,0.3-1.7,0.6-2.5,1c-0.8,0.4-1.6,0.8-2.4,1.2c-0.7,0.5-1.5,0.9-2.2,1.3c-0.4,0.2-0.7,0.4-1.1,0.7l-1,0.8c-0.7,0.5-1.4,1-2,1.5
		c-1.2,1.1-2.5,2.1-3.6,3.2c-2.3,2.2-4.1,4.6-5.6,6.8c-0.7,1.2-1.4,2.3-2,3.4c-0.5,1.2-1.1,2.2-1.5,3.3c-0.4,1.1-0.7,2.1-1.1,3
		c-0.3,0.9-0.5,1.8-0.7,2.6c-0.1,0.4-0.2,0.8-0.3,1.1c-0.1,0.4-0.1,0.7-0.2,1c-0.1,0.6-0.2,1.2-0.3,1.6c-0.2,0.9-0.3,1.4-0.3,1.4
		h-0.4c0,0,0-0.5-0.1-1.4c0-0.5-0.1-1-0.1-1.7c-0.1-0.7,0-1.4,0-2.3c0.1-0.9,0.1-1.8,0.2-2.9c0.2-1,0.4-2.1,0.6-3.3
		c0.3-1.2,0.7-2.4,1.2-3.7c0.5-1.3,1.1-2.6,1.8-4c1.5-2.6,3.2-5.5,5.7-8c1.1-1.3,2.5-2.5,3.9-3.7c0.7-0.6,1.5-1.1,2.2-1.6
		c0.8-0.5,1.5-1.1,2.4-1.5c0.8-0.5,1.7-0.9,2.5-1.4c0.9-0.4,1.8-0.8,2.7-1.1c0.9-0.4,1.8-0.7,2.8-1l1.4-0.4c0.5-0.2,0.9-0.3,1.4-0.4
		c1-0.2,1.9-0.4,2.9-0.6c1-0.2,2-0.2,3-0.3l1.5-0.1c0.5,0,1,0,1.5,0l2.9,0.1l3,0.3c0.5,0.1,1,0.1,1.5,0.2l1.4,0.3
		c1,0.2,1.9,0.3,2.9,0.6c0.9,0.2,1.9,0.5,2.8,0.7c0.9,0.2,1.8,0.6,2.7,0.9c0.9,0.3,1.8,0.6,2.7,0.9c0.9,0.4,1.7,0.7,2.6,1
		c0.8,0.4,1.7,0.8,2.5,1.2c0.4,0.2,0.8,0.4,1.2,0.6c0.4,0.2,0.8,0.5,1.2,0.7c0.8,0.5,1.6,0.9,2.3,1.4c1.4,1.1,2.9,2.1,4.1,3.4
		c0.6,0.6,1.2,1.2,1.8,1.8c0.5,0.7,1,1.3,1.5,2c0.5,0.6,0.9,1.3,1.3,2c0.4,0.7,0.8,1.3,1.2,2c0.7,1.4,1.3,2.7,1.8,3.9
		c0.5,1.3,0.8,2.5,1.2,3.7c0.3,1.2,0.5,2.3,0.7,3.3c0.2,1,0.2,2,0.3,2.9c0.1,0.9,0.1,1.6,0,2.3c0,0.7-0.1,1.2-0.1,1.7
		c-0.1,0.9-0.1,1.4-0.1,1.4L333.9,46z"/>
</g>
<g>
	<path fill="#FBEF54" d="M63.7,49.2c0,0,0.1-0.5,0.4-1.3c0.1-0.4,0.3-1,0.5-1.6c0.1-0.3,0.2-0.6,0.3-1c0.1-0.4,0.2-0.7,0.2-1.1
		c0.2-0.8,0.4-1.7,0.6-2.6c0.1-1,0.3-2,0.4-3.2c0.1-1.1,0.1-2.3,0.2-3.6c0-1.3-0.1-2.6-0.1-4c-0.3-2.7-0.7-5.7-1.6-8.7
		c-0.3-1.5-0.9-3.1-1.4-4.7c-0.3-0.8-0.6-1.6-0.9-2.4c-0.2-0.4-0.3-0.8-0.5-1.2c-0.2-0.4-0.4-0.8-0.6-1.2c-0.4-0.8-0.8-1.6-1.3-2.4
		c-0.5-0.7-1-1.5-1.6-2.2c-0.3-0.4-0.5-0.8-0.8-1.1l-0.9-1l-0.9-1c-0.3-0.4-0.6-0.7-1-1c-2.7-2.6-6.1-4.5-9.4-6.1l-2.7-1
		c-0.4-0.2-0.9-0.4-1.3-0.5L39.9-4c-0.9-0.2-1.7-0.5-2.6-0.7c-0.9-0.2-1.8-0.4-2.7-0.5c-0.9-0.2-1.8-0.2-2.7-0.4
		c-0.9-0.1-1.8-0.2-2.7-0.2c-0.9,0-1.8,0-2.6-0.1c-0.9,0.1-1.7,0.1-2.6,0.2c-0.4,0-0.9,0-1.3,0.1c-0.4,0.1-0.8,0.1-1.3,0.2
		c-0.8,0.1-1.7,0.2-2.5,0.4c-1.6,0.4-3.2,0.7-4.7,1.2c-3,0.9-5.7,2.2-8.1,3.5C5.1,0.4,4,1.1,2.9,1.8C2,2.6,1,3.2,0.1,4
		c-0.8,0.8-1.6,1.5-2.3,2.2c-0.7,0.7-1.3,1.4-1.8,2C-4.4,8.4-4.6,8.7-4.9,9c-0.2,0.3-0.4,0.6-0.6,0.8c-0.4,0.5-0.7,1-1,1.3
		c-0.6,0.7-0.9,1.1-0.9,1.1L-7.7,12c0,0,0.2-0.4,0.5-1.3c0.2-0.4,0.4-0.9,0.7-1.5c0.2-0.6,0.6-1.3,1.1-2c0.5-0.7,0.9-1.6,1.5-2.4
		C-3.2,3.9-2.5,3-1.7,2.1C-0.9,1.2,0,0.3,1-0.7c1-0.9,2.2-1.8,3.4-2.7C6.9-5,9.8-6.7,13.1-7.8c1.6-0.7,3.4-1,5.2-1.4
		c0.9-0.2,1.8-0.3,2.7-0.4c0.9-0.1,1.9-0.2,2.8-0.2c0.9,0,1.9,0,2.9-0.1c1,0.1,1.9,0.1,2.9,0.2c1,0,1.9,0.2,2.9,0.4L33.9-9
		c0.5,0.1,1,0.2,1.4,0.3c0.9,0.3,1.9,0.5,2.9,0.8c0.9,0.3,1.9,0.7,2.8,1.1l1.4,0.6c0.5,0.2,0.9,0.5,1.3,0.7l2.5,1.4l2.5,1.7
		c0.4,0.3,0.8,0.5,1.2,0.8l1.1,0.9c0.8,0.6,1.6,1.2,2.3,1.8c0.7,0.6,1.4,1.3,2.2,1.9c0.7,0.6,1.3,1.4,2,2c0.7,0.7,1.4,1.3,2,2.1
		c0.6,0.7,1.2,1.4,1.9,2.1c0.6,0.8,1.1,1.5,1.7,2.2c0.3,0.4,0.6,0.7,0.8,1.1c0.2,0.4,0.5,0.8,0.7,1.2c0.5,0.8,1,1.5,1.4,2.3
		c0.8,1.6,1.6,3.2,2.1,4.9c0.3,0.8,0.6,1.6,0.7,2.5c0.2,0.8,0.3,1.6,0.5,2.4c0.2,0.8,0.2,1.6,0.3,2.4c0.1,0.8,0.1,1.6,0.2,2.3
		c0,1.5-0.1,3-0.2,4.3c-0.2,1.4-0.4,2.6-0.7,3.8c-0.3,1.2-0.6,2.3-1,3.3c-0.3,1-0.8,1.9-1.1,2.7c-0.4,0.8-0.7,1.5-1,2
		c-0.3,0.6-0.6,1-0.9,1.4c-0.5,0.8-0.8,1.2-0.8,1.2L63.7,49.2z"/>
	<path fill="#FBEF54" d="M135.8,86.7c0,0-0.2,0.5-0.5,1.3c-0.2,0.4-0.4,0.9-0.7,1.5c-0.2,0.6-0.6,1.3-1.1,2
		c-0.5,0.7-0.9,1.6-1.6,2.5c-0.6,0.8-1.3,1.7-2.1,2.7c-0.8,0.9-1.8,1.8-2.8,2.7c-1.1,0.9-2.2,1.8-3.4,2.6c-0.6,0.4-1.3,0.8-2,1.2
		c-0.7,0.4-1.4,0.8-2.1,1.1c-0.7,0.3-1.5,0.7-2.3,1c-0.8,0.3-1.6,0.5-2.4,0.8c-1.6,0.6-3.4,0.8-5.2,1.1c-0.9,0.1-1.8,0.1-2.7,0.2
		c-0.5,0-0.9,0.1-1.4,0.1c-0.5,0-0.9,0-1.4,0c-0.9,0-1.9-0.1-2.8-0.1c-0.9-0.1-1.9-0.2-2.8-0.3c-0.9-0.1-1.9-0.3-2.8-0.4
		c-0.9-0.2-1.9-0.2-2.8-0.5c-0.9-0.2-1.9-0.4-2.8-0.7c-0.9-0.2-1.9-0.6-2.8-0.8l-1.4-0.4c-0.5-0.1-0.9-0.4-1.4-0.5l-2.8-1.1
		l-2.6-1.3c-0.4-0.2-0.9-0.4-1.3-0.7l-1.3-0.8c-0.8-0.6-1.7-1.1-2.5-1.7c-0.8-0.6-1.5-1.2-2.3-1.9c-0.4-0.3-0.8-0.6-1.1-1l-1-1
		c-0.7-0.7-1.4-1.4-2-2.1c-0.6-0.8-1.2-1.5-1.8-2.2c-0.5-0.8-1.1-1.6-1.6-2.4c-0.6-0.8-1-1.6-1.4-2.4c-0.4-0.8-0.9-1.6-1.2-2.5
		c-0.7-1.7-1.4-3.3-1.8-5.1c-1-3.3-1.2-6.7-1.4-9.7c0-1.5,0.1-3,0.3-4.3c0.2-1.4,0.4-2.6,0.7-3.8c0.3-1.2,0.7-2.3,1-3.3
		c0.3-1,0.8-1.9,1.1-2.7c0.3-0.8,0.6-1.5,1-2.1c0.3-0.6,0.6-1.1,0.9-1.5c0.5-0.8,0.7-1.2,0.7-1.2l0.4,0.2c0,0-0.1,0.5-0.4,1.3
		c-0.1,0.4-0.3,1-0.5,1.6c-0.1,0.3-0.2,0.6-0.3,1c-0.1,0.4-0.2,0.7-0.3,1.2c-0.2,0.8-0.4,1.7-0.6,2.7c-0.1,1-0.3,2-0.4,3.2
		c-0.1,1.1-0.1,2.3-0.2,3.6c0,1.3,0.1,2.6,0.2,4c0.3,2.7,0.8,5.7,1.8,8.6c0.4,1.5,1.1,3,1.7,4.5c0.3,0.8,0.7,1.5,1.1,2.2
		c0.2,0.4,0.4,0.8,0.6,1.1c0.2,0.4,0.4,0.7,0.6,1.1c0.4,0.7,0.9,1.5,1.3,2.2c0.5,0.7,1,1.4,1.6,2.1c0.5,0.7,1.1,1.4,1.7,2.1
		c0.6,0.7,1.2,1.4,1.8,2c0.7,0.6,1.3,1.3,2,1.9c0.7,0.6,1.4,1.2,2.1,1.7l1.1,0.9c0.4,0.3,0.8,0.5,1.2,0.8l2.4,1.6
		c3.1,1.8,6.7,3.5,10.4,4.2c0.4,0.1,0.9,0.2,1.4,0.3l1.4,0.2l1.4,0.2c0.5,0.1,0.9,0,1.4,0c0.9,0,1.8,0,2.7,0
		c0.9-0.1,1.8-0.2,2.7-0.3c0.4-0.1,0.9-0.1,1.3-0.2c0.4-0.1,0.8-0.2,1.3-0.3c0.8-0.2,1.7-0.3,2.5-0.6c1.6-0.5,3.2-0.9,4.6-1.5
		c3-1,5.6-2.4,8.1-3.7c1.2-0.7,2.3-1.5,3.3-2.2c1-0.8,1.9-1.5,2.8-2.2c0.8-0.8,1.6-1.5,2.3-2.2c0.7-0.7,1.2-1.4,1.8-2
		c0.3-0.3,0.5-0.6,0.8-0.9c0.2-0.3,0.4-0.6,0.7-0.8c0.4-0.5,0.7-1,1-1.3c0.6-0.7,0.9-1.1,0.9-1.1L135.8,86.7z"/>
</g>
</svg>
