<svg version="1.2" baseProfile="tiny" xmlns="http://www.w3.org/2000/svg" viewBox="0 0 323 98.9"><path fill="none" d="M0 84.5h323v14.4H0z"/><path fill="#FCE391" stroke="#000" stroke-miterlimit="10" d="M211.3 4.3c-.6 2.8-1.8 4.7-3.8 5 2.7 2.2 4.5 5.4 5.5 9.6-.1-4.5 1.4-6.9 4.3-7.3-3.3-1.1-4.9-3.9-6-7.3zM219.3 11.6c5.1 1.4 7.9 8 9.9 16.7-.6-6.3.5-11.4 5.6-13.8-4.2-3.1-7.6-7.2-9.5-13-.7 4.7-2.4 8.4-6 10.1z"/><path fill="#FFF" d="M222.4 12c3.1.8 4.8 4.9 6 10.1-.3-3.8.3-6.9 3.4-8.3-2.6-1.9-4.6-4.4-5.7-7.9-.5 2.9-1.5 5.1-3.7 6.1zM211.1 6.4c-.4 1.7-1 2.7-2.2 2.9 1.6 1.3 2.6 3.1 3.2 5.6 0-2.6.8-4 2.5-4.3-1.9-.6-2.9-2.2-3.5-4.2z"/><path fill="#FCE391" stroke="#000" stroke-miterlimit="10" d="M277.9 64.1l4.9 1.8.8-3.8 2.7 5.2 5.1 1.6 2.4-6 2.8 7.5 3-1.3 1.8 1.3h8l8.5-4.1-6.8 5.8-5.7 2.2-6.6 1.6-2.9.9-4.3 2.6-.3-4.6-6.4-5.2-3.5 2v-3.8z"/><path fill="#FCE391" d="M-17.9 84.3s0-.4-.1-1.2c0-.4-.1-.9-.1-1.5 0-.3-.1-.6-.1-.9v-1.1c0-.8.1-1.7.2-2.6.1-.9.3-1.9.5-3s.6-2.2 1-3.3c.4-1.2 1-2.3 1.5-3.6.6-1.2 1.3-2.4 2.1-3.6.9-1.2 1.7-2.4 2.8-3.5 2.1-2.3 4.8-4.2 7.7-5.8 2.9-1.6 6.1-2.8 9.4-3.9 1.7-.4 3.3-1 5.1-1.2.9-.2 1.7-.4 2.6-.4l2.7-.3c1.7 0 3.4-.2 5.2 0l1.4.1c.5 0 .9.1 1.3.2.9.2 1.7.4 2.6.6 3.4 1 6.7 2.3 9.6 4.1 2.9 1.8 5.5 4 7.4 6.4 1.1 1.1 1.9 2.4 2.7 3.6.4.6.7 1.3 1.1 1.9.3.6.7 1.2 1 1.8.5 1.3 1.1 2.4 1.4 3.6.3 1.2.7 2.3.9 3.4.2 1.1.4 2.1.5 3 .1.9.1 1.8.1 2.6v1.1c0 .3 0 .7-.1 1 0 .6-.1 1.1-.1 1.5-.1.8-.1 1.2-.1 1.2h-.4s-.1-.4-.2-1.2c-.1-.4-.2-.9-.3-1.5-.1-.3-.1-.6-.2-.9-.1-.3-.2-.7-.3-1-.2-.7-.4-1.5-.6-2.4-.3-.8-.6-1.7-1-2.7-.3-.9-.9-1.9-1.3-2.9-.5-1-1.1-2-1.7-3.1-.3-.5-.7-1-1-1.6-.4-.5-.7-1.1-1.1-1.6-.9-1-1.6-2.1-2.6-3.1-1.8-2.1-4.1-3.9-6.6-5.7-2.5-1.7-5.3-3.1-8.3-4.2-1.5-.5-3.1-1-4.7-1.3-1.5-.5-3.3-.6-5-.8-3.2-.2-6.7 0-9.9 1-.6.1-1.3.5-2.1.7l-1.1.5-1.1.6c-.7.4-1.4.7-2.1 1.2-.7.5-1.3.9-1.9 1.4-2.4 2-4.5 4.1-6.3 6.3-1 1-1.7 2.2-2.5 3.2-.4.5-.7 1.1-1.1 1.6-.3.5-.7 1-1 1.6-.6 1.1-1.2 2.1-1.6 3.1-.4 1-.9 2-1.3 2.9-.3 1-.6 1.9-.9 2.7-.2.8-.4 1.6-.6 2.3-.1.4-.2.7-.3 1-.1.3-.1.6-.2.9-.1.6-.2 1.1-.3 1.5l-.3 1.2-.3.1zM103 37.2L96.5 1.8l.7.9-32.5-14.5-4.4-2 4.3-2.1 32-15.4-.7 1.3 5.5-35.1.2-1.4 1 1 25.6 24.6-1.3-.4 34.8-7.1 4.5-.9-2.1 4.2L148-13.5v-2.2l16.9 31.2 2.5 4.6-5.1-1-34.9-6.8 1.2-.4L103 37.2zm.3-1.1l23.3-26 .5-.5.8.1 35.2 4.5-2.6 3.7-16.7-31.3-.6-1.1.6-1.1 16.3-31.5 2.4 3.2-35.1 5.6-.8.1-.5-.5-24.5-25.7 1.3-.4-4 35.3-.1.8-.8.2-31.3 16.7v-4L98.2.4l.6.3.1.6 4.4 34.8z"/><path fill="#FCE391" d="M3.1 84.3s0-.4-.1-1.2c0-.4-.1-.9-.1-1.5 0-.3-.1-.6-.1-.9v-1.1c0-.8.1-1.7.2-2.6.1-1 .3-2 .5-3 .2-1.1.6-2.2 1-3.3.4-1.2 1-2.3 1.5-3.6.6-1.2 1.3-2.4 2.1-3.6.9-1.2 1.7-2.4 2.8-3.5 2.1-2.3 4.8-4.2 7.7-5.8 2.9-1.6 6.1-2.8 9.4-3.9 1.7-.4 3.3-1 5.1-1.2.9-.2 1.7-.4 2.6-.4l2.7-.3c1.7 0 3.4-.2 5.2 0l1.4.1c.5 0 .9.1 1.3.2.9.2 1.7.4 2.6.6 3.4 1 6.7 2.3 9.6 4.1 2.9 1.8 5.5 4 7.4 6.4 1.1 1.1 1.9 2.4 2.7 3.6.4.6.7 1.3 1.1 1.9.3.6.7 1.2 1 1.8.5 1.3 1.1 2.4 1.4 3.6.3 1.2.7 2.3.9 3.4.2 1.1.4 2.1.5 3 .1.9.1 1.8.1 2.6v1.1c0 .3 0 .7-.1 1 0 .6-.1 1.1-.1 1.5-.1.8-.1 1.2-.1 1.2h-.4s-.1-.4-.2-1.2c-.1-.4-.2-.9-.3-1.5-.1-.3-.1-.6-.2-.9-.1-.3-.2-.7-.3-1-.2-.7-.4-1.5-.6-2.4-.3-.8-.6-1.7-1-2.7-.3-.9-.9-1.9-1.3-2.9-.5-1-1.1-2-1.7-3.1-.3-.5-.7-1-1-1.6-.4-.5-.7-1.1-1.1-1.6-.9-1-1.6-2.1-2.6-3.1-1.8-2.1-4.1-3.9-6.6-5.7-2.5-1.7-5.3-3.1-8.3-4.2-1.5-.5-3.1-1-4.7-1.3-1.5-.5-3.3-.6-5-.8-3.2-.2-6.7 0-9.9 1-.8.2-1.6.6-2.3.8l-1.1.5-1.1.6c-.7.4-1.4.7-2.1 1.2-.6.5-1.3.9-1.9 1.4-2.4 2-4.5 4.1-6.3 6.3-1 1-1.7 2.2-2.5 3.2-.4.5-.7 1.1-1.1 1.6-.3.5-.7 1-1 1.6-.6 1.1-1.2 2.1-1.6 3.1-.4 1-.9 2-1.3 2.9-.3 1-.6 1.9-.9 2.7-.2.8-.4 1.6-.6 2.3-.1.4-.2.7-.3 1-.1.3-.1.6-.2.9-.1.6-.2 1.1-.3 1.5l-.3 1.2h-.1z"/><path fill="#FCE391" d="M24.6 84.5s0-.4-.1-1.2c0-.4-.1-.9-.1-1.5 0-.3-.1-.6-.1-.9v-1.1c0-.8.1-1.7.2-2.6.1-.9.3-1.9.5-3s.6-2.2 1-3.3c.4-1.2 1-2.3 1.5-3.6.6-1.2 1.3-2.4 2.1-3.6.9-1.2 1.7-2.4 2.8-3.5 2.1-2.3 4.8-4.2 7.7-5.8 2.9-1.6 6.1-2.8 9.4-3.9 1.7-.4 3.3-1 5.1-1.2.9-.2 1.7-.4 2.6-.4l2.7-.3c1.7 0 3.4-.2 5.2 0l1.4.1c.5 0 .9.1 1.3.2.9.2 1.7.4 2.6.6 3.4 1 6.7 2.3 9.6 4.1 2.9 1.8 5.5 4 7.4 6.4 1.1 1.1 1.9 2.4 2.7 3.6.4.6.7 1.3 1.1 1.9.3.6.7 1.2 1 1.8.5 1.3 1.1 2.4 1.4 3.6.3 1.2.7 2.3.9 3.4.2 1.1.4 2.1.5 3 .1.9.1 1.8.1 2.6V81c0 .3 0 .7-.1 1 0 .6-.1 1.1-.1 1.5.1.6.1 1 .1 1h-.4s-.1-.4-.2-1.2c-.1-.4-.2-.9-.3-1.5-.1-.3-.1-.6-.2-.9-.1-.3-.2-.7-.3-1-.2-.7-.4-1.5-.6-2.4-.3-.8-.6-1.7-1-2.7-.3-.9-.9-1.9-1.3-2.9-.5-1-1.1-2-1.7-3.1-.3-.5-.7-1-1-1.6-.4-.5-.7-1.1-1.1-1.6-.9-1-1.6-2.1-2.6-3.1-1.8-2.1-4.1-3.9-6.6-5.7-2.5-1.7-5.3-3.1-8.3-4.2-1.5-.5-3.1-1-4.7-1.3-1.5-.5-3.3-.6-5-.8-3.2-.2-6.7 0-9.9 1-.8.2-1.6.6-2.3.8l-1.1.5-1.1.6c-.7.4-1.4.7-2.1 1.2-.6.5-1.3.9-1.9 1.4-2.4 2-4.5 4.1-6.3 6.3-1 1-1.7 2.2-2.5 3.2-.4.5-.7 1.1-1.1 1.6-.3.5-.7 1-1 1.6-.6 1.1-1.2 2.1-1.6 3.1-.4 1-.9 2-1.3 2.9-.3 1-.6 1.9-.9 2.7-.2.8-.4 1.6-.6 2.3-.1.4-.2.7-.3 1-.1.3-.1.6-.2.9-.1.6-.2 1.1-.3 1.5l-.3 1.2-.3.2zM253.7 46s0 .5.1 1.4c0 .5.1 1 .1 1.7.1.7 0 1.4 0 2.3-.1.9-.1 1.9-.3 2.9-.2 1-.4 2.1-.7 3.3-.3 1.2-.7 2.4-1.2 3.7-.5 1.3-1.1 2.6-1.8 3.9-.4.6-.8 1.3-1.2 2-.4.7-.8 1.4-1.3 2-.5.6-1 1.3-1.5 2s-1.2 1.2-1.8 1.8c-1.2 1.3-2.7 2.3-4.1 3.4-.7.5-1.5 1-2.3 1.4-.4.2-.8.5-1.2.7l-1.2.6c-.8.4-1.7.8-2.5 1.2-.9.3-1.8.7-2.6 1-.9.4-1.8.6-2.7.9-.9.3-1.8.7-2.7.9-.9.2-1.9.5-2.8.7-.9.3-1.9.4-2.9.6l-1.4.3c-.5.1-1 .1-1.5.2l-3 .3-2.9.1h-1.5l-1.5-.1c-1-.1-2-.1-3-.3-1-.2-1.9-.4-2.9-.6-.5-.1-1-.2-1.4-.4l-1.4-.4c-.9-.3-1.9-.6-2.8-1-.9-.4-1.8-.8-2.7-1.1-.8-.5-1.7-.9-2.5-1.4-.8-.4-1.6-.9-2.4-1.5-.8-.5-1.6-1-2.2-1.6-1.4-1.2-2.8-2.3-3.9-3.7-2.4-2.5-4.2-5.3-5.7-8-.7-1.4-1.2-2.7-1.8-4-.4-1.3-.8-2.5-1.2-3.7-.2-1.2-.5-2.3-.6-3.3-.2-1-.2-2-.2-2.9-.1-.9-.1-1.6 0-2.3 0-.7.1-1.2.1-1.7.1-.9.1-1.4.1-1.4h.4s.1.5.3 1.4c.1.4.2 1 .3 1.6.1.3.1.7.2 1 .1.4.2.7.3 1.1.2.8.4 1.7.7 2.6.3.9.7 1.9 1.1 3 .4 1 1 2.1 1.5 3.3.6 1.1 1.3 2.2 2 3.4 1.6 2.3 3.3 4.7 5.6 6.8 1.1 1.2 2.3 2.1 3.6 3.2.6.5 1.3 1 2 1.5l1 .8c.3.3.7.4 1.1.7.7.4 1.5.9 2.2 1.3l2.4 1.2c.8.4 1.6.7 2.5 1 .8.3 1.7.7 2.5.9.9.3 1.8.5 2.6.8.9.3 1.8.4 2.7.6l1.3.3c.5.1.9.1 1.4.2l2.9.3c3.6.2 7.6 0 11.1-1.1.5-.1.9-.2 1.3-.4l1.3-.5 1.3-.5c.4-.1.8-.4 1.2-.6.8-.4 1.6-.8 2.4-1.3.7-.5 1.5-1 2.2-1.5.4-.3.7-.5 1.1-.8l1-.8c.7-.6 1.3-1.1 1.9-1.7 1.2-1.2 2.4-2.3 3.4-3.5 2.2-2.3 3.9-4.7 5.4-7 .7-1.2 1.3-2.3 1.9-3.5.5-1.2 1-2.2 1.5-3.3.4-1.1.7-2.1 1.1-3 .3-.9.5-1.8.7-2.6.1-.4.2-.8.3-1.1.1-.4.1-.7.2-1 .1-.6.2-1.2.3-1.6.2-.9.3-1.4.3-1.4l.4.3z"/><path fill="#FCE391" d="M333.9 46s-.1-.5-.3-1.4c-.1-.4-.2-1-.3-1.6-.1-.3-.1-.7-.2-1-.1-.4-.2-.7-.3-1.1-.2-.8-.4-1.7-.7-2.6-.3-.9-.7-1.9-1.1-3-.4-1-1-2.1-1.5-3.3-.6-1.1-1.2-2.3-1.9-3.5-1.5-2.3-3.2-4.7-5.4-7-1-1.2-2.2-2.3-3.4-3.5-.6-.6-1.3-1.1-1.9-1.7l-1-.8c-.3-.3-.7-.5-1.1-.8-.7-.5-1.5-1-2.2-1.5-.8-.4-1.6-.8-2.4-1.3l-1.2-.6-1.3-.5-1.3-.5c-.4-.2-.9-.3-1.3-.4-3.6-1-7.5-1.2-11.1-1.1l-3 .5c-.5.1-1 .1-1.4.2l-1.3.3c-.9.2-1.8.3-2.7.6-.9.3-1.8.5-2.6.8-.9.2-1.7.6-2.5.9-.8.3-1.7.6-2.5 1l-2.4 1.2c-.7.5-1.5.9-2.2 1.3-.4.2-.7.4-1.1.7l-1 .8c-.7.5-1.4 1-2 1.5-1.2 1.1-2.5 2.1-3.6 3.2-2.3 2.2-4.1 4.6-5.6 6.8-.7 1.2-1.4 2.3-2 3.4-.5 1.2-1.1 2.2-1.5 3.3-.4 1.1-.7 2.1-1.1 3-.3.9-.5 1.8-.7 2.6-.1.4-.2.8-.3 1.1-.1.4-.1.7-.2 1-.1.6-.2 1.2-.3 1.6-.2.9-.3 1.4-.3 1.4h-.4s0-.5-.1-1.4c0-.5-.1-1-.1-1.7-.1-.7 0-1.4 0-2.3.1-.9.1-1.8.2-2.9.2-1 .4-2.1.6-3.3.3-1.2.7-2.4 1.2-3.7.5-1.3 1.1-2.6 1.8-4 1.5-2.6 3.2-5.5 5.7-8 1.1-1.3 2.5-2.5 3.9-3.7.7-.6 1.5-1.1 2.2-1.6.8-.5 1.5-1.1 2.4-1.5.8-.5 1.7-.9 2.5-1.4.9-.4 1.8-.8 2.7-1.1.9-.4 1.8-.7 2.8-1l1.4-.4c.5-.2.9-.3 1.4-.4 1-.2 1.9-.4 2.9-.6 1-.2 2-.2 3-.3l1.5-.1h1.5l2.9.1 3 .3c.5.1 1 .1 1.5.2l1.4.3c1 .2 1.9.3 2.9.6.9.2 1.9.5 2.8.7.9.2 1.8.6 2.7.9l2.7.9c.9.4 1.7.7 2.6 1 .8.4 1.7.8 2.5 1.2l1.2.6c.4.2.8.5 1.2.7.8.5 1.6.9 2.3 1.4 1.4 1.1 2.9 2.1 4.1 3.4l1.8 1.8c.5.7 1 1.3 1.5 2 .5.6.9 1.3 1.3 2s.8 1.3 1.2 2c.7 1.4 1.3 2.7 1.8 3.9.5 1.3.8 2.5 1.2 3.7.3 1.2.5 2.3.7 3.3.2 1 .2 2 .3 2.9.1.9.1 1.6 0 2.3 0 .7-.1 1.2-.1 1.7-.1.9-.1 1.4-.1 1.4l-.3.1z"/><g fill="#FCE391"><path d="M51.3 27.8s-.4-.3-1.1-.8c-.4-.3-.8-.6-1.3-1-.3-.2-.5-.4-.8-.7-.3-.2-.6-.4-1-.6-.7-.4-1.4-1-2.2-1.5-.9-.5-1.8-1-2.8-1.6-1-.5-2.1-.9-3.3-1.5-1.2-.4-2.4-.9-3.7-1.3-2.7-.7-5.6-1.4-8.7-1.7-1.6-.2-3.2-.3-4.9-.4h-3.8c-.4 0-.9.1-1.3.1l-2.7.3c-.9.2-1.8.4-2.6.6-.4.1-.9.2-1.3.4l-1.3.5-1.3.5c-.4.2-.9.3-1.3.6-3.4 1.6-6.4 4-9.1 6.6l-1.9 2.2c-.3.4-.7.7-.9 1.1l-.8 1.1c-.5.7-1.1 1.4-1.6 2.2-.5.8-1 1.5-1.5 2.3-.5.7-.9 1.6-1.3 2.4-.4.8-.9 1.6-1.2 2.4-.3.8-.7 1.6-1 2.4-.3.8-.5 1.7-.8 2.5-.1.4-.3.8-.4 1.2l-.3 1.2c-.2.8-.4 1.6-.5 2.4-.2 1.6-.5 3.2-.6 4.8-.3 3.1 0 6.1.3 8.8.2 1.4.5 2.7.8 3.9.4 1.2.7 2.4 1 3.4l1.2 3c.4.9.9 1.7 1.2 2.4.2.4.4.7.5 1.1.2.3.4.6.5.9.3.6.6 1 .9 1.4.5.8.7 1.2.7 1.2l-.3.3-1-1-1.2-1.2c-.5-.5-1-1.1-1.5-1.8s-1.1-1.4-1.7-2.3c-.5-.9-1.1-1.9-1.7-2.9-.5-1.1-1-2.3-1.6-3.6-.4-1.3-.9-2.7-1.3-4.1-.6-3-1.2-6.2-1-9.7 0-1.7.3-3.5.5-5.3.1-.9.4-1.8.6-2.7.2-.9.5-1.8.8-2.7.3-.9.7-1.8 1-2.7.4-.9.8-1.7 1.3-2.6.4-.9.9-1.7 1.4-2.6l.8-1.3c.2-.4.5-.8.8-1.2l1.8-2.4c.6-.8 1.4-1.5 2-2.2l1.1-1.1c.4-.3.7-.6 1.1-.9l2.2-1.9 2.5-1.7c.4-.3.8-.6 1.2-.8l1.3-.7C1 21 1.8 20.4 2.7 20c.9-.4 1.7-.9 2.6-1.3.8-.5 1.8-.8 2.6-1.1.9-.4 1.7-.8 2.6-1.1.9-.3 1.8-.6 2.7-1 .9-.3 1.8-.5 2.7-.7.4-.1.9-.3 1.3-.4.5-.1.9-.2 1.4-.3.9-.1 1.8-.4 2.7-.4 1.8-.1 3.6-.3 5.3-.2.9.1 1.7.1 2.5.2.8.2 1.6.3 2.4.5.8.1 1.6.4 2.3.6.7.2 1.5.5 2.2.7 1.4.6 2.7 1.2 4 1.8 1.2.7 2.3 1.3 3.3 2s1.9 1.4 2.7 2.1c.8.7 1.5 1.4 2.1 2 .6.6 1.2 1.2 1.5 1.7.4.5.7 1 1 1.3.5.7.8 1.1.8 1.1l-.1.3zM84 39.8s-.5.2-1.5.5c-.5.2-1.1.3-1.8.4-.4.1-.7.1-1.1.2-.4.1-.8.1-1.2.1-.9.1-1.8.1-2.8.1-1 0-2.1-.1-3.2-.2-1.1-.2-2.2-.3-3.3-.6-1.1-.2-2.2-.6-3.4-1-1.1-.5-2.2-.9-3.2-1.4-1-.5-2-1.1-2.9-1.7-.9-.7-1.8-1.3-2.5-2-.4-.3-.7-.7-1.1-1-.3-.3-.6-.7-.9-1-.3-.3-.6-.6-.8-.9-.2-.3-.5-.6-.7-.9-.4-.6-.8-1.1-1-1.5-.5-.9-.8-1.4-.8-1.4s.5.3 1.3.8c.4.3.9.6 1.5 1s1.2.8 1.9 1.2c.7.4 1.5.9 2.3 1.3.8.5 1.7.9 2.6 1.4.9.4 1.8.9 2.8 1.3 1 .4 2 .8 2.9 1.2 1 .3 2 .7 3 1l3 .9c1 .2 1.9.5 2.8.7.9.2 1.8.4 2.6.5.8.2 1.6.3 2.2.4.7.1 1.3.2 1.8.3.9.1 1.5.3 1.5.3z"/></g><g><path fill="none" stroke="#000" stroke-miterlimit="10" d="M102.8 37.3L97.3 3 60.1-13.4l36.6-20.7 5.2-37.8 26.9 27 37.6-7-17.5 37.7 18.5 34.9-39.1-8.2z"/><path d="M253.9 46v1.4c0 .5 0 1-.1 1.7 0 .3 0 .7-.1 1.1-.1.4-.1.8-.2 1.2-.1.8-.2 1.8-.4 2.8-.3 1-.5 2.1-.8 3.2-.4 1.1-.8 2.3-1.3 3.5-.6 1.2-1.2 2.4-1.9 3.7-1.5 2.5-3.3 5.1-5.6 7.5-1.1 1.3-2.4 2.3-3.8 3.5-.7.6-1.4 1-2.1 1.6-.4.3-.7.5-1.1.8-.4.3-.8.5-1.2.7-.8.5-1.6.9-2.4 1.4-.8.4-1.7.8-2.5 1.2-.8.4-1.7.7-2.6 1l-1.3.5c-.4.2-.9.3-1.4.4-.9.2-1.9.5-2.8.7-.9.2-1.9.3-2.9.5l-1.4.2c-.5.1-1 .1-1.5.1l-2.9.1-2.9-.1c-.5 0-1 0-1.4-.1l-1.4-.2c-1-.2-1.9-.2-2.9-.5-.9-.2-1.9-.5-2.8-.7-.5-.1-.9-.2-1.4-.4l-1.3-.5c-.9-.3-1.8-.6-2.6-1-.9-.4-1.7-.8-2.5-1.2-.8-.5-1.6-.9-2.4-1.4-.4-.2-.8-.4-1.2-.7-.4-.3-.7-.5-1.1-.8-.7-.5-1.5-1-2.1-1.6-1.3-1.2-2.7-2.2-3.8-3.5-2.4-2.4-4.1-5-5.6-7.5-.7-1.3-1.3-2.5-1.9-3.7-.5-1.2-.9-2.4-1.3-3.5-.3-1.1-.6-2.2-.8-3.2-.2-1-.3-1.9-.4-2.8-.1-.4-.1-.8-.2-1.2-.1-.4 0-.7-.1-1.1 0-.7 0-1.2-.1-1.7V46s0 .5.1 1.4c0 .4.1 1 .1 1.7s.1 1.4.3 2.2c.2.8.3 1.7.5 2.7.3 1 .6 2 .9 3.1.4 1.1.9 2.2 1.4 3.5.6 1.2 1.2 2.4 1.9 3.6 1.5 2.4 3.3 5 5.7 7.3 1.1 1.2 2.4 2.3 3.7 3.4l2.1 1.5c.4.3.7.5 1.1.8.4.3.8.4 1.1.7.8.4 1.6.9 2.3 1.3.8.4 1.7.7 2.5 1.1.8.4 1.7.7 2.6 1l1.3.5c.4.2.9.3 1.3.4.9.2 1.8.4 2.7.7.9.2 1.9.3 2.8.4l1.4.2c.5.1 1 .1 1.4.1l2.9.1c3.8-.1 7.6-.5 11.2-1.5.5-.1.9-.2 1.3-.4l1.3-.5c.9-.3 1.8-.6 2.6-1s1.7-.8 2.5-1.1c.8-.4 1.6-.9 2.3-1.3.4-.2.8-.4 1.1-.7.4-.3.7-.5 1.1-.8.7-.5 1.5-1 2.1-1.5 1.3-1.1 2.6-2.1 3.7-3.4 2.4-2.3 4.1-4.9 5.7-7.3.7-1.3 1.3-2.5 1.9-3.6.5-1.2 1-2.4 1.4-3.5.3-1.1.6-2.2.9-3.1.2-1 .4-1.9.5-2.7.2-.8.3-1.6.3-2.2 0-.7.1-1.2.1-1.7.4-.9.4-1.4.4-1.4zM334.6 46s0-.5-.1-1.4c0-.4-.1-1-.1-1.7s-.1-1.4-.3-2.2c-.2-.8-.3-1.7-.5-2.7-.3-1-.6-2-.9-3.1-.4-1.1-.9-2.2-1.4-3.5-.6-1.2-1.2-2.4-1.9-3.6-1.5-2.4-3.3-5-5.7-7.3-1.1-1.2-2.4-2.3-3.7-3.4l-2.1-1.5c-.4-.3-.7-.5-1.1-.8-.4-.3-.8-.4-1.1-.7-.8-.4-1.6-.9-2.3-1.3-.8-.4-1.7-.7-2.5-1.1-.8-.4-1.7-.7-2.6-1l-1.3-.5c-.4-.2-.9-.3-1.3-.4-3.6-1-7.4-1.4-11.2-1.5l-2.9.1c-.5 0-1 0-1.4.1l-1.4.2c-.9.2-1.9.2-2.8.4-.9.2-1.8.4-2.7.7-.5.1-.9.2-1.3.4l-1.3.5c-.9.3-1.8.6-2.6 1s-1.7.8-2.5 1.1c-.8.4-1.6.9-2.3 1.3-.4.2-.8.4-1.1.7-.4.3-.7.5-1.1.8l-2.1 1.5c-1.3 1.1-2.6 2.1-3.7 3.4-2.4 2.3-4.1 4.9-5.7 7.3-.7 1.3-1.3 2.5-1.9 3.6-.5 1.2-1 2.4-1.4 3.5-.3 1.1-.6 2.2-.9 3.1-.2 1-.4 1.9-.5 2.7-.2.8-.3 1.6-.3 2.2 0 .7-.1 1.2-.1 1.7-.1.9-.1 1.4-.1 1.4v-1.4c0-.5 0-1 .1-1.7 0-.3 0-.7.1-1.1.1-.4.1-.8.2-1.2.1-.8.2-1.8.4-2.8.3-1 .5-2.1.8-3.2.4-1.1.8-2.3 1.3-3.5.6-1.2 1.2-2.4 1.9-3.7 1.5-2.5 3.3-5.1 5.6-7.5 1.1-1.3 2.4-2.3 3.8-3.5.7-.6 1.4-1 2.1-1.6.4-.3.7-.5 1.1-.8.4-.3.8-.5 1.2-.7.8-.5 1.6-.9 2.4-1.4.8-.4 1.7-.8 2.5-1.2.8-.4 1.7-.7 2.6-1l1.3-.5c.4-.2.9-.3 1.4-.4.9-.2 1.9-.5 2.8-.7.9-.2 1.9-.3 2.9-.5l1.4-.2c.5-.1 1-.1 1.4-.1l2.9-.1 2.9.1c.5 0 1 0 1.5.1l1.4.2c1 .2 1.9.2 2.9.5.9.2 1.9.5 2.8.7.5.1.9.2 1.4.4l1.3.5c.9.3 1.8.6 2.6 1 .9.4 1.7.8 2.5 1.2.8.5 1.6.9 2.4 1.4.4.2.8.4 1.2.7.4.3.7.5 1.1.8.7.5 1.5 1 2.1 1.6 1.3 1.2 2.7 2.2 3.8 3.5 2.4 2.4 4.1 5 5.6 7.5.7 1.3 1.3 2.5 1.9 3.7.5 1.2.9 2.4 1.3 3.5.3 1.1.6 2.2.8 3.2.2 1 .3 1.9.4 2.8.1.4.1.8.2 1.2.1.4 0 .7.1 1.1 0 .7 0 1.2.1 1.7-.3.9-.3 1.4-.3 1.4zM50.3 29.1s.4.4 1.1 1l1.2 1.2c.5.4 1 .9 1.7 1.4.3.2.6.5 1 .8.4.2.7.5 1.1.7.7.5 1.6 1 2.5 1.5.9.4 1.8.9 2.8 1.3.9.4 2 .8 3 1.1 1 .3 2 .6 3.1.9 1 .3 2 .4 3 .6 1 .1 1.9.3 2.9.4.9.1 1.8.2 2.6.2 1.6.1 3 .2 3.9.2h1.5s-.5.1-1.5.2c-.5.1-1 .1-1.7.1s-1.4.1-2.2.1c-.8 0-1.7 0-2.6-.1-.9 0-1.9-.2-2.9-.3-1-.2-2.1-.3-3.1-.6-1.1-.2-2.1-.5-3.1-.9s-2.1-.7-3-1.2c-1-.4-1.9-.9-2.8-1.4-.9-.5-1.7-1-2.5-1.6-.4-.3-.7-.6-1.1-.8-.3-.3-.7-.6-1-.8-.6-.5-1.1-1.1-1.6-1.6s-.8-.9-1.1-1.3c-.8-.7-1.2-1.1-1.2-1.1zM-11.6 80.7s-.3-.4-.8-1.1c-.3-.4-.6-.8-1-1.3-.2-.3-.4-.5-.6-.8-.2-.3-.4-.7-.6-1-.4-.7-1-1.5-1.4-2.4-.4-.9-.9-1.9-1.4-3-.4-1.1-.8-2.3-1.3-3.5-.3-1.3-.7-2.6-1-4.1-.4-2.9-.8-6-.5-9.4 0-1.7.4-3.4.6-5.1.1-.9.4-1.7.6-2.6.1-.4.2-.9.3-1.3.1-.4.3-.9.4-1.3.3-.9.6-1.7 1-2.6.4-.8.8-1.7 1.2-2.5.4-.9.9-1.7 1.4-2.5l.7-1.2c.2-.4.5-.8.8-1.2.6-.8 1.1-1.5 1.7-2.3.6-.8 1.3-1.5 1.9-2.2l1-1.1c.3-.4.7-.7 1.1-1l2.2-2 2.3-1.7 1.2-.9 1.2-.8c.8-.5 1.6-1.1 2.5-1.5.9-.4 1.7-.8 2.6-1.3.4-.2.9-.4 1.3-.6l1.3-.5c.9-.3 1.8-.7 2.7-.9.9-.2 1.8-.5 2.7-.7.9-.2 1.8-.3 2.7-.5.5-.1.9-.2 1.3-.2.5 0 .9-.1 1.3-.1.9-.1 1.8-.2 2.7-.2 1.8.1 3.5 0 5.1.3 3.4.5 6.4 1.4 9.2 2.4 1.3.6 2.6 1.1 3.8 1.7 1.1.7 2.2 1.3 3.2 1.9 1 .7 1.8 1.3 2.7 1.9.8.6 1.5 1.3 2.1 1.8.3.3.6.5.9.8.3.3.5.5.7.8.4.5.8.9 1.1 1.2.6.7.9 1 .9 1l-1-1-1.2-1.2c-.4-.5-1-1-1.7-1.5s-1.3-1.2-2.1-1.8c-.8-.6-1.7-1.2-2.7-1.8-1-.6-2.1-1.1-3.3-1.8-1.2-.5-2.5-1.1-3.8-1.6-2.7-.9-5.7-1.7-9-2-1.6-.2-3.3-.2-5-.2-.9 0-1.7.1-2.6.2-.4 0-.9.1-1.3.1s-.9.1-1.3.2c-.9.2-1.8.3-2.7.5-.9.2-1.8.5-2.6.7-.9.2-1.8.6-2.6.9l-1.3.5c-.4.2-.9.3-1.3.6-.8.4-1.7.8-2.5 1.2-.8.4-1.6 1-2.4 1.4l-1.2.7-1.2.9-2.2 1.9c-2.8 2.5-5.5 5.2-7.6 8.3-.3.4-.5.8-.8 1.2l-.7 1.2c-.5.8-1 1.6-1.4 2.4-.4.8-.8 1.6-1.2 2.5-.3.8-.6 1.7-.9 2.5-.1.4-.3.8-.4 1.3-.1.4-.2.9-.3 1.3-.2.9-.5 1.7-.7 2.5-.3 1.7-.7 3.3-.7 5-.4 3.3-.1 6.4.3 9.2.3 1.4.6 2.7.9 4 .4 1.2.8 2.4 1.2 3.5.5 1.1.9 2.1 1.3 3 .4.9.9 1.7 1.3 2.4s.8 1.4 1.2 1.9c.4.5.7 1 1 1.4.4.7.7 1.1.7 1.1z"/><path d="M-16.8 84.1v-1.2-1.5-.9c0-.3.1-.7.1-1.1.1-.8.2-1.6.3-2.5.2-.9.4-1.9.7-2.9.3-1 .7-2.1 1.1-3.2.4-1.1 1-2.2 1.5-3.4.3-.6.7-1.1 1-1.7.4-.6.7-1.2 1.1-1.8.8-1.1 1.7-2.3 2.7-3.4 1.9-2.3 4.5-4.2 7.2-6 2.8-1.7 5.8-3.1 9.1-4.1.8-.2 1.6-.4 2.5-.7.4-.1.8-.2 1.3-.3l1.3-.2c1.7-.4 3.4-.4 5.2-.5 3.4 0 6.9.4 10.2 1.3 3.3 1 6.4 2.4 9.1 4.2 2.7 1.8 5.2 3.9 7.1 6.1 1 1.1 1.9 2.3 2.7 3.4.4.6.7 1.2 1.1 1.8.3.6.7 1.1 1 1.7.5 1.2 1.1 2.3 1.5 3.4.4 1.1.8 2.2 1.1 3.2.2 1 .5 2 .7 2.9.1.9.2 1.7.3 2.5 0 .4.1.7.1 1.1V83.9h-.1s0-.4-.1-1.2c0-.4-.1-.9-.1-1.5 0-.3 0-.6-.1-.9-.1-.3-.1-.7-.2-1-.1-.7-.3-1.5-.4-2.4-.2-.9-.5-1.8-.8-2.8-.3-1-.8-2-1.2-3.1-.4-1.1-1-2.1-1.6-3.3-.3-.6-.7-1.1-1-1.7-.4-.6-.7-1.2-1.1-1.7-.9-1.1-1.6-2.3-2.7-3.3-1.9-2.2-4.3-4.1-6.9-5.9-2.6-1.8-5.7-3.1-8.8-4.2-.8-.2-1.6-.4-2.4-.7l-1.2-.3-1.2-.2c-1.6-.4-3.4-.4-5.1-.5-3.4 0-6.8.4-10 1.4-.8.2-1.6.6-2.4.8l-1.1.6-1.1.5c-.7.4-1.5.7-2.2 1.1-.7.4-1.4.9-2 1.3-2.6 1.8-4.9 3.9-6.8 6.1-1 1-1.8 2.3-2.6 3.3-.4.5-.7 1.1-1.1 1.7-.3.6-.7 1.1-1 1.7-.5 1.2-1.1 2.2-1.6 3.3-.4 1.1-.9 2.1-1.1 3.1-.3 1-.5 1.9-.8 2.8-.2.9-.3 1.7-.4 2.4-.1.4-.1.7-.2 1 0 .3-.1.6-.1.9 0 .6-.1 1.1-.1 1.5-.3.9-.3 1.4-.4 1.4z"/><path d="M4.3 84.5v-1.2-1.5-.9c0-.3.1-.7.1-1.1.1-.8.2-1.6.3-2.5.2-.9.4-1.9.7-2.9.3-1 .7-2.1 1.1-3.2.4-1.1 1-2.2 1.5-3.4.3-.6.7-1.1 1-1.7.4-.6.7-1.2 1.1-1.8.8-1.1 1.7-2.3 2.7-3.4 1.9-2.3 4.5-4.2 7.2-6 2.8-1.7 5.8-3.1 9.1-4.1.8-.2 1.6-.4 2.5-.7.4-.1.8-.2 1.3-.3l1.3-.2c1.7-.4 3.4-.4 5.2-.5 3.4 0 6.9.4 10.2 1.3 3.3 1 6.4 2.4 9.1 4.2 2.7 1.8 5.2 3.9 7.1 6.1 1 1.1 1.9 2.3 2.7 3.4.4.6.7 1.2 1.1 1.8.3.6.7 1.1 1 1.7.5 1.2 1.1 2.3 1.5 3.4.4 1.1.8 2.2 1.1 3.2.2 1 .5 2 .7 2.9.1.9.2 1.7.3 2.5 0 .4.1.7.1 1.1V84.3h-.1s0-.4-.1-1.2c0-.4-.1-.9-.1-1.5 0-.3 0-.6-.1-.9-.1-.3-.1-.7-.2-1-.1-.7-.3-1.5-.4-2.4-.2-.9-.5-1.8-.8-2.8-.3-1-.8-2-1.2-3.1-.4-1.1-1-2.1-1.6-3.3-.3-.6-.7-1.1-1-1.7-.4-.6-.7-1.2-1.1-1.7-.9-1.1-1.6-2.3-2.7-3.3-1.9-2.2-4.3-4.1-6.9-5.9-2.6-1.8-5.7-3.1-8.8-4.2-.8-.2-1.6-.4-2.4-.7l-1.2-.3-1.2-.2c-1.6-.4-3.4-.4-5.1-.5-3.4 0-6.8.4-10 1.4-.8.2-1.6.6-2.4.8l-1.2.4-1.1.8c-.7.4-1.5.7-2.2 1.1-.7.4-1.4.9-2 1.3-2.6 1.8-4.9 3.9-6.8 6.1-1 1-1.8 2.3-2.6 3.3-.4.5-.7 1.1-1.1 1.7-.3.6-.7 1.1-1 1.7-.5 1.2-1.1 2.2-1.6 3.3-.4 1.1-.9 2.1-1.1 3.1-.3 1-.5 1.9-.8 2.8-.2.9-.3 1.7-.4 2.4-.1.4-.1.7-.2 1 0 .3-.1.6-.1.9 0 .6-.1 1.1-.1 1.5-.2.9-.2 1.3-.3 1.3z"/><path d="M25.6 84.5v-1.2-1.5-.9c0-.3.1-.7.1-1.1.1-.8.2-1.6.3-2.5.2-.9.4-1.9.7-2.9.3-1 .7-2.1 1.1-3.2.4-1.1 1-2.2 1.5-3.4.3-.6.7-1.1 1-1.7.4-.6.7-1.2 1.1-1.8.8-1.1 1.7-2.3 2.7-3.4 1.9-2.3 4.5-4.2 7.2-6 2.8-1.7 5.8-3.1 9.1-4.1.8-.2 1.6-.4 2.5-.7.4-.1.8-.2 1.3-.3l1.3-.2c1.7-.4 3.4-.4 5.2-.5 3.4 0 6.9.4 10.2 1.3 3.3 1 6.4 2.4 9.1 4.2 2.7 1.8 5.2 3.9 7.1 6.1 1 1.1 1.9 2.3 2.7 3.4.4.6.7 1.2 1.1 1.8.3.6.7 1.1 1 1.7.5 1.2 1.1 2.3 1.5 3.4.4 1.1.8 2.2 1.1 3.2.2 1 .5 2 .7 2.9.1.9.2 1.7.3 2.5 0 .4.1.7.1 1.1V84.3h-.1s0-.4-.1-1.2c0-.4-.1-.9-.1-1.5 0-.3 0-.6-.1-.9-.1-.3-.1-.7-.2-1-.1-.7-.3-1.5-.4-2.4-.2-.9-.5-1.8-.8-2.8-.3-1-.8-2-1.2-3.1-.4-1.1-1-2.1-1.6-3.3-.3-.6-.7-1.1-1-1.7-.4-.6-.7-1.2-1.1-1.7-.9-1.1-1.6-2.3-2.7-3.3-1.9-2.2-4.3-4.1-6.9-5.9-2.6-1.8-5.7-3.1-8.8-4.2-.8-.2-1.6-.4-2.4-.7l-1.2-.3-1.2-.2c-1.6-.4-3.4-.4-5.1-.5-3.4 0-6.8.4-10 1.4-.8.2-1.6.6-2.4.8l-1.2.6-1.1.6c-.7.4-1.5.7-2.2 1.1-.7.4-1.4.9-2 1.3-2.6 1.8-4.9 3.9-6.8 6.1-1 1-1.8 2.3-2.6 3.3-.4.5-.7 1.1-1.1 1.7-.3.6-.7 1.1-1 1.7-.5 1.2-1.1 2.2-1.6 3.3-.4 1.1-.9 2.1-1.1 3.1-.3 1-.5 1.9-.8 2.8-.2.9-.3 1.7-.4 2.4-.1.4-.1.7-.2 1 0 .3-.1.6-.1.9 0 .6-.1 1.1-.1 1.5-.2.9-.2 1.3-.3 1.3z"/></g></svg>