<?xml version="1.0" encoding="utf-8"?>
<!-- Generator: Adobe Illustrator 18.0.0, SVG Export Plug-In . SVG Version: 6.00 Build 0)  -->
<svg version="1.2" baseProfile="tiny" xmlns="http://www.w3.org/2000/svg" xmlns:xlink="http://www.w3.org/1999/xlink" x="0px"
	 y="0px" viewBox="0 0 323 98.9" xml:space="preserve">
<g id="Margin">
	<rect y="84.5" fill="none" width="323" height="14.4"/>
</g>
<g id="Base">
	<path fill="#FCE391" stroke="#000000" stroke-miterlimit="10" d="M211.3,4.3c-0.6,2.8-1.8,4.7-3.8,5c2.7,2.2,4.5,5.4,5.5,9.6
		c-0.1-4.5,1.4-6.9,4.3-7.3C214,10.5,212.4,7.7,211.3,4.3z"/>
	<path fill="#FCE391" stroke="#000000" stroke-miterlimit="10" d="M219.3,11.6c5.1,1.4,7.9,8,9.9,16.7c-0.6-6.3,0.5-11.4,5.6-13.8
		c-4.2-3.1-7.6-7.2-9.5-13C224.6,6.2,222.9,9.9,219.3,11.6z"/>
	<path fill="#FFFFFF" d="M222.4,12c3.1,0.8,4.8,4.9,6,10.1c-0.3-3.8,0.3-6.9,3.4-8.3c-2.6-1.9-4.6-4.4-5.7-7.9
		C225.6,8.8,224.6,11,222.4,12z"/>
	<path fill="#FFFFFF" d="M211.1,6.4c-0.4,1.7-1,2.7-2.2,2.9c1.6,1.3,2.6,3.1,3.2,5.6c0-2.6,0.8-4,2.5-4.3
		C212.7,10,211.7,8.4,211.1,6.4z"/>
	<polygon fill="#FCE391" stroke="#000000" stroke-miterlimit="10" points="277.9,64.1 282.8,65.9 283.6,62.1 286.3,67.3 291.4,68.9 
		293.8,62.9 296.6,70.4 299.6,69.1 301.4,70.4 309.4,70.4 317.9,66.3 311.1,72.1 305.4,74.3 298.8,75.9 295.9,76.8 291.6,79.4 
		291.3,74.8 284.9,69.6 281.4,71.6 281.4,67.8 	"/>
	<path fill="#FCE391" d="M-17.9,84.3c0,0,0-0.4-0.1-1.2c0-0.4-0.1-0.9-0.1-1.5c0-0.3-0.1-0.6-0.1-0.9c0-0.3,0-0.7,0-1.1
		c0-0.8,0.1-1.7,0.2-2.6c0.1-0.9,0.3-1.9,0.5-3c0.2-1.1,0.6-2.2,1-3.3c0.4-1.2,1-2.3,1.5-3.6c0.6-1.2,1.3-2.4,2.1-3.6
		c0.9-1.2,1.7-2.4,2.8-3.5c2.1-2.3,4.8-4.2,7.7-5.8c2.9-1.6,6.1-2.8,9.4-3.9c1.7-0.4,3.3-1,5.1-1.2c0.9-0.2,1.7-0.4,2.6-0.4l2.7-0.3
		c1.7,0,3.4-0.2,5.2,0l1.4,0.1c0.5,0,0.9,0.1,1.3,0.2c0.9,0.2,1.7,0.4,2.6,0.6c3.4,1,6.7,2.3,9.6,4.1c2.9,1.8,5.5,4,7.4,6.4
		c1.1,1.1,1.9,2.4,2.7,3.6c0.4,0.6,0.7,1.3,1.1,1.9c0.3,0.6,0.7,1.2,1,1.8c0.5,1.3,1.1,2.4,1.4,3.6c0.3,1.2,0.7,2.3,0.9,3.4
		c0.2,1.1,0.4,2.1,0.5,3c0.1,0.9,0.1,1.8,0.1,2.6c0,0.4,0,0.7,0,1.1c0,0.3,0,0.7-0.1,1c0,0.6-0.1,1.1-0.1,1.5
		c-0.1,0.8-0.1,1.2-0.1,1.2h-0.4c0,0-0.1-0.4-0.2-1.2c-0.1-0.4-0.2-0.9-0.3-1.5c-0.1-0.3-0.1-0.6-0.2-0.9c-0.1-0.3-0.2-0.7-0.3-1
		c-0.2-0.7-0.4-1.5-0.6-2.4c-0.3-0.8-0.6-1.7-1-2.7c-0.3-0.9-0.9-1.9-1.3-2.9c-0.5-1-1.1-2-1.7-3.1c-0.3-0.5-0.7-1-1-1.6
		c-0.4-0.5-0.7-1.1-1.1-1.6c-0.9-1-1.6-2.1-2.6-3.1c-1.8-2.1-4.1-3.9-6.6-5.7c-2.5-1.7-5.3-3.1-8.3-4.2c-1.5-0.5-3.1-1-4.7-1.3
		c-1.5-0.5-3.3-0.6-5-0.8c-3.2-0.2-6.7,0-9.9,1C6.5,51.6,5.8,52,5,52.2l-1.1,0.5l-1.1,0.6c-0.7,0.4-1.4,0.7-2.1,1.2
		C0,55-0.6,55.4-1.2,55.9c-2.4,2-4.5,4.1-6.3,6.3c-1,1-1.7,2.2-2.5,3.2c-0.4,0.5-0.7,1.1-1.1,1.6c-0.3,0.5-0.7,1-1,1.6
		c-0.6,1.1-1.2,2.1-1.6,3.1c-0.4,1-0.9,2-1.3,2.9c-0.3,1-0.6,1.9-0.9,2.7c-0.2,0.8-0.4,1.6-0.6,2.3c-0.1,0.4-0.2,0.7-0.3,1
		c-0.1,0.3-0.1,0.6-0.2,0.9c-0.1,0.6-0.2,1.1-0.3,1.5c-0.2,0.8-0.3,1.2-0.3,1.2L-17.9,84.3z"/>
	<path fill="#FCE391" d="M103,37.2L96.5,1.8l0.7,0.9L64.7-11.8l-4.4-2l4.3-2.1l32-15.4L95.9-30l5.5-35.1l0.2-1.4l1,1l25.6,24.6
		l-1.3-0.4l34.8-7.1l4.5-0.9l-2.1,4.2L148-13.5l0-2.2l16.9,31.2l2.5,4.6l-5.1-1l-34.9-6.8l1.2-0.4L103,37.2z M103.3,36.1l23.3-26
		l0.5-0.5l0.8,0.1l35.2,4.5l-2.6,3.7l-16.7-31.3l-0.6-1.1l0.6-1.1l16.3-31.5l2.4,3.2l-35.1,5.6l-0.8,0.1l-0.5-0.5l-24.5-25.7
		l1.3-0.4l-4,35.3l-0.1,0.8L98-28.5L66.7-11.8l0-4L98.2,0.4l0.6,0.3l0.1,0.6L103.3,36.1z"/>
	<path fill="#FCE391" d="M3.1,84.3c0,0,0-0.4-0.1-1.2c0-0.4-0.1-0.9-0.1-1.5c0-0.3-0.1-0.6-0.1-0.9c0-0.3,0-0.7,0-1.1
		c0-0.8,0.1-1.7,0.2-2.6C3.1,76,3.3,75,3.5,74c0.2-1.1,0.6-2.2,1-3.3c0.4-1.2,1-2.3,1.5-3.6c0.6-1.2,1.3-2.4,2.1-3.6
		c0.9-1.2,1.7-2.4,2.8-3.5c2.1-2.3,4.8-4.2,7.7-5.8c2.9-1.6,6.1-2.8,9.4-3.9c1.7-0.4,3.3-1,5.1-1.2c0.9-0.2,1.7-0.4,2.6-0.4l2.7-0.3
		c1.7,0,3.4-0.2,5.2,0l1.4,0.1c0.5,0,0.9,0.1,1.3,0.2c0.9,0.2,1.7,0.4,2.6,0.6c3.4,1,6.7,2.3,9.6,4.1c2.9,1.8,5.5,4,7.4,6.4
		c1.1,1.1,1.9,2.4,2.7,3.6c0.4,0.6,0.7,1.3,1.1,1.9c0.3,0.6,0.7,1.2,1,1.8c0.5,1.3,1.1,2.4,1.4,3.6c0.3,1.2,0.7,2.3,0.9,3.4
		c0.2,1.1,0.4,2.1,0.5,3c0.1,0.9,0.1,1.8,0.1,2.6c0,0.4,0,0.7,0,1.1c0,0.3,0,0.7-0.1,1c0,0.6-0.1,1.1-0.1,1.5
		c-0.1,0.8-0.1,1.2-0.1,1.2h-0.4c0,0-0.1-0.4-0.2-1.2c-0.1-0.4-0.2-0.9-0.3-1.5c-0.1-0.3-0.1-0.6-0.2-0.9c-0.1-0.3-0.2-0.7-0.3-1
		c-0.2-0.7-0.4-1.5-0.6-2.4c-0.3-0.8-0.6-1.7-1-2.7c-0.3-0.9-0.9-1.9-1.3-2.9c-0.5-1-1.1-2-1.7-3.1c-0.3-0.5-0.7-1-1-1.6
		c-0.4-0.5-0.7-1.1-1.1-1.6c-0.9-1-1.6-2.1-2.6-3.1c-1.8-2.1-4.1-3.9-6.6-5.7c-2.5-1.7-5.3-3.1-8.3-4.2c-1.5-0.5-3.1-1-4.7-1.3
		c-1.5-0.5-3.3-0.6-5-0.8c-3.2-0.2-6.7,0-9.9,1c-0.8,0.2-1.6,0.6-2.3,0.8l-1.1,0.5l-1.1,0.6c-0.7,0.4-1.4,0.7-2.1,1.2
		c-0.6,0.5-1.3,0.9-1.9,1.4c-2.4,2-4.5,4.1-6.3,6.3c-1,1-1.7,2.2-2.5,3.2c-0.4,0.5-0.7,1.1-1.1,1.6c-0.3,0.5-0.7,1-1,1.6
		c-0.6,1.1-1.2,2.1-1.6,3.1c-0.4,1-0.9,2-1.3,2.9c-0.3,1-0.6,1.9-0.9,2.7c-0.2,0.8-0.4,1.6-0.6,2.3c-0.1,0.4-0.2,0.7-0.3,1
		c-0.1,0.3-0.1,0.6-0.2,0.9c-0.1,0.6-0.2,1.1-0.3,1.5c-0.2,0.8-0.3,1.2-0.3,1.2L3.1,84.3z"/>
	<path fill="#FCE391" d="M24.6,84.5c0,0,0-0.4-0.1-1.2c0-0.4-0.1-0.9-0.1-1.5c0-0.3-0.1-0.6-0.1-0.9c0-0.3,0-0.7,0-1.1
		c0-0.8,0.1-1.7,0.2-2.6c0.1-0.9,0.3-1.9,0.5-3c0.2-1.1,0.6-2.2,1-3.3c0.4-1.2,1-2.3,1.5-3.6c0.6-1.2,1.3-2.4,2.1-3.6
		c0.9-1.2,1.7-2.4,2.8-3.5c2.1-2.3,4.8-4.2,7.7-5.8c2.9-1.6,6.1-2.8,9.4-3.9c1.7-0.4,3.3-1,5.1-1.2c0.9-0.2,1.7-0.4,2.6-0.4l2.7-0.3
		c1.7,0,3.4-0.2,5.2,0l1.4,0.1c0.5,0,0.9,0.1,1.3,0.2c0.9,0.2,1.7,0.4,2.6,0.6c3.4,1,6.7,2.3,9.6,4.1c2.9,1.8,5.5,4,7.4,6.4
		c1.1,1.1,1.9,2.4,2.7,3.6c0.4,0.6,0.7,1.3,1.1,1.9c0.3,0.6,0.7,1.2,1,1.8c0.5,1.3,1.1,2.4,1.4,3.6c0.3,1.2,0.7,2.3,0.9,3.4
		c0.2,1.1,0.4,2.1,0.5,3c0.1,0.9,0.1,1.8,0.1,2.6c0,0.4,0,0.7,0,1.1c0,0.3,0,0.7-0.1,1c0,0.6-0.1,1.1-0.1,1.5
		C95,84.1,95,84.5,95,84.5h-0.4c0,0-0.1-0.4-0.2-1.2c-0.1-0.4-0.2-0.9-0.3-1.5c-0.1-0.3-0.1-0.6-0.2-0.9c-0.1-0.3-0.2-0.7-0.3-1
		c-0.2-0.7-0.4-1.5-0.6-2.4c-0.3-0.8-0.6-1.7-1-2.7c-0.3-0.9-0.9-1.9-1.3-2.9c-0.5-1-1.1-2-1.7-3.1c-0.3-0.5-0.7-1-1-1.6
		c-0.4-0.5-0.7-1.1-1.1-1.6c-0.9-1-1.6-2.1-2.6-3.1c-1.8-2.1-4.1-3.9-6.6-5.7c-2.5-1.7-5.3-3.1-8.3-4.2c-1.5-0.5-3.1-1-4.7-1.3
		c-1.5-0.5-3.3-0.6-5-0.8c-3.2-0.2-6.7,0-9.9,1c-0.8,0.2-1.6,0.6-2.3,0.8l-1.1,0.5l-1.1,0.6c-0.7,0.4-1.4,0.7-2.1,1.2
		c-0.6,0.5-1.3,0.9-1.9,1.4c-2.4,2-4.5,4.1-6.3,6.3c-1,1-1.7,2.2-2.5,3.2c-0.4,0.5-0.7,1.1-1.1,1.6c-0.3,0.5-0.7,1-1,1.6
		c-0.6,1.1-1.2,2.1-1.6,3.1c-0.4,1-0.9,2-1.3,2.9c-0.3,1-0.6,1.9-0.9,2.7c-0.2,0.8-0.4,1.6-0.6,2.3c-0.1,0.4-0.2,0.7-0.3,1
		c-0.1,0.3-0.1,0.6-0.2,0.9c-0.1,0.6-0.2,1.1-0.3,1.5c-0.2,0.8-0.3,1.2-0.3,1.2L24.6,84.5z"/>
	<g>
		<g>
			<path fill="none" d="M92.1,46"/>
			<path fill="none" d="M132.4,7.8"/>
			<path fill="none" d="M172.6,46"/>
			<path fill="#FCE391" d="M253.7,46c0,0,0,0.5,0.1,1.4c0,0.5,0.1,1,0.1,1.7c0.1,0.7,0,1.4,0,2.3c-0.1,0.9-0.1,1.9-0.3,2.9
				c-0.2,1-0.4,2.1-0.7,3.3c-0.3,1.2-0.7,2.4-1.2,3.7c-0.5,1.3-1.1,2.6-1.8,3.9c-0.4,0.6-0.8,1.3-1.2,2c-0.4,0.7-0.8,1.4-1.3,2
				c-0.5,0.6-1,1.3-1.5,2c-0.5,0.7-1.2,1.2-1.8,1.8c-1.2,1.3-2.7,2.3-4.1,3.4c-0.7,0.5-1.5,1-2.3,1.4c-0.4,0.2-0.8,0.5-1.2,0.7
				c-0.4,0.2-0.8,0.4-1.2,0.6c-0.8,0.4-1.7,0.8-2.5,1.2c-0.9,0.3-1.8,0.7-2.6,1c-0.9,0.4-1.8,0.6-2.7,0.9c-0.9,0.3-1.8,0.7-2.7,0.9
				c-0.9,0.2-1.9,0.5-2.8,0.7c-0.9,0.3-1.9,0.4-2.9,0.6l-1.4,0.3c-0.5,0.1-1,0.1-1.5,0.2l-3,0.3l-2.9,0.1c-0.5,0-1,0-1.5,0l-1.5-0.1
				c-1-0.1-2-0.1-3-0.3c-1-0.2-1.9-0.4-2.9-0.6c-0.5-0.1-1-0.2-1.4-0.4l-1.4-0.4c-0.9-0.3-1.9-0.6-2.8-1c-0.9-0.4-1.8-0.8-2.7-1.1
				c-0.8-0.5-1.7-0.9-2.5-1.4c-0.8-0.4-1.6-0.9-2.4-1.5c-0.8-0.5-1.6-1-2.2-1.6c-1.4-1.2-2.8-2.3-3.9-3.7c-2.4-2.5-4.2-5.3-5.7-8
				c-0.7-1.4-1.2-2.7-1.8-4c-0.4-1.3-0.8-2.5-1.2-3.7c-0.2-1.2-0.5-2.3-0.6-3.3c-0.2-1-0.2-2-0.2-2.9c-0.1-0.9-0.1-1.6,0-2.3
				c0-0.7,0.1-1.2,0.1-1.7c0.1-0.9,0.1-1.4,0.1-1.4h0.4c0,0,0.1,0.5,0.3,1.4c0.1,0.4,0.2,1,0.3,1.6c0.1,0.3,0.1,0.7,0.2,1
				c0.1,0.4,0.2,0.7,0.3,1.1c0.2,0.8,0.4,1.7,0.7,2.6c0.3,0.9,0.7,1.9,1.1,3c0.4,1,1,2.1,1.5,3.3c0.6,1.1,1.3,2.2,2,3.4
				c1.6,2.3,3.3,4.7,5.6,6.8c1.1,1.2,2.3,2.1,3.6,3.2c0.6,0.5,1.3,1,2,1.5l1,0.8c0.3,0.3,0.7,0.4,1.1,0.7c0.7,0.4,1.5,0.9,2.2,1.3
				c0.8,0.4,1.6,0.8,2.4,1.2c0.8,0.4,1.6,0.7,2.5,1c0.8,0.3,1.7,0.7,2.5,0.9c0.9,0.3,1.8,0.5,2.6,0.8c0.9,0.3,1.8,0.4,2.7,0.6
				l1.3,0.3c0.5,0.1,0.9,0.1,1.4,0.2l2.9,0.3c3.6,0.2,7.6,0,11.1-1.1c0.5-0.1,0.9-0.2,1.3-0.4l1.3-0.5l1.3-0.5
				c0.4-0.1,0.8-0.4,1.2-0.6c0.8-0.4,1.6-0.8,2.4-1.3c0.7-0.5,1.5-1,2.2-1.5c0.4-0.3,0.7-0.5,1.1-0.8l1-0.8c0.7-0.6,1.3-1.1,1.9-1.7
				c1.2-1.2,2.4-2.3,3.4-3.5c2.2-2.3,3.9-4.7,5.4-7c0.7-1.2,1.3-2.3,1.9-3.5c0.5-1.2,1-2.2,1.5-3.3c0.4-1.1,0.7-2.1,1.1-3
				c0.3-0.9,0.5-1.8,0.7-2.6c0.1-0.4,0.2-0.8,0.3-1.1c0.1-0.4,0.1-0.7,0.2-1c0.1-0.6,0.2-1.2,0.3-1.6c0.2-0.9,0.3-1.4,0.3-1.4
				L253.7,46z"/>
		</g>
		<g>
			<path fill="#FCE391" d="M333.9,46c0,0-0.1-0.5-0.3-1.4c-0.1-0.4-0.2-1-0.3-1.6c-0.1-0.3-0.1-0.7-0.2-1c-0.1-0.4-0.2-0.7-0.3-1.1
				c-0.2-0.8-0.4-1.7-0.7-2.6c-0.3-0.9-0.7-1.9-1.1-3c-0.4-1-1-2.1-1.5-3.3c-0.6-1.1-1.2-2.3-1.9-3.5c-1.5-2.3-3.2-4.7-5.4-7
				c-1-1.2-2.2-2.3-3.4-3.5c-0.6-0.6-1.3-1.1-1.9-1.7l-1-0.8c-0.3-0.3-0.7-0.5-1.1-0.8c-0.7-0.5-1.5-1-2.2-1.5
				c-0.8-0.4-1.6-0.8-2.4-1.3c-0.4-0.2-0.8-0.4-1.2-0.6l-1.3-0.5l-1.3-0.5c-0.4-0.2-0.9-0.3-1.3-0.4c-3.6-1-7.5-1.2-11.1-1.1
				L291,9.3c-0.5,0.1-1,0.1-1.4,0.2l-1.3,0.3c-0.9,0.2-1.8,0.3-2.7,0.6c-0.9,0.3-1.8,0.5-2.6,0.8c-0.9,0.2-1.7,0.6-2.5,0.9
				c-0.8,0.3-1.7,0.6-2.5,1c-0.8,0.4-1.6,0.8-2.4,1.2c-0.7,0.5-1.5,0.9-2.2,1.3c-0.4,0.2-0.7,0.4-1.1,0.7l-1,0.8
				c-0.7,0.5-1.4,1-2,1.5c-1.2,1.1-2.5,2.1-3.6,3.2c-2.3,2.2-4.1,4.6-5.6,6.8c-0.7,1.2-1.4,2.3-2,3.4c-0.5,1.2-1.1,2.2-1.5,3.3
				c-0.4,1.1-0.7,2.1-1.1,3c-0.3,0.9-0.5,1.8-0.7,2.6c-0.1,0.4-0.2,0.8-0.3,1.1c-0.1,0.4-0.1,0.7-0.2,1c-0.1,0.6-0.2,1.2-0.3,1.6
				c-0.2,0.9-0.3,1.4-0.3,1.4h-0.4c0,0,0-0.5-0.1-1.4c0-0.5-0.1-1-0.1-1.7c-0.1-0.7,0-1.4,0-2.3c0.1-0.9,0.1-1.8,0.2-2.9
				c0.2-1,0.4-2.1,0.6-3.3c0.3-1.2,0.7-2.4,1.2-3.7c0.5-1.3,1.1-2.6,1.8-4c1.5-2.6,3.2-5.5,5.7-8c1.1-1.3,2.5-2.5,3.9-3.7
				c0.7-0.6,1.5-1.1,2.2-1.6c0.8-0.5,1.5-1.1,2.4-1.5c0.8-0.5,1.7-0.9,2.5-1.4c0.9-0.4,1.8-0.8,2.7-1.1c0.9-0.4,1.8-0.7,2.8-1
				l1.4-0.4c0.5-0.2,0.9-0.3,1.4-0.4c1-0.2,1.9-0.4,2.9-0.6c1-0.2,2-0.2,3-0.3l1.5-0.1c0.5,0,1,0,1.5,0l2.9,0.1l3,0.3
				c0.5,0.1,1,0.1,1.5,0.2l1.4,0.3c1,0.2,1.9,0.3,2.9,0.6c0.9,0.2,1.9,0.5,2.8,0.7c0.9,0.2,1.8,0.6,2.7,0.9c0.9,0.3,1.8,0.6,2.7,0.9
				c0.9,0.4,1.7,0.7,2.6,1c0.8,0.4,1.7,0.8,2.5,1.2c0.4,0.2,0.8,0.4,1.2,0.6c0.4,0.2,0.8,0.5,1.2,0.7c0.8,0.5,1.6,0.9,2.3,1.4
				c1.4,1.1,2.9,2.1,4.1,3.4c0.6,0.6,1.2,1.2,1.8,1.8c0.5,0.7,1,1.3,1.5,2c0.5,0.6,0.9,1.3,1.3,2c0.4,0.7,0.8,1.3,1.2,2
				c0.7,1.4,1.3,2.7,1.8,3.9c0.5,1.3,0.8,2.5,1.2,3.7c0.3,1.2,0.5,2.3,0.7,3.3c0.2,1,0.2,2,0.3,2.9c0.1,0.9,0.1,1.6,0,2.3
				c0,0.7-0.1,1.2-0.1,1.7c-0.1,0.9-0.1,1.4-0.1,1.4L333.9,46z"/>
		</g>
	</g>
	<g>
		<path fill="#FCE391" d="M51.3,27.8c0,0-0.4-0.3-1.1-0.8c-0.4-0.3-0.8-0.6-1.3-1c-0.3-0.2-0.5-0.4-0.8-0.7c-0.3-0.2-0.6-0.4-1-0.6
			c-0.7-0.4-1.4-1-2.2-1.5c-0.9-0.5-1.8-1-2.8-1.6c-1-0.5-2.1-0.9-3.3-1.5c-1.2-0.4-2.4-0.9-3.7-1.3c-2.7-0.7-5.6-1.4-8.7-1.7
			c-1.6-0.2-3.2-0.3-4.9-0.4c-0.8,0-1.7,0-2.5,0c-0.4,0-0.9,0-1.3,0c-0.4,0-0.9,0.1-1.3,0.1c-0.9,0.1-1.8,0.2-2.7,0.3
			c-0.9,0.2-1.8,0.4-2.6,0.6c-0.4,0.1-0.9,0.2-1.3,0.4l-1.3,0.5l-1.3,0.5c-0.4,0.2-0.9,0.3-1.3,0.6c-3.4,1.6-6.4,4-9.1,6.6l-1.9,2.2
			c-0.3,0.4-0.7,0.7-0.9,1.1l-0.8,1.1c-0.5,0.7-1.1,1.4-1.6,2.2c-0.5,0.8-1,1.5-1.5,2.3c-0.5,0.7-0.9,1.6-1.3,2.4
			c-0.4,0.8-0.9,1.6-1.2,2.4c-0.3,0.8-0.7,1.6-1,2.4c-0.3,0.8-0.5,1.7-0.8,2.5c-0.1,0.4-0.3,0.8-0.4,1.2c-0.1,0.4-0.2,0.8-0.3,1.2
			c-0.2,0.8-0.4,1.6-0.5,2.4c-0.2,1.6-0.5,3.2-0.6,4.8c-0.3,3.1,0,6.1,0.3,8.8c0.2,1.4,0.5,2.7,0.8,3.9c0.4,1.2,0.7,2.4,1,3.4
			c0.4,1,0.8,2,1.2,3c0.4,0.9,0.9,1.7,1.2,2.4c0.2,0.4,0.4,0.7,0.5,1.1c0.2,0.3,0.4,0.6,0.5,0.9c0.3,0.6,0.6,1,0.9,1.4
			c0.5,0.8,0.7,1.2,0.7,1.2l-0.3,0.3c0,0-0.3-0.3-1-1c-0.3-0.3-0.7-0.7-1.2-1.2c-0.5-0.5-1-1.1-1.5-1.8c-0.5-0.7-1.1-1.4-1.7-2.3
			c-0.5-0.9-1.1-1.9-1.7-2.9c-0.5-1.1-1-2.3-1.6-3.6c-0.4-1.3-0.9-2.7-1.3-4.1c-0.6-3-1.2-6.2-1-9.7c0-1.7,0.3-3.5,0.5-5.3
			c0.1-0.9,0.4-1.8,0.6-2.7c0.2-0.9,0.5-1.8,0.8-2.7c0.3-0.9,0.7-1.8,1-2.7c0.4-0.9,0.8-1.7,1.3-2.6c0.4-0.9,0.9-1.7,1.4-2.6
			l0.8-1.3c0.2-0.4,0.5-0.8,0.8-1.2c0.6-0.8,1.2-1.6,1.8-2.4c0.6-0.8,1.4-1.5,2-2.2l1.1-1.1c0.4-0.3,0.7-0.6,1.1-0.9l2.2-1.9
			l2.5-1.7c0.4-0.3,0.8-0.6,1.2-0.8l1.3-0.7C1,21,1.8,20.4,2.7,20c0.9-0.4,1.7-0.9,2.6-1.3c0.8-0.5,1.8-0.8,2.6-1.1
			c0.9-0.4,1.7-0.8,2.6-1.1c0.9-0.3,1.8-0.6,2.7-1c0.9-0.3,1.8-0.5,2.7-0.7c0.4-0.1,0.9-0.3,1.3-0.4c0.5-0.1,0.9-0.2,1.4-0.3
			c0.9-0.1,1.8-0.4,2.7-0.4c1.8-0.1,3.6-0.3,5.3-0.2c0.9,0.1,1.7,0.1,2.5,0.2c0.8,0.2,1.6,0.3,2.4,0.5c0.8,0.1,1.6,0.4,2.3,0.6
			c0.7,0.2,1.5,0.5,2.2,0.7c1.4,0.6,2.7,1.2,4,1.8c1.2,0.7,2.3,1.3,3.3,2c1,0.7,1.9,1.4,2.7,2.1c0.8,0.7,1.5,1.4,2.1,2
			c0.6,0.6,1.2,1.2,1.5,1.7c0.4,0.5,0.7,1,1,1.3c0.5,0.7,0.8,1.1,0.8,1.1L51.3,27.8z"/>
		<path fill="#FCE391" d="M84,39.8c0,0-0.5,0.2-1.5,0.5c-0.5,0.2-1.1,0.3-1.8,0.4c-0.4,0.1-0.7,0.1-1.1,0.2
			c-0.4,0.1-0.8,0.1-1.2,0.1c-0.9,0.1-1.8,0.1-2.8,0.1c-1,0-2.1-0.1-3.2-0.2c-1.1-0.2-2.2-0.3-3.3-0.6c-1.1-0.2-2.2-0.6-3.4-1
			c-1.1-0.5-2.2-0.9-3.2-1.4c-1-0.5-2-1.1-2.9-1.7c-0.9-0.7-1.8-1.3-2.5-2c-0.4-0.3-0.7-0.7-1.1-1c-0.3-0.3-0.6-0.7-0.9-1
			c-0.3-0.3-0.6-0.6-0.8-0.9c-0.2-0.3-0.5-0.6-0.7-0.9c-0.4-0.6-0.8-1.1-1-1.5c-0.5-0.9-0.8-1.4-0.8-1.4s0.5,0.3,1.3,0.8
			c0.4,0.3,0.9,0.6,1.5,1c0.6,0.4,1.2,0.8,1.9,1.2c0.7,0.4,1.5,0.9,2.3,1.3c0.8,0.5,1.7,0.9,2.6,1.4c0.9,0.4,1.8,0.9,2.8,1.3
			c1,0.4,2,0.8,2.9,1.2c1,0.3,2,0.7,3,1c1,0.3,2,0.6,3,0.9c1,0.2,1.9,0.5,2.8,0.7c0.9,0.2,1.8,0.4,2.6,0.5c0.8,0.2,1.6,0.3,2.2,0.4
			c0.7,0.1,1.3,0.2,1.8,0.3C83.4,39.6,84,39.8,84,39.8z"/>
	</g>
	<path fill="none" stroke="#000000" stroke-miterlimit="10" d="M61.8,77.6"/>
</g>
<g id="Outline">
	<polygon fill="none" stroke="#000000" stroke-miterlimit="10" points="102.8,37.3 97.3,3 60.1,-13.4 96.7,-34.1 101.9,-71.9 
		128.8,-44.9 166.4,-51.9 148.9,-14.2 167.4,20.7 128.3,12.5 	"/>
	<g>
		<g>
			<path fill="none" d="M92.6,46"/>
			<path fill="none" d="M132.8,7.8"/>
			<path fill="none" d="M173.1,46"/>
			<path d="M253.9,46c0,0,0,0.5,0,1.4c0,0.5,0,1-0.1,1.7c0,0.3,0,0.7-0.1,1.1c-0.1,0.4-0.1,0.8-0.2,1.2c-0.1,0.8-0.2,1.8-0.4,2.8
				c-0.3,1-0.5,2.1-0.8,3.2c-0.4,1.1-0.8,2.3-1.3,3.5c-0.6,1.2-1.2,2.4-1.9,3.7c-1.5,2.5-3.3,5.1-5.6,7.5c-1.1,1.3-2.4,2.3-3.8,3.5
				c-0.7,0.6-1.4,1-2.1,1.6c-0.4,0.3-0.7,0.5-1.1,0.8c-0.4,0.3-0.8,0.5-1.2,0.7c-0.8,0.5-1.6,0.9-2.4,1.4c-0.8,0.4-1.7,0.8-2.5,1.2
				c-0.8,0.4-1.7,0.7-2.6,1l-1.3,0.5c-0.4,0.2-0.9,0.3-1.4,0.4c-0.9,0.2-1.9,0.5-2.8,0.7c-0.9,0.2-1.9,0.3-2.9,0.5l-1.4,0.2
				c-0.5,0.1-1,0.1-1.5,0.1l-2.9,0.1l-2.9-0.1c-0.5,0-1,0-1.4-0.1l-1.4-0.2c-1-0.2-1.9-0.2-2.9-0.5c-0.9-0.2-1.9-0.5-2.8-0.7
				c-0.5-0.1-0.9-0.2-1.4-0.4l-1.3-0.5c-0.9-0.3-1.8-0.6-2.6-1c-0.9-0.4-1.7-0.8-2.5-1.2c-0.8-0.5-1.6-0.9-2.4-1.4
				c-0.4-0.2-0.8-0.4-1.2-0.7c-0.4-0.3-0.7-0.5-1.1-0.8c-0.7-0.5-1.5-1-2.1-1.6c-1.3-1.2-2.7-2.2-3.8-3.5c-2.4-2.4-4.1-5-5.6-7.5
				c-0.7-1.3-1.3-2.5-1.9-3.7c-0.5-1.2-0.9-2.4-1.3-3.5c-0.3-1.1-0.6-2.2-0.8-3.2c-0.2-1-0.3-1.9-0.4-2.8c-0.1-0.4-0.1-0.8-0.2-1.2
				c-0.1-0.4,0-0.7-0.1-1.1c0-0.7,0-1.2-0.1-1.7c0-0.9,0-1.4,0-1.4s0,0.5,0.1,1.4c0,0.4,0.1,1,0.1,1.7c0,0.7,0.1,1.4,0.3,2.2
				c0.2,0.8,0.3,1.7,0.5,2.7c0.3,1,0.6,2,0.9,3.1c0.4,1.1,0.9,2.2,1.4,3.5c0.6,1.2,1.2,2.4,1.9,3.6c1.5,2.4,3.3,5,5.7,7.3
				c1.1,1.2,2.4,2.3,3.7,3.4c0.7,0.5,1.4,1,2.1,1.5c0.4,0.3,0.7,0.5,1.1,0.8c0.4,0.3,0.8,0.4,1.1,0.7c0.8,0.4,1.6,0.9,2.3,1.3
				c0.8,0.4,1.7,0.7,2.5,1.1c0.8,0.4,1.7,0.7,2.6,1l1.3,0.5c0.4,0.2,0.9,0.3,1.3,0.4c0.9,0.2,1.8,0.4,2.7,0.7
				c0.9,0.2,1.9,0.3,2.8,0.4l1.4,0.2c0.5,0.1,1,0.1,1.4,0.1l2.9,0.1c3.8-0.1,7.6-0.5,11.2-1.5c0.5-0.1,0.9-0.2,1.3-0.4l1.3-0.5
				c0.9-0.3,1.8-0.6,2.6-1c0.8-0.4,1.7-0.8,2.5-1.1c0.8-0.4,1.6-0.9,2.3-1.3c0.4-0.2,0.8-0.4,1.1-0.7c0.4-0.3,0.7-0.5,1.1-0.8
				c0.7-0.5,1.5-1,2.1-1.5c1.3-1.1,2.6-2.1,3.7-3.4c2.4-2.3,4.1-4.9,5.7-7.3c0.7-1.3,1.3-2.5,1.9-3.6c0.5-1.2,1-2.4,1.4-3.5
				c0.3-1.1,0.6-2.2,0.9-3.1c0.2-1,0.4-1.9,0.5-2.7c0.2-0.8,0.3-1.6,0.3-2.2c0-0.7,0.1-1.2,0.1-1.7C253.9,46.5,253.9,46,253.9,46z"
				/>
		</g>
		<g>
			<path d="M334.6,46c0,0,0-0.5-0.1-1.4c0-0.4-0.1-1-0.1-1.7c0-0.7-0.1-1.4-0.3-2.2c-0.2-0.8-0.3-1.7-0.5-2.7c-0.3-1-0.6-2-0.9-3.1
				c-0.4-1.1-0.9-2.2-1.4-3.5c-0.6-1.2-1.2-2.4-1.9-3.6c-1.5-2.4-3.3-5-5.7-7.3c-1.1-1.2-2.4-2.3-3.7-3.4c-0.7-0.5-1.4-1-2.1-1.5
				c-0.4-0.3-0.7-0.5-1.1-0.8c-0.4-0.3-0.8-0.4-1.1-0.7c-0.8-0.4-1.6-0.9-2.3-1.3c-0.8-0.4-1.7-0.7-2.5-1.1c-0.8-0.4-1.7-0.7-2.6-1
				l-1.3-0.5c-0.4-0.2-0.9-0.3-1.3-0.4c-3.6-1-7.4-1.4-11.2-1.5l-2.9,0.1c-0.5,0-1,0-1.4,0.1l-1.4,0.2c-0.9,0.2-1.9,0.2-2.8,0.4
				c-0.9,0.2-1.8,0.4-2.7,0.7c-0.5,0.1-0.9,0.2-1.3,0.4l-1.3,0.5c-0.9,0.3-1.8,0.6-2.6,1c-0.8,0.4-1.7,0.8-2.5,1.1
				c-0.8,0.4-1.6,0.9-2.3,1.3c-0.4,0.2-0.8,0.4-1.1,0.7c-0.4,0.3-0.7,0.5-1.1,0.8c-0.7,0.5-1.4,1-2.1,1.5c-1.3,1.1-2.6,2.1-3.7,3.4
				c-2.4,2.3-4.1,4.9-5.7,7.3c-0.7,1.3-1.3,2.5-1.9,3.6c-0.5,1.2-1,2.4-1.4,3.5c-0.3,1.1-0.6,2.2-0.9,3.1c-0.2,1-0.4,1.9-0.5,2.7
				c-0.2,0.8-0.3,1.6-0.3,2.2c0,0.7-0.1,1.2-0.1,1.7c-0.1,0.9-0.1,1.4-0.1,1.4s0-0.5,0-1.4c0-0.5,0-1,0.1-1.7c0-0.3,0-0.7,0.1-1.1
				c0.1-0.4,0.1-0.8,0.2-1.2c0.1-0.8,0.2-1.8,0.4-2.8c0.3-1,0.5-2.1,0.8-3.2c0.4-1.1,0.8-2.3,1.3-3.5c0.6-1.2,1.2-2.4,1.9-3.7
				c1.5-2.5,3.3-5.1,5.6-7.5c1.1-1.3,2.4-2.3,3.8-3.5c0.7-0.6,1.4-1,2.1-1.6c0.4-0.3,0.7-0.5,1.1-0.8c0.4-0.3,0.8-0.5,1.2-0.7
				c0.8-0.5,1.6-0.9,2.4-1.4c0.8-0.4,1.7-0.8,2.5-1.2c0.8-0.4,1.7-0.7,2.6-1l1.3-0.5c0.4-0.2,0.9-0.3,1.4-0.4
				c0.9-0.2,1.9-0.5,2.8-0.7c0.9-0.2,1.9-0.3,2.9-0.5l1.4-0.2c0.5-0.1,1-0.1,1.4-0.1l2.9-0.1l2.9,0.1c0.5,0,1,0,1.5,0.1l1.4,0.2
				c1,0.2,1.9,0.2,2.9,0.5c0.9,0.2,1.9,0.5,2.8,0.7c0.5,0.1,0.9,0.2,1.4,0.4l1.3,0.5c0.9,0.3,1.8,0.6,2.6,1c0.9,0.4,1.7,0.8,2.5,1.2
				c0.8,0.5,1.6,0.9,2.4,1.4c0.4,0.2,0.8,0.4,1.2,0.7c0.4,0.3,0.7,0.5,1.1,0.8c0.7,0.5,1.5,1,2.1,1.6c1.3,1.2,2.7,2.2,3.8,3.5
				c2.4,2.4,4.1,5,5.6,7.5c0.7,1.3,1.3,2.5,1.9,3.7c0.5,1.2,0.9,2.4,1.3,3.5c0.3,1.1,0.6,2.2,0.8,3.2c0.2,1,0.3,1.9,0.4,2.8
				c0.1,0.4,0.1,0.8,0.2,1.2c0.1,0.4,0,0.7,0.1,1.1c0,0.7,0,1.2,0.1,1.7C334.6,45.5,334.6,46,334.6,46z"/>
		</g>
	</g>
	<g>
		<g>
			<path fill="none" d="M174.3-74.2"/>
			<path fill="none" d="M119-77.8"/>
			<path d="M50.3,29.1c0,0,0.4,0.4,1.1,1c0.3,0.3,0.7,0.7,1.2,1.2c0.5,0.4,1,0.9,1.7,1.4c0.3,0.2,0.6,0.5,1,0.8
				c0.4,0.2,0.7,0.5,1.1,0.7c0.7,0.5,1.6,1,2.5,1.5c0.9,0.4,1.8,0.9,2.8,1.3c0.9,0.4,2,0.8,3,1.1c1,0.3,2,0.6,3.1,0.9
				c1,0.3,2,0.4,3,0.6c1,0.1,1.9,0.3,2.9,0.4c0.9,0.1,1.8,0.2,2.6,0.2c1.6,0.1,3,0.2,3.9,0.2c0.9,0,1.5,0,1.5,0s-0.5,0.1-1.5,0.2
				c-0.5,0.1-1,0.1-1.7,0.1c-0.7,0-1.4,0.1-2.2,0.1c-0.8,0-1.7,0-2.6-0.1c-0.9,0-1.9-0.2-2.9-0.3c-1-0.2-2.1-0.3-3.1-0.6
				c-1.1-0.2-2.1-0.5-3.1-0.9c-1-0.4-2.1-0.7-3-1.2c-1-0.4-1.9-0.9-2.8-1.4c-0.9-0.5-1.7-1-2.5-1.6c-0.4-0.3-0.7-0.6-1.1-0.8
				c-0.3-0.3-0.7-0.6-1-0.8c-0.6-0.5-1.1-1.1-1.6-1.6c-0.5-0.5-0.8-0.9-1.1-1.3C50.7,29.5,50.3,29.1,50.3,29.1z"/>
		</g>
		<g>
			<path d="M-11.6,80.7c0,0-0.3-0.4-0.8-1.1c-0.3-0.4-0.6-0.8-1-1.3c-0.2-0.3-0.4-0.5-0.6-0.8c-0.2-0.3-0.4-0.7-0.6-1
				c-0.4-0.7-1-1.5-1.4-2.4c-0.4-0.9-0.9-1.9-1.4-3c-0.4-1.1-0.8-2.3-1.3-3.5c-0.3-1.3-0.7-2.6-1-4.1c-0.4-2.9-0.8-6-0.5-9.4
				c0-1.7,0.4-3.4,0.6-5.1c0.1-0.9,0.4-1.7,0.6-2.6c0.1-0.4,0.2-0.9,0.3-1.3c0.1-0.4,0.3-0.9,0.4-1.3c0.3-0.9,0.6-1.7,1-2.6
				c0.4-0.8,0.8-1.7,1.2-2.5c0.4-0.9,0.9-1.7,1.4-2.5L-14,35c0.2-0.4,0.5-0.8,0.8-1.2c0.6-0.8,1.1-1.5,1.7-2.3
				c0.6-0.8,1.3-1.5,1.9-2.2l1-1.1c0.3-0.4,0.7-0.7,1.1-1l2.2-2l2.3-1.7c0.4-0.3,0.8-0.6,1.2-0.9l1.2-0.8c0.8-0.5,1.6-1.1,2.5-1.5
				c0.9-0.4,1.7-0.8,2.6-1.3c0.4-0.2,0.9-0.4,1.3-0.6l1.3-0.5c0.9-0.3,1.8-0.7,2.7-0.9c0.9-0.2,1.8-0.5,2.7-0.7
				c0.9-0.2,1.8-0.3,2.7-0.5c0.5-0.1,0.9-0.2,1.3-0.2c0.5,0,0.9-0.1,1.3-0.1c0.9-0.1,1.8-0.2,2.7-0.2c1.8,0.1,3.5,0,5.1,0.3
				C29,16.1,32,17,34.8,18c1.3,0.6,2.6,1.1,3.8,1.7c1.1,0.7,2.2,1.3,3.2,1.9c1,0.7,1.8,1.3,2.7,1.9c0.8,0.6,1.5,1.3,2.1,1.8
				c0.3,0.3,0.6,0.5,0.9,0.8c0.3,0.3,0.5,0.5,0.7,0.8c0.4,0.5,0.8,0.9,1.1,1.2c0.6,0.7,0.9,1,0.9,1s-0.3-0.3-1-1
				c-0.3-0.3-0.7-0.7-1.2-1.2c-0.4-0.5-1-1-1.7-1.5c-0.7-0.5-1.3-1.2-2.1-1.8c-0.8-0.6-1.7-1.2-2.7-1.8c-1-0.6-2.1-1.1-3.3-1.8
				c-1.2-0.5-2.5-1.1-3.8-1.6c-2.7-0.9-5.7-1.7-9-2c-1.6-0.2-3.3-0.2-5-0.2c-0.9,0-1.7,0.1-2.6,0.2c-0.4,0-0.9,0.1-1.3,0.1
				c-0.4,0-0.9,0.1-1.3,0.2c-0.9,0.2-1.8,0.3-2.7,0.5c-0.9,0.2-1.8,0.5-2.6,0.7c-0.9,0.2-1.8,0.6-2.6,0.9l-1.3,0.5
				c-0.4,0.2-0.9,0.3-1.3,0.6c-0.8,0.4-1.7,0.8-2.5,1.2c-0.8,0.4-1.6,1-2.4,1.4l-1.2,0.7c-0.4,0.3-0.8,0.6-1.2,0.9L-4.8,26
				c-2.8,2.5-5.5,5.2-7.6,8.3c-0.3,0.4-0.5,0.8-0.8,1.2l-0.7,1.2c-0.5,0.8-1,1.6-1.4,2.4c-0.4,0.8-0.8,1.6-1.2,2.5
				c-0.3,0.8-0.6,1.7-0.9,2.5c-0.1,0.4-0.3,0.8-0.4,1.3c-0.1,0.4-0.2,0.9-0.3,1.3c-0.2,0.9-0.5,1.7-0.7,2.5c-0.3,1.7-0.7,3.3-0.7,5
				c-0.4,3.3-0.1,6.4,0.3,9.2c0.3,1.4,0.6,2.7,0.9,4c0.4,1.2,0.8,2.4,1.2,3.5c0.5,1.1,0.9,2.1,1.3,3c0.4,0.9,0.9,1.7,1.3,2.4
				c0.4,0.7,0.8,1.4,1.2,1.9c0.4,0.5,0.7,1,1,1.4C-11.9,80.3-11.6,80.7-11.6,80.7z"/>
		</g>
	</g>
	<path d="M-16.8,84.1c0,0,0-0.4,0-1.2c0-0.4,0-0.9,0-1.5c0-0.3,0-0.6,0-0.9c0-0.3,0.1-0.7,0.1-1.1c0.1-0.8,0.2-1.6,0.3-2.5
		c0.2-0.9,0.4-1.9,0.7-2.9c0.3-1,0.7-2.1,1.1-3.2c0.4-1.1,1-2.2,1.5-3.4c0.3-0.6,0.7-1.1,1-1.7c0.4-0.6,0.7-1.2,1.1-1.8
		c0.8-1.1,1.7-2.3,2.7-3.4c1.9-2.3,4.5-4.2,7.2-6c2.8-1.7,5.8-3.1,9.1-4.1c0.8-0.2,1.6-0.4,2.5-0.7c0.4-0.1,0.8-0.2,1.3-0.3l1.3-0.2
		c1.7-0.4,3.4-0.4,5.2-0.5c3.4,0,6.9,0.4,10.2,1.3c3.3,1,6.4,2.4,9.1,4.2c2.7,1.8,5.2,3.9,7.1,6.1c1,1.1,1.9,2.3,2.7,3.4
		c0.4,0.6,0.7,1.2,1.1,1.8c0.3,0.6,0.7,1.1,1,1.7c0.5,1.2,1.1,2.3,1.5,3.4c0.4,1.1,0.8,2.2,1.1,3.2c0.2,1,0.5,2,0.7,2.9
		c0.1,0.9,0.2,1.7,0.3,2.5c0,0.4,0.1,0.7,0.1,1.1c0,0.3,0,0.7,0,0.9c0,0.6,0,1.1,0,1.5c0,0.8,0,1.2,0,1.2h-0.1c0,0,0-0.4-0.1-1.2
		c0-0.4-0.1-0.9-0.1-1.5c0-0.3,0-0.6-0.1-0.9c-0.1-0.3-0.1-0.7-0.2-1c-0.1-0.7-0.3-1.5-0.4-2.4c-0.2-0.9-0.5-1.8-0.8-2.8
		c-0.3-1-0.8-2-1.2-3.1c-0.4-1.1-1-2.1-1.6-3.3c-0.3-0.6-0.7-1.1-1-1.7c-0.4-0.6-0.7-1.2-1.1-1.7c-0.9-1.1-1.6-2.3-2.7-3.3
		c-1.9-2.2-4.3-4.1-6.9-5.9c-2.6-1.8-5.7-3.1-8.8-4.2c-0.8-0.2-1.6-0.4-2.4-0.7c-0.4-0.1-0.8-0.2-1.2-0.3l-1.2-0.2
		c-1.6-0.4-3.4-0.4-5.1-0.5c-3.4,0-6.8,0.4-10,1.4c-0.8,0.2-1.6,0.6-2.4,0.8L4.7,52l-1.1,0.5c-0.7,0.4-1.5,0.7-2.2,1.1
		c-0.7,0.4-1.4,0.9-2,1.3c-2.6,1.8-4.9,3.9-6.8,6.1c-1,1-1.8,2.3-2.6,3.3c-0.4,0.5-0.7,1.1-1.1,1.7c-0.3,0.6-0.7,1.1-1,1.7
		c-0.5,1.2-1.1,2.2-1.6,3.3c-0.4,1.1-0.9,2.1-1.1,3.1c-0.3,1-0.5,1.9-0.8,2.8c-0.2,0.9-0.3,1.7-0.4,2.4c-0.1,0.4-0.1,0.7-0.2,1
		c0,0.3-0.1,0.6-0.1,0.9c0,0.6-0.1,1.1-0.1,1.5C-16.7,83.6-16.7,84.1-16.8,84.1L-16.8,84.1z"/>
	<path d="M4.3,84.5c0,0,0-0.4,0-1.2c0-0.4,0-0.9,0-1.5c0-0.3,0-0.6,0-0.9c0-0.3,0.1-0.7,0.1-1.1c0.1-0.8,0.2-1.6,0.3-2.5
		c0.2-0.9,0.4-1.9,0.7-2.9c0.3-1,0.7-2.1,1.1-3.2c0.4-1.1,1-2.2,1.5-3.4c0.3-0.6,0.7-1.1,1-1.7c0.4-0.6,0.7-1.2,1.1-1.8
		c0.8-1.1,1.7-2.3,2.7-3.4c1.9-2.3,4.5-4.2,7.2-6c2.8-1.7,5.8-3.1,9.1-4.1c0.8-0.2,1.6-0.4,2.5-0.7c0.4-0.1,0.8-0.2,1.3-0.3l1.3-0.2
		c1.7-0.4,3.4-0.4,5.2-0.5c3.4,0,6.9,0.4,10.2,1.3c3.3,1,6.4,2.4,9.1,4.2c2.7,1.8,5.2,3.9,7.1,6.1c1,1.1,1.9,2.3,2.7,3.4
		c0.4,0.6,0.7,1.2,1.1,1.8c0.3,0.6,0.7,1.1,1,1.7c0.5,1.2,1.1,2.3,1.5,3.4c0.4,1.1,0.8,2.2,1.1,3.2c0.2,1,0.5,2,0.7,2.9
		c0.1,0.9,0.2,1.7,0.3,2.5c0,0.4,0.1,0.7,0.1,1.1c0,0.3,0,0.7,0,0.9c0,0.6,0,1.1,0,1.5c0,0.8,0,1.2,0,1.2h-0.1c0,0,0-0.4-0.1-1.2
		c0-0.4-0.1-0.9-0.1-1.5c0-0.3,0-0.6-0.1-0.9c-0.1-0.3-0.1-0.7-0.2-1c-0.1-0.7-0.3-1.5-0.4-2.4c-0.2-0.9-0.5-1.8-0.8-2.8
		c-0.3-1-0.8-2-1.2-3.1c-0.4-1.1-1-2.1-1.6-3.3c-0.3-0.6-0.7-1.1-1-1.7c-0.4-0.6-0.7-1.2-1.1-1.7c-0.9-1.1-1.6-2.3-2.7-3.3
		c-1.9-2.2-4.3-4.1-6.9-5.9c-2.6-1.8-5.7-3.1-8.8-4.2c-0.8-0.2-1.6-0.4-2.4-0.7c-0.4-0.1-0.8-0.2-1.2-0.3l-1.2-0.2
		c-1.6-0.4-3.4-0.4-5.1-0.5c-3.4,0-6.8,0.4-10,1.4c-0.8,0.2-1.6,0.6-2.4,0.8l-1.2,0.4L24.6,53c-0.7,0.4-1.5,0.7-2.2,1.1
		c-0.7,0.4-1.4,0.9-2,1.3c-2.6,1.8-4.9,3.9-6.8,6.1c-1,1-1.8,2.3-2.6,3.3c-0.4,0.5-0.7,1.1-1.1,1.7c-0.3,0.6-0.7,1.1-1,1.7
		c-0.5,1.2-1.1,2.2-1.6,3.3c-0.4,1.1-0.9,2.1-1.1,3.1c-0.3,1-0.5,1.9-0.8,2.8c-0.2,0.9-0.3,1.7-0.4,2.4c-0.1,0.4-0.1,0.7-0.2,1
		c0,0.3-0.1,0.6-0.1,0.9c0,0.6-0.1,1.1-0.1,1.5C4.4,84.1,4.4,84.5,4.3,84.5L4.3,84.5z"/>
	<path d="M25.6,84.5c0,0,0-0.4,0-1.2c0-0.4,0-0.9,0-1.5c0-0.3,0-0.6,0-0.9c0-0.3,0.1-0.7,0.1-1.1c0.1-0.8,0.2-1.6,0.3-2.5
		c0.2-0.9,0.4-1.9,0.7-2.9c0.3-1,0.7-2.1,1.1-3.2c0.4-1.1,1-2.2,1.5-3.4c0.3-0.6,0.7-1.1,1-1.7c0.4-0.6,0.7-1.2,1.1-1.8
		c0.8-1.1,1.7-2.3,2.7-3.4c1.9-2.3,4.5-4.2,7.2-6c2.8-1.7,5.8-3.1,9.1-4.1c0.8-0.2,1.6-0.4,2.5-0.7c0.4-0.1,0.8-0.2,1.3-0.3l1.3-0.2
		c1.7-0.4,3.4-0.4,5.2-0.5c3.4,0,6.9,0.4,10.2,1.3c3.3,1,6.4,2.4,9.1,4.2c2.7,1.8,5.2,3.9,7.1,6.1c1,1.1,1.9,2.3,2.7,3.4
		c0.4,0.6,0.7,1.2,1.1,1.8c0.3,0.6,0.7,1.1,1,1.7c0.5,1.2,1.1,2.3,1.5,3.4c0.4,1.1,0.8,2.2,1.1,3.2c0.2,1,0.5,2,0.7,2.9
		c0.1,0.9,0.2,1.7,0.3,2.5c0,0.4,0.1,0.7,0.1,1.1c0,0.3,0,0.7,0,0.9c0,0.6,0,1.1,0,1.5c0,0.8,0,1.2,0,1.2h-0.1c0,0,0-0.4-0.1-1.2
		c0-0.4-0.1-0.9-0.1-1.5c0-0.3,0-0.6-0.1-0.9c-0.1-0.3-0.1-0.7-0.2-1c-0.1-0.7-0.3-1.5-0.4-2.4c-0.2-0.9-0.5-1.8-0.8-2.8
		c-0.3-1-0.8-2-1.2-3.1c-0.4-1.1-1-2.1-1.6-3.3c-0.3-0.6-0.7-1.1-1-1.7c-0.4-0.6-0.7-1.2-1.1-1.7c-0.9-1.1-1.6-2.3-2.7-3.3
		c-1.9-2.2-4.3-4.1-6.9-5.9c-2.6-1.8-5.7-3.1-8.8-4.2c-0.8-0.2-1.6-0.4-2.4-0.7c-0.4-0.1-0.8-0.2-1.2-0.3l-1.2-0.2
		c-1.6-0.4-3.4-0.4-5.1-0.5c-3.4,0-6.8,0.4-10,1.4c-0.8,0.2-1.6,0.6-2.4,0.8L47,52.4L45.9,53c-0.7,0.4-1.5,0.7-2.2,1.1
		c-0.7,0.4-1.4,0.9-2,1.3c-2.6,1.8-4.9,3.9-6.8,6.1c-1,1-1.8,2.3-2.6,3.3c-0.4,0.5-0.7,1.1-1.1,1.7c-0.3,0.6-0.7,1.1-1,1.7
		c-0.5,1.2-1.1,2.2-1.6,3.3c-0.4,1.1-0.9,2.1-1.1,3.1c-0.3,1-0.5,1.9-0.8,2.8c-0.2,0.9-0.3,1.7-0.4,2.4c-0.1,0.4-0.1,0.7-0.2,1
		c0,0.3-0.1,0.6-0.1,0.9c0,0.6-0.1,1.1-0.1,1.5C25.7,84.1,25.7,84.5,25.6,84.5L25.6,84.5z"/>
</g>
</svg>
