<?xml version="1.0" encoding="utf-8"?>
<!-- Generator: Adobe Illustrator 18.0.0, SVG Export Plug-In . SVG Version: 6.00 Build 0)  -->
<svg version="1.2" baseProfile="tiny" xmlns="http://www.w3.org/2000/svg" xmlns:xlink="http://www.w3.org/1999/xlink" x="0px"
	 y="0px" viewBox="0 0 500 500" xml:space="preserve">
<g id="Haato">
	<path fill="none" stroke="#000000" stroke-miterlimit="10" d="M425.3,500"/>
	<polygon fill="#F7DD71" stroke="#000000" stroke-miterlimit="10" points="287,46.6 270.9,54.8 268,61 263.8,66.5 259.8,71 
		255.3,75.5 250,78.6 251,237.9 252.2,236.1 255.4,232.6 260,227.6 264.1,224.1 269.1,221.9 274.6,219.5 281,218.3 287.3,217.6 
		294,217.4 300.3,218.8 306,221.2 309.8,222.9 315.8,226.5 320.3,230.1 324.9,235.2 327.7,239.4 330.5,244.7 332,249.2 333.3,253.8 
		333.9,257.4 334.3,263.4 334.3,271.5 333.3,276.3 330.7,284.8 327.4,291.3 323.8,298.4 318.8,304.3 314.1,310.3 304.8,318.8 
		292.2,330.8 281.3,340.4 270.8,350.3 261.6,361 256.8,367.3 252,373.8 250,375 250,500 425.3,500 420.8,491.8 414.2,474.3 
		409.6,460.4 402.9,440.7 399.1,426.6 396.8,415.5 396.5,411.3 398.7,409 398.8,403.5 396.5,402.5 394.7,402.5 393.2,400.2 
		392.8,395.4 390.9,386.4 389.7,378.3 389,369 389.8,363 391.2,361.5 390.3,359 389.7,356 389,354.2 387.3,353.2 386,353.2 
		383,331.3 381.2,318.4 380.7,312.5 380.7,308.3 391.3,320.8 395.6,325.2 402.1,331 405.8,334.1 411.2,338.6 415.8,342 418.2,342.8 
		416.2,337.6 414.5,333.2 412.8,326.3 411.6,322.2 410.4,318 409.7,314.5 409.5,311.3 412.5,314.2 415.8,318.1 418.2,320.8 
		417.4,316.7 416.7,312.5 415.3,308.7 411.8,298.1 408.8,284.8 406.8,276.8 404.2,265.9 402.2,256.1 399.2,241.1 397.8,233 
		397.1,226.1 396,217.1 395.7,213.1 395.7,212 401.2,216 406.4,218.7 411,220.5 418,221.9 422.5,222 428.2,221.3 430.1,220.6 
		431.2,220.2 428.2,218.7 424.8,218.8 423.5,218.5 422.4,217.8 420.6,217 417.5,215.8 414.2,213.2 408.6,208.1 404.2,202 
		399.8,194.6 396.3,187.5 393.8,182.5 392.3,179.7 395.5,180.3 400,180.3 407,179.7 412.1,177.6 417.2,173.3 420.4,169.2 
		422.8,165.8 425.7,164.6 427.1,163.2 431.2,161.2 436.5,157.5 439.7,154.3 443.8,150 446.5,146.2 447,144.1 447.3,140.5 
		447.3,139.2 445.4,135.2 442.4,130.8 438.7,126.4 434.3,122.4 429.6,119.1 423.6,116.3 418.6,114.2 411.8,112.7 407.7,112 
		400.8,111.8 396.3,111.8 396.2,108.3 395.5,105.4 393.7,103.1 391.5,102 391.8,100.3 393.9,99.1 399.3,96.8 403.4,95.8 407.7,95 
		411,94.5 403.8,93.8 400.7,93.3 396.3,94.2 392.5,95 388.3,97 388.3,93.8 387.7,90.8 387.7,83.7 387.5,76 387.1,72.4 386,66.9 
		384.8,62 384.8,68.2 384.7,73.5 384.3,79 383.5,83.7 382.3,88.2 380.4,87.8 375.2,86.7 370.3,86.7 366.8,88.8 361.7,94.2 357,99.7 
		354.8,102.3 350.3,102.7 349.3,99.5 347.9,95.4 345.8,92 343,88.8 340.1,88.3 336.1,87.8 330.2,89.3 328.2,91 326.7,92 321.1,88.8 
		315.3,86.3 301.1,81.3 295.4,79.2 289.1,76.1 285.1,73.2 276.8,71.2 268.5,72 278.7,61.8 286,50.6 	"/>
</g>
<g id="Coco">
	<path fill="#F56A11" stroke="#000000" stroke-miterlimit="10" d="M73.3,500l3.2-8.6l4.5-12.6l16-64l4-19.7l2.7-18.6l3-20.7
		l2.5-20.4l2.1-19.1l1.1-17.2l0.2-14.3l0-11.4l-0.8-5.1l-8.8,5.1l-15,10.2l-18.4,14.2l-10.3,9.2l-11.2,13l-8.3,11.8l-7.9,11.9
		l-5,17.4v18.3l1.6,13.6l4.2,10.5c8.2,10.8,10.3,7.3,14.7,9.2l11-2.3l8.2-6.4l3.8-6.5l1.6-7.9l-2.2-6.6l-4.8-6.2l-3.6-3.1l6.5,3.4
		l6.6,7.8c3.1,6.5,3.6,12.7,1.7,18.8l-4.7,8.9l-5.1,5.4c-2.8,1.8-5.9,2.8-9.5,2.9l-7.5-0.4l-7.9-2.5l-7.6-5.8l-3.9-4.2l-4.8-7.8
		l-3.6-7l-3.4-7.7l-2.3-7.1l-0.8-8.9l2.3-12.6l4.5-9.3l4.8-7.4l5.5-8.2l5.1-7.3l6.6-8.7l7.8-8.6l6.8-7.3l9-8.9l7.1-6.9l15.6-16
		l10.9-11.6l7.6-9.7l6.1-9.2l3-6.7l0.8-8.2h-1.3l-0.8,4.5l-0.8,1.3l-2.5-0.8l-1.2-1.3l-12.1,9.6l-2.9-0.3l2.1-1.9l1.6-8.2l0.4-6.8
		l0.6-2.4l-0.8-9.8h-2.6l-4.3,5.5l-0.1,1.7l-3.6-0.3l-2.3,2.7l-1,4.3l-1.4,3.7l-0.6,5.2l-1.1,0.4l-0.2,8.2l-8.2-8l-11.1-12.8
		l-5.4-8.4l-1-0.6L58,206l1.8-1.1l1-1.6l-3.8-1.8l-4.5-0.8l-0.9-1.2h-1.4l-5.2-4l-9.8-8.9l-11-12.1L10.6,158l-8.2-9.2L0,146.3v-4.2
		l4.9,2.4l5.9,3.3l9.1,6.6l6,4.1l6.4,3.7l6.9,1.9l8.7,2l5.7,0.7l2.8,1l6.9-0.1l16.3-0.2l3-1.5l5-4.8l5.7-4.8l9.4-6.2l2.6-1.8
		l3.2-0.2l1.7-1.3l2.6-0.6h9.2l0.8-1.9l4.7-1.2l5.2,1.3l5.6-0.3l0.5-1.7l8.1-15c0,0,15.6-20.4,21.3-25.1s8.4-7.1,8.4-7.1
		c-2.2-3.3-3.4-7.2-4-11.5c0.5-3.7,2-7.2,4.4-10.3l7.6-10.8c4.4-5.7,10-10.9,16.6-15.7c0,0,25.9-15.8,41.7-17.6s16.1-2.1,29.9,4.1
		s14.3,10.6,14.3,10.6l0.4,1.7l-16.4,9c1.6-0.5-15.5-15.6-27.4-13.9c-9.6,1.4-25.7,7.5-32.1,10.1S188,65.4,183,72.4
		c-4.8,6.8-3.7,5.4-4.1,8.1c0,2.2,3.3,10.5,3.3,10.5l16.6-8.6c7.6-2.9,10.1-4.5,21.5-5.3s25.5-0.5,25,0l4.8,1.4V238
		c0,0-6-8.8-11.3-12.4s-9.3-6.1-17.8-7.4c-8.4-1.3-13.4-0.9-18.9-0.3c-5.5,0.7-10.6,3.1-14.9,5.5c-4.3,2.4-9.1,7.4-12.4,11.3
		c-3.3,3.7-6.7,11.3-7.6,14.3c-0.9,2.9-2.3,14.6-1.9,21c0.5,4.8,1.2,9.1,2.5,12.4c4.1,8.2,11.6,20.8,15.8,25.9s22,21.7,33.9,32.1
		c0,0,5.9,5.1,9.4,8.9s4.4,4.5,8.9,9.6s3.6,4.3,7.6,8.8s6.6,7.4,6.6,7.4v125H73.3z"/>
</g>
<g id="Heart">
	<polygon fill="#840522" points="250.5,238.7 247.9,235.2 244,230.4 241.9,228.2 238.1,225.2 234,222.6 231.4,221.2 227.2,219.6 
		223.4,218.7 220.1,218.1 214.7,217.5 207.6,217.5 199.8,218.4 195,219.8 188.6,222.7 183.7,226 179.1,230.2 177.1,232.2 
		174.5,235.2 171.3,240 169.3,244.1 168.1,246.8 166.9,250.6 165.9,256.9 165.5,262.1 165.3,265.5 165.3,269.4 165.9,274 
		166.5,277.3 167.5,281.3 168.9,284.3 171.4,288.9 173.1,291.9 175.1,295.4 177.2,298.9 179.7,302.7 182.2,306.3 184.5,309.3 
		186.5,311.4 197,321.7 216.3,339.4 220.9,343.4 224.7,347 228.5,351 232.9,355.6 239.4,363.1 244.4,368.8 250,375 252,373.8 
		255.6,368.9 261.2,361.4 268.6,352.8 271.2,349.8 278.5,343 286,336.2 292.2,330.8 302.1,321.4 309.4,314.6 314.1,310.3 
		318.5,304.6 323.4,298.9 327.2,291.7 330.2,285.7 331.8,281.1 333.1,277.1 334.3,271.8 334.3,265.7 334,258.6 333,252.8 
		331.7,248.2 330.6,245 328.9,241.7 325.9,236.7 323,233.1 321.4,231.3 318.9,229 316,226.7 313.1,224.9 309.8,222.9 306.2,221.2 
		302.6,219.8 299.8,218.7 295.2,217.7 290.4,217.5 283.7,218 278.8,218.7 275.2,219.4 268.4,222.2 265.2,223.6 262.4,225.6 
		259.3,228.4 256.9,230.9 254.2,233.9 252.2,236.1 251.3,237.6 	"/>
</g>
<g id="BG">
	<path fill="#A7BEE3" stroke="#000000" stroke-miterlimit="10" d="M73.3,500l6.9-18.5c0,0,3.1-10.6,5.7-18.4
		c2.6-7.8,6.8-29.3,7.7-33c0.8-3.7,6.6-28.7,7.8-36.8c1.2-8.2,6.2-43.3,6.2-43.3l2.8-24.3c0,0,0.8-7.7,1.6-15.7
		c0.8-8,0.8-40.6,0.8-40.6l-0.8-1.3c-3.3,0.9-48.1,29.3-62.9,50.5s-15.4,22-17.7,26.2s-3.8,11.7-4.8,18.8c-1,7,0.6,29,3.9,35.6
		c0.9,2.5,4.3,7.9,7.6,10.4c3.3,2.5,5.6,2.9,9.4,3c3.8,0.1,8-0.7,11-2.3s5.9-4.3,8.2-6.4c2.2-2.1,5.5-8.5,5.4-14.3s-6.9-13-8.8-14.6
		l-1.8-1.3c3.6,0.7,10.1,5.2,13.1,11.2s3.1,11.4,2.5,15.6c-0.6,4.2-2.6,7.7-4.8,11.1c0,0-3.5,5.2-6.9,7.2c-3.5,2-11,3.4-18.8,1.1
		c-7.9-2.4-9.6-4.8-14.4-9.4S20,390.1,16.9,381.9c-3-9.1-1.7-18.7,0.5-25.1s5.9-11.3,5.9-11.3c6.9-11.1,14.1-21.5,21.7-31.1
		L58.4,300l21.7-21.3l16.8-17.6c5.4-5.7,10.2-11.6,14.1-17.8l5.6-8.4l0.8-2l0.5-3.5l0.6-2.8v-3.8h-1.3l-0.8,4.5l-0.8,1.3l-2.5-0.8
		l-1.2-1.3l-1.8,1.2l-10.3,8.4l-2.9-0.3l2.1-1.9l1.6-8.2l0.5-7.6l0.6-1.6l-0.8-9.8h-2.6l-4.3,5.5l-0.1,1.7l-3.6-0.3l-2.3,2.7l-1,4.3
		l-1.4,3.7l-0.6,5.2l-1.1,0.4l-0.2,8.2l-9.6-9.3l-9.7-11.4l-5.4-8.4l-1-0.6L58,206c1.5-0.5,2.4-1.4,2.8-2.7l-1.6-0.9
		c-2.1-1-4.3-1.6-6.8-1.7l-0.9-1.2h-1.4c0,0-4.6-3.1-10.8-8.9c-6.3-5.8-9.9-10-9.9-10l-7.3-8.3c0,0-12-15.1-14.8-18.2
		S0,146.3,0,146.3V500H73.3z"/>
	<path fill="#A7BEE3" stroke="#000000" stroke-miterlimit="10" d="M424.3,500l-3.5-8.2L413,471l-5.2-16.2l-6.3-18l-3.8-16.5
		l-1.2-6.2v-3.5l2.2-1.7l0.2-2.8v-2.7l-2.3-1h-1.8l-1.5-2.3V397l-2-8.7l-1.3-8.3l-0.8-9.2V365l0.8-2l1.3-1.5l-0.8-2.5l-0.3-2.3
		l-1-2.5l-1.7-1H386l-0.8-7c0,0-0.8-5-0.8-6.2s-0.8-5.5-0.8-5.5l-1.8-12.7l-1-7.2v-6.3l5.5,6.7l5.2,5.8l3.8,4l5.3,4.8l13.3,11.2
		l3,1.8l1.3,0.2l-4-10.5l-1.3-6l-1.7-5.7l-1.3-4.8l-0.3-5l8.7,10l-1.5-8.3l-4.2-11.8l-2.7-9.8l-0.8-5.3l-2-7.8l-3-12.5l-4.3-21.3
		l-1.8-10.2l-0.8-8.2l-1.2-9.8l-0.2-3.7l4.8,3.7l7,3.7l5.7,1.8l7,1l7.2-0.5l3.8-1.5l-3-1.5c0,0-4.7,0.3-4.7-0.2s-6-2.7-6-2.7
		l-5.7-4.5l-5.2-5.2l-7.7-13l-3.3-6.8l-3.3-6.7l2.7,0.7h5l7-0.7l4.3-1.5l5.5-4.3l3.8-5l2.2-3l2.5-0.7l1.2-1.7l7.7-3.8l4.3-4.2
		l5.3-5.5l2.3-2.5l1.2-4.7v-3.7l-1.3-3l-3.2-4.8l-3.3-4.3l-3.7-3l-2.8-2.8l-4.3-2.7l-6.5-2.8L418,114l-4.8-1l-6.5-1.2h-5.8h-4.5
		l-0.2-5.3l-1.2-1.8l-1.7-2l-1.8-0.7l0.3-1.7l5.3-3l5-1.3l7-1.3l-8.5-1.3l-4.3,0.8l-4.5,1l-3.5,1.8l-0.7-6.2V78l-0.8-7.8l-2-8.2
		l-0.2,14l-0.8,6.5l-1.5,5.7l-7.2-1.5h-4.8l-3.5,2.2l-7,7.3l-5,6.2l-4.5,0.3l-3-9l-4.3-4.8l-6.3-1.2l-5.7,1l-2.8,2.3l-1.5,1
		l-6.7-3.8l-7.5-3l-8.2-2.8l-7.7-2.5l-7.3-3.5l-3.8-3l-8.7-2.2l-8.3,0.8l11-11l4.3-7.2l3.2-4.7l0.3-2.7l-0.5-2.8l-5-4.8l-9.5-5.5
		l-10.5-2.8l-7.7-1.2h-10.8l-8.8,1.2l-9,2.7l-8.2,3.7l-8.7,5L201,47l-8.7,7.2l-5.2,5l-5.2,6.5l-4.7,6.8l-3.8,6.5l-1.2,4.8l0.7,4.8
		l3.3,6.7l-5.3,4l-8,8l-3.3,4.3l-7.2,8.7l-5.8,7.2l-4.5,8.3l-3.3,6l-0.8,2.7h-5.5l-5.2-1.3l-4.7,1.2l-0.8,1.9h-9.2l-3.3,0.8l-1,1.2
		l-3.2,0.2l-6.2,4.3l-6.3,4l-6.5,5.7l-3.7,3.7l-3,1.5l-23.2,0.3l-2.8-1l-5.7-0.7l-4.2-1l-4.5-1l-6.3-1.7l-4.3-2.1l-2.6-1.9l-3.1-1.8
		l-3.1-2.5l-3.1-2.2l-2.5-1.9l-3.7-2.6l-1.3-0.6l-4.2-2.4L0,142.1V0h500v500H424.3z"/>
	<polygon fill="#A7BEE3" stroke="#000000" stroke-miterlimit="10" points="420.4,125.8 422.9,128.6 424.4,131 426.5,135.5 
		427.7,138.3 429,141.8 429.8,144 430.4,147.3 431.2,150.8 431.2,155.7 433.6,152 434.8,148.8 435.6,145.9 436,143.7 436.5,141.5 
		436.5,136.8 436.5,133.8 435.3,132.7 433.5,130.1 431.3,128.7 429.5,127.4 426.3,126.4 423.7,125.8 422,125.4 	"/>
	<polygon fill="#A7BEE3" stroke="#000000" stroke-miterlimit="10" points="427.7,147.9 428.1,149.7 428.5,151.9 428.9,154.4 
		428.9,157.4 428.9,158.4 427.7,159.7 426.4,160.3 425.3,160.7 425.3,159.3 425.8,158.2 426.5,156 427.1,153.6 	"/>
	<path fill="#A7BEE3" stroke="#000000" stroke-miterlimit="10" d="M392.2,146.2l1.7,0.8l2.3,2l1.4,1.5l1.6,2.3l1.2,1.6l0.9,1.4v1
		l-2.4,0.8c0,0-2.7-0.1-2.9,0c-0.3,0.1-2.4,0-2.4,0l-1.3-0.8l-1.8-1.7l-1.4-1.2l-0.8-2.5v-1.6l1-1.8l1.3-1.8H392.2z"/>
	<path fill="#A7BEE3" stroke="#000000" stroke-miterlimit="10" d="M407.7,159.6v5.4v3.4l-1.2,1.6l-1.4,2.3c0,0-1,1.5-1.5,1.7
		c-0.5,0.2-2.8,1.8-2.8,1.8s-1.4,0.9-1.9,0.9s-4.1,1-4.1,1l-2.4-0.6l-1.9-1.7l-0.7-2.2l-0.8-2.4l-1-2.2l-0.8-2.8l-1-2.3l-0.5-1.5
		l-0.8-1.3v-1.1l0.3-1.3c0,0,1.2,0,1.4,0.4c0.3,0.4,0.9,1.3,0.9,1.3l0.8,2l2.6,1.8c0,0,0.8,0.3,1.1,0.5c0.3,0.3,3.6,1.3,3.6,1.3
		l2.1,0.3l2.4-0.8c0,0,2.2-0.4,2.7-0.7s2.4-1.4,2.4-1.4l0.8-1.4L407.7,159.6z"/>
	<path fill="#A7BEE3" stroke="#000000" stroke-miterlimit="10" d="M424.3,500"/>
	<path fill="#A7BEE3" stroke="#000000" stroke-miterlimit="10" d="M287,49.2"/>
	<path fill="#A7BEE3" stroke="#000000" stroke-miterlimit="10" d="M250,500"/>
	<polygon fill="#A7BEE3" stroke="#000000" stroke-miterlimit="10" points="250,79.3 250,77.8 251.3,77.4 255.3,75.5 258.1,72.6 
		263.3,67 266.4,63 268.8,59.3 270,56.7 270.9,54.8 269.3,52.3 266.6,50.1 264.7,48.8 260.9,46.5 258.1,44.7 255.6,43.3 253.4,42 
		250,41.5 246.2,40.9 243.5,40.9 239.9,41.6 233.9,43.1 228.2,44.7 222.4,46.9 217.3,48.8 210.1,51.7 206.6,53.9 199.9,57.9 
		195.1,60.8 189.9,64.4 187.4,67.6 184.3,71 179.9,77.5 179.1,81.8 179.7,85.8 180.3,88.8 182.1,91 183.8,90.3 187.5,88 191.3,86 
		195,84.2 199,82.3 203.5,80.7 207.7,79.3 212.8,78 217.5,77.3 225,76.8 230.2,76.5 234.8,76.8 240.5,76.8 243.5,77 246.5,77.5 
		249,78.3 	"/>
</g>
</svg>
