<svg version="1.2" baseProfile="tiny" xmlns="http://www.w3.org/2000/svg" viewBox="0 0 500 500"><path fill="#F7DD71" stroke="#000" stroke-miterlimit="10" d="M287 46.6l-16.1 8.2L268 61l-4.2 5.5-4 4.5-4.5 4.5-5.3 3.1 1 159.3 1.2-1.8 3.2-3.5 4.6-5 4.1-3.5 5-2.2 5.5-2.4 6.4-1.2 6.3-.7 6.7-.2 6.3 1.4 5.7 2.4 3.8 1.7 6 3.6 4.5 3.6 4.6 5.1 2.8 4.2 2.8 5.3 1.5 4.5 1.3 4.6.6 3.6.4 6v8.1l-1 4.8-2.6 8.5-3.3 6.5-3.6 7.1-5 5.9-4.7 6-9.3 8.5-12.6 12-10.9 9.6-10.5 9.9-9.2 10.7-4.8 6.3-4.8 6.5-2 1.2v125h175.3l-4.5-8.2-6.6-17.5-4.6-13.9-6.7-19.7-3.8-14.1-2.3-11.1-.3-4.2 2.2-2.3.1-5.5-2.3-1h-1.8l-1.5-2.3-.4-4.8-1.9-9-1.2-8.1-.7-9.3.8-6 1.4-1.5-.9-2.5-.6-3-.7-1.8-1.7-1H386l-3-21.9-1.8-12.9-.5-5.9v-4.2l10.6 12.5 4.3 4.4 6.5 5.8 3.7 3.1 5.4 4.5 4.6 3.4 2.4.8-2-5.2-1.7-4.4-1.7-6.9-1.2-4.1-1.2-4.2-.7-3.5-.2-3.2 3 2.9 3.3 3.9 2.4 2.7-.8-4.1-.7-4.2-1.4-3.8-3.5-10.6-3-13.3-2-8-2.6-10.9-2-9.8-3-15-1.4-8.1-.7-6.9-1.1-9-.3-4V212l5.5 4 5.2 2.7 4.6 1.8 7 1.4 4.5.1 5.7-.7 1.9-.7 1.1-.4-3-1.5-3.4.1-1.3-.3-1.1-.7-1.8-.8-3.1-1.2-3.3-2.6-5.6-5.1-4.4-6.1-4.4-7.4-3.5-7.1-2.5-5-1.5-2.8 3.2.6h4.5l7-.6 5.1-2.1 5.1-4.3 3.2-4.1 2.4-3.4 2.9-1.2 1.4-1.4 4.1-2 5.3-3.7 3.2-3.2 4.1-4.3 2.7-3.8.5-2.1.3-3.6v-1.3l-1.9-4-3-4.4-3.7-4.4-4.4-4-4.7-3.3-6-2.8-5-2.1-6.8-1.5-4.1-.7-6.9-.2h-4.5l-.1-3.5-.7-2.9-1.8-2.3-2.2-1.1.3-1.7 2.1-1.2 5.4-2.3 4.1-1 4.3-.8 3.3-.5-7.2-.7-3.1-.5-4.4.9-3.8.8-4.2 2v-3.2l-.6-3v-7.1l-.2-7.7-.4-3.6-1.1-5.5-1.2-4.9v6.2l-.1 5.3-.4 5.5-.8 4.7-1.2 4.5-1.9-.4-5.2-1.1h-4.9l-3.5 2.1-5.1 5.4-4.7 5.5-2.2 2.6-4.5.4-1-3.2-1.4-4.1-2.1-3.4-2.8-3.2-2.9-.5-4-.5-5.9 1.5-2 1.7-1.5 1-5.6-3.2-5.8-2.5-14.2-5-5.7-2.1-6.3-3.1-4-2.9-8.3-2-8.3.8 10.2-10.2 7.3-11.2z"/><path fill="#F56A11" stroke="#000" stroke-miterlimit="10" d="M73.3 500l3.2-8.6 4.5-12.6 16-64 4-19.7 2.7-18.6 3-20.7 2.5-20.4 2.1-19.1 1.1-17.2.2-14.3v-11.4l-.8-5.1-8.8 5.1-15 10.2-18.4 14.2-10.3 9.2-11.2 13-8.3 11.8-7.9 11.9-5 17.4v18.3l1.6 13.6 4.2 10.5c8.2 10.8 10.3 7.3 14.7 9.2l11-2.3 8.2-6.4 3.8-6.5 1.6-7.9-2.2-6.6-4.8-6.2-3.6-3.1 6.5 3.4 6.6 7.8c3.1 6.5 3.6 12.7 1.7 18.8l-4.7 8.9-5.1 5.4c-2.8 1.8-5.9 2.8-9.5 2.9l-7.5-.4-7.9-2.5-7.6-5.8L30 408l-4.8-7.8-3.6-7-3.4-7.7-2.3-7.1-.8-8.9 2.3-12.6 4.5-9.3 4.8-7.4 5.5-8.2 5.1-7.3 6.6-8.7 7.8-8.6 6.8-7.3 9-8.9 7.1-6.9 15.6-16 10.9-11.6 7.6-9.7 6.1-9.2 3-6.7.8-8.2h-1.3l-.8 4.5-.8 1.3-2.5-.8-1.2-1.3-12.1 9.6-2.9-.3 2.1-1.9 1.6-8.2.4-6.8.6-2.4-.8-9.8h-2.6l-4.3 5.5-.1 1.7-3.6-.3-2.3 2.7-1 4.3-1.4 3.7-.6 5.2-1.1.4-.2 8.2-8.2-8-11.1-12.8L59 209l-1-.6V206l1.8-1.1 1-1.6-3.8-1.8-4.5-.8-.9-1.2h-1.4l-5.2-4-9.8-8.9-11-12.1L10.6 158l-8.2-9.2-2.4-2.5v-4.2l4.9 2.4 5.9 3.3 9.1 6.6 6 4.1 6.4 3.7 6.9 1.9 8.7 2 5.7.7 2.8 1 6.9-.1 16.3-.2 3-1.5 5-4.8 5.7-4.8 9.4-6.2 2.6-1.8 3.2-.2 1.7-1.3 2.6-.6h9.2l.8-1.9 4.7-1.2 5.2 1.3 5.6-.3.5-1.7 8.1-15s15.6-20.4 21.3-25.1 8.4-7.1 8.4-7.1c-2.2-3.3-3.4-7.2-4-11.5.5-3.7 2-7.2 4.4-10.3l7.6-10.8c4.4-5.7 10-10.9 16.6-15.7 0 0 25.9-15.8 41.7-17.6s16.1-2.1 29.9 4.1 14.3 10.6 14.3 10.6l.4 1.7-16.4 9c1.6-.5-15.5-15.6-27.4-13.9-9.6 1.4-25.7 7.5-32.1 10.1S188 65.4 183 72.4c-4.8 6.8-3.7 5.4-4.1 8.1 0 2.2 3.3 10.5 3.3 10.5l16.6-8.6c7.6-2.9 10.1-4.5 21.5-5.3s25.5-.5 25 0l4.8 1.4V238s-6-8.8-11.3-12.4-9.3-6.1-17.8-7.4c-8.4-1.3-13.4-.9-18.9-.3-5.5.7-10.6 3.1-14.9 5.5-4.3 2.4-9.1 7.4-12.4 11.3-3.3 3.7-6.7 11.3-7.6 14.3-.9 2.9-2.3 14.6-1.9 21 .5 4.8 1.2 9.1 2.5 12.4 4.1 8.2 11.6 20.8 15.8 25.9s22 21.7 33.9 32.1c0 0 5.9 5.1 9.4 8.9s4.4 4.5 8.9 9.6 3.6 4.3 7.6 8.8 6.6 7.4 6.6 7.4v125H73.3z"/><path fill="#840522" d="M250.5 238.7l-2.6-3.5-3.9-4.8-2.1-2.2-3.8-3-4.1-2.6-2.6-1.4-4.2-1.6-3.8-.9-3.3-.6-5.4-.6h-7.1l-7.8.9-4.8 1.4-6.4 2.9-4.9 3.3-4.6 4.2-2 2-2.6 3-3.2 4.8-2 4.1-1.2 2.7-1.2 3.8-1 6.3-.4 5.2-.2 3.4v3.9l.6 4.6.6 3.3 1 4 1.4 3 2.5 4.6 1.7 3 2 3.5 2.1 3.5 2.5 3.8 2.5 3.6 2.3 3 2 2.1 10.5 10.3 19.3 17.7 4.6 4 3.8 3.6 3.8 4 4.4 4.6 6.5 7.5 5 5.7 5.6 6.2 2-1.2 3.6-4.9 5.6-7.5 7.4-8.6 2.6-3 7.3-6.8 7.5-6.8 6.2-5.4 9.9-9.4 7.3-6.8 4.7-4.3 4.4-5.7 4.9-5.7 3.8-7.2 3-6 1.6-4.6 1.3-4 1.2-5.3v-6.1l-.3-7.1-1-5.8-1.3-4.6-1.1-3.2-1.7-3.3-3-5-2.9-3.6-1.6-1.8-2.5-2.3-2.9-2.3-2.9-1.8-3.3-2-3.6-1.7-3.6-1.4-2.8-1.1-4.6-1-4.8-.2-6.7.5-4.9.7-3.6.7-6.8 2.8-3.2 1.4-2.8 2-3.1 2.8-2.4 2.5-2.7 3-2 2.2-.9 1.5z"/><g fill="#A7BEE3" stroke="#000" stroke-miterlimit="10"><path d="M73.3 500l6.9-18.5s3.1-10.6 5.7-18.4c2.6-7.8 6.8-29.3 7.7-33 .8-3.7 6.6-28.7 7.8-36.8 1.2-8.2 6.2-43.3 6.2-43.3l2.8-24.3s.8-7.7 1.6-15.7c.8-8 .8-40.6.8-40.6l-.8-1.3c-3.3.9-48.1 29.3-62.9 50.5s-15.4 22-17.7 26.2-3.8 11.7-4.8 18.8c-1 7 .6 29 3.9 35.6.9 2.5 4.3 7.9 7.6 10.4s5.6 2.9 9.4 3c3.8.1 8-.7 11-2.3s5.9-4.3 8.2-6.4c2.2-2.1 5.5-8.5 5.4-14.3s-6.9-13-8.8-14.6l-1.8-1.3c3.6.7 10.1 5.2 13.1 11.2s3.1 11.4 2.5 15.6c-.6 4.2-2.6 7.7-4.8 11.1 0 0-3.5 5.2-6.9 7.2-3.5 2-11 3.4-18.8 1.1-7.9-2.4-9.6-4.8-14.4-9.4S20 390.1 16.9 381.9c-3-9.1-1.7-18.7.5-25.1s5.9-11.3 5.9-11.3c6.9-11.1 14.1-21.5 21.7-31.1L58.4 300l21.7-21.3 16.8-17.6c5.4-5.7 10.2-11.6 14.1-17.8l5.6-8.4.8-2 .5-3.5.6-2.8v-3.8h-1.3l-.8 4.5-.8 1.3-2.5-.8-1.2-1.3-1.8 1.2-10.3 8.4-2.9-.3 2.1-1.9 1.6-8.2.5-7.6.6-1.6-.8-9.8h-2.6l-4.3 5.5-.1 1.7-3.6-.3-2.3 2.7-1 4.3-1.4 3.7-.6 5.2-1.1.4-.2 8.2-9.6-9.3-9.7-11.4L59 209l-1-.6V206c1.5-.5 2.4-1.4 2.8-2.7l-1.6-.9c-2.1-1-4.3-1.6-6.8-1.7l-.9-1.2h-1.4s-4.6-3.1-10.8-8.9c-6.3-5.8-9.9-10-9.9-10l-7.3-8.3s-12-15.1-14.8-18.2-7.3-7.8-7.3-7.8V500h73.3z"/><path d="M424.3 500l-3.5-8.2L413 471l-5.2-16.2-6.3-18-3.8-16.5-1.2-6.2v-3.5l2.2-1.7.2-2.8v-2.7l-2.3-1h-1.8l-1.5-2.3V397l-2-8.7-1.3-8.3-.8-9.2V365l.8-2 1.3-1.5-.8-2.5-.3-2.3-1-2.5-1.7-1H386l-.8-7s-.8-5-.8-6.2-.8-5.5-.8-5.5l-1.8-12.7-1-7.2v-6.3l5.5 6.7 5.2 5.8 3.8 4 5.3 4.8 13.3 11.2 3 1.8 1.3.2-4-10.5-1.3-6-1.7-5.7-1.3-4.8-.3-5 8.7 10-1.5-8.3-4.2-11.8-2.7-9.8-.8-5.3-2-7.8-3-12.5-4.3-21.3-1.8-10.2-.8-8.2-1.2-9.8-.2-3.7 4.8 3.7 7 3.7 5.7 1.8 7 1 7.2-.5 3.8-1.5-3-1.5s-4.7.3-4.7-.2-6-2.7-6-2.7l-5.7-4.5-5.2-5.2-7.7-13-3.3-6.8-3.3-6.7 2.7.7h5l7-.7 4.3-1.5 5.5-4.3 3.8-5 2.2-3 2.5-.7 1.2-1.7 7.7-3.8 4.3-4.2 5.3-5.5 2.3-2.5 1.2-4.7v-3.7l-1.3-3-3.2-4.8-3.3-4.3-3.7-3-2.8-2.8-4.3-2.7-6.5-2.8-4.3-1.7-4.8-1-6.5-1.2h-10.3l-.2-5.3-1.2-1.8-1.7-2-1.8-.7.3-1.7 5.3-3 5-1.3 7-1.3-8.5-1.3-4.3.8-4.5 1-3.5 1.8-.7-6.2V78l-.8-7.8-2-8.2-.2 14-.8 6.5-1.5 5.7-7.2-1.5h-4.8l-3.5 2.2-7 7.3-5 6.2-4.5.3-3-9-4.3-4.8-6.3-1.2-5.7 1-2.8 2.3-1.5 1-6.7-3.8-7.5-3-8.2-2.8-7.7-2.5-7.3-3.5-3.8-3-8.7-2.2-8.3.8 11-11 4.3-7.2 3.2-4.7.3-2.7-.5-2.8-5-4.8-9.5-5.5-10.5-2.8-7.7-1.2h-10.8l-8.8 1.2-9 2.7-8.2 3.7-8.7 5L201 47l-8.7 7.2-5.2 5-5.2 6.5-4.7 6.8-3.8 6.5-1.2 4.8.7 4.8 3.3 6.7-5.3 4-8 8-3.3 4.3-7.2 8.7-5.8 7.2-4.5 8.3-3.3 6-.8 2.7h-5.5l-5.2-1.3-4.7 1.2-.8 1.9h-9.2l-3.3.8-1 1.2-3.2.2-6.2 4.3-6.3 4-6.5 5.7-3.7 3.7-3 1.5-23.2.3-2.8-1-5.7-.7-4.2-1-4.5-1-6.3-1.7-4.3-2.1-2.6-1.9-3.1-1.8-3.1-2.5-3.1-2.2-2.5-1.9-3.7-2.6L9 147l-4.2-2.4-4.8-2.5V0h500v500h-75.7z"/><path d="M420.4 125.8l2.5 2.8 1.5 2.4 2.1 4.5 1.2 2.8 1.3 3.5.8 2.2.6 3.3.8 3.5v4.9l2.4-3.7 1.2-3.2.8-2.9.4-2.2.5-2.2v-7.7l-1.2-1.1-1.8-2.6-2.2-1.4-1.8-1.3-3.2-1-2.6-.6-1.7-.4zM427.7 147.9l.4 1.8.4 2.2.4 2.5v4l-1.2 1.3-1.3.6-1.1.4v-1.4l.5-1.1.7-2.2.6-2.4zM392.2 146.2l1.7.8 2.3 2 1.4 1.5 1.6 2.3 1.2 1.6.9 1.4v1l-2.4.8s-2.7-.1-2.9 0c-.3.1-2.4 0-2.4 0l-1.3-.8-1.8-1.7-1.4-1.2-.8-2.5v-1.6l1-1.8 1.3-1.8h1.6zM407.7 159.6v8.8l-1.2 1.6-1.4 2.3s-1 1.5-1.5 1.7c-.5.2-2.8 1.8-2.8 1.8s-1.4.9-1.9.9-4.1 1-4.1 1l-2.4-.6-1.9-1.7-.7-2.2-.8-2.4-1-2.2-.8-2.8-1-2.3-.5-1.5-.8-1.3v-1.1l.3-1.3s1.2 0 1.4.4c.3.4.9 1.3.9 1.3l.8 2 2.6 1.8s.8.3 1.1.5c.3.3 3.6 1.3 3.6 1.3l2.1.3 2.4-.8s2.2-.4 2.7-.7 2.4-1.4 2.4-1.4l.8-1.4 1.7-2zM250 79.3v-1.5l1.3-.4 4-1.9 2.8-2.9 5.2-5.6 3.1-4 2.4-3.7 1.2-2.6.9-1.9-1.6-2.5-2.7-2.2-1.9-1.3-3.8-2.3-2.8-1.8-2.5-1.4-2.2-1.3-3.4-.5-3.8-.6h-2.7l-3.6.7-6 1.5-5.7 1.6-5.8 2.2-5.1 1.9-7.2 2.9-3.5 2.2-6.7 4-4.8 2.9-5.2 3.6-2.5 3.2-3.1 3.4-4.4 6.5-.8 4.3.6 4 .6 3 1.8 2.2 1.7-.7 3.7-2.3 3.8-2 3.7-1.8 4-1.9 4.5-1.6 4.2-1.4 5.1-1.3 4.7-.7 7.5-.5 5.2-.3 4.6.3h5.7l3 .2 3 .5 2.5.8z"/></g></svg>