<svg version="1.1" id="Layer_1" xmlns="http://www.w3.org/2000/svg" x="0" y="0" viewBox="0 0 512 512" xml:space="preserve"><style>.st0{fill:#fff}</style><g id="outline"><path class="st0" d="M425.2 196.9l-72.1-72.1c-3.1-3.1-8.2-3.1-11.3 0-1.8 1.8-2.6 4.4-2.3 6.9l6.6 43.1c-15.3.1-30.5 2.6-45 7.4C296.7 107.4 234.5 48 158.7 48 80 48 16 112 16 190.7 16 240.1 41.5 286 83.4 312l69.6 69.6c3.1 3.1 8.2 3.1 11.3 0 1.8-1.8 2.6-4.4 2.3-6.9l-6.4-41.3c13.5-.1 26.9-2.2 39.8-6.1 2.8 78.9 67.8 142.3 147.4 142.3 81.3 0 147.5-66.1 147.5-147.5 0-51-26.3-98.4-69.7-125.2zM158.7 317.5c-2.3 0-4.8-.1-7.4-.2-4.4-.3-8.2 3.1-8.4 7.5 0 .6 0 1.1.1 1.7l4.1 26.6-53-53c-.4-.4-.9-.8-1.5-1.2-59.7-36.5-78.6-114.6-42-174.3S165.1 46 224.8 82.5s78.6 114.5 42.1 174.3c-23.1 37.7-64 60.7-108.2 60.7zm188.8 136.1c-72.5 0-131.5-59-131.5-131.5v-.7c49.1-21.6 82-68.9 85.2-122.4 14.8-5.6 30.4-8.4 46.2-8.4 2.4 0 5 .1 7.6.2 4.4.3 8.2-3.1 8.4-7.5 0-.6 0-1.1-.1-1.7l-4.4-28.4 55.5 55.5c.4.4.9.8 1.5 1.2 39.2 23.8 63 66.3 62.9 112.2.1 72.5-58.9 131.5-131.3 131.5z"/><path class="st0" d="M351.3 268.7c-1.8-4-6.6-5.8-10.6-4-1.8.8-3.2 2.2-4 4l-40 88c-1.8 4-.1 8.8 4 10.6 4 1.8 8.8.1 10.6-4l8.8-19.3H368l8.8 19.3c1.8 4 6.6 5.8 10.6 4 4-1.8 5.8-6.6 4-10.6l-40.1-88zm-24 59.3l16.7-36.7 16.7 36.7h-33.4zM194.3 198.5c-4.4-3.8-9.3-7-14.6-9.4 0-1.1.1-2.2.1-3.3V176c0-4.4-3.6-8-8-8s-8 3.6-8 8v8c-5.3-.9-10.7-1.2-16-.8V160h40c4.4 0 8-3.6 8-8s-3.6-8-8-8h-40v-24c0-4.4-3.6-8-8-8s-8 3.6-8 8v24h-32c-4.4 0-8 3.6-8 8s3.6 8 8 8h32v26.6c-5.8 2-11.4 4.9-16.4 8.5-14.2 10.1-17.5 29.9-7.3 44 .3.5.7.9 1 1.4 10.9 13.6 30.8 15.8 44.4 4.9.9-.7 1.8-1.5 2.6-2.3 10.3-10.2 17.6-23.1 21.2-37.2 2.3 1.4 4.6 3 6.6 4.8 8.2 7.1 9.2 19.4 2.1 27.7-.3.4-.7.8-1 1.1-3.1 3.2-3 8.2.2 11.3 3.1 3 8 3 11.1 0 13.9-13.9 13.9-36.5 0-50.4-.6-.7-1.3-1.3-2-1.9zm-72.8 31.9c-5.4-6.7-4.3-16.5 2.4-21.9.2-.2.4-.3.7-.5 2.2-1.6 4.6-3 7.1-4.2v32.3c-4-.4-7.6-2.5-10.2-5.7zm26.2-1.9v-29.2c4.8-.5 9.7-.3 14.4.7-2.3 10.6-7.2 20.3-14.4 28.5z"/></g></svg>