<?xml version="1.0" encoding="utf-8"?>
<!-- Generator: Adobe Illustrator 24.2.3, SVG Export Plug-In . SVG Version: 6.00 Build 0)  -->
<svg version="1.1" xmlns="http://www.w3.org/2000/svg" xmlns:xlink="http://www.w3.org/1999/xlink" x="0px" y="0px"
	 viewBox="0 0 994 1000" style="enable-background:new 0 0 994 1000;" xml:space="preserve">
<style type="text/css">
	.st0{fill:#724683;}
	.st1{fill:#FFDB90;}
	.st2{fill:#FD418D;}
</style>
<g id="bgcolor">
	<rect class="st0" width="994" height="1000"/>
</g>
<g id="vectors">
	<g>
		<circle class="st1" cx="267" cy="48" r="11"/>
		<circle class="st1" cx="325" cy="48" r="11"/>
		<circle class="st1" cx="325" cy="101" r="11"/>
		<circle class="st1" cx="384" cy="48" r="11"/>
		<circle class="st1" cx="384" cy="101" r="11"/>
		<circle class="st1" cx="267" cy="101" r="11"/>
		<circle class="st1" cx="324" cy="153" r="11"/>
		<circle class="st1" cx="383" cy="153" r="11"/>
		<circle class="st1" cx="266" cy="153" r="11"/>
	</g>
	<circle class="st2" cx="422" cy="76" r="62"/>
	<circle class="st1" cx="0" cy="-1" r="94"/>
	<path class="st1" d="M987-120c73.5,0,133,59.5,133,133s-59.5,133-133,133S854,86.5,854,13S913.5-120,987-120z M987,95.3
		c45.4,0,82.3-36.8,82.3-82.3s-36.8-82.3-82.3-82.3S904.7-32.4,904.7,13S941.6,95.3,987,95.3z"/>
	<path class="st1" d="M650-133c-73.5,0-133,59.5-133,133s59.5,133,133,133S783,73.5,783,0S723.5-133,650-133z M650,82.3
		c-45.4,0-82.3-36.8-82.3-82.3s36.8-82.3,82.3-82.3S732.3-45.4,732.3,0S695.4,82.3,650,82.3z"/>
	<g>
		<path class="st1" d="M126.7,118.8c1.9,4.7,4.4,9,7.6,12.9h80.4c3.1-3.9,5.7-8.2,7.6-12.9H126.7z"/>
		<path class="st1" d="M123,99.5c0,2.2,0.1,4.3,0.4,6.4h102.2c0.3-2.1,0.4-4.3,0.4-6.4c0-2.2-0.1-4.3-0.4-6.4H123.4
			C123.1,95.2,123,97.3,123,99.5z"/>
		<path class="st1" d="M134.3,67.3c-3.1,3.9-5.7,8.2-7.6,12.9h95.5c-1.9-4.7-4.4-9-7.6-12.9H134.3z"/>
		<path class="st1" d="M199.4,54.4c-7.4-4.1-15.9-6.4-24.9-6.4s-17.6,2.3-24.9,6.4H199.4z"/>
		<path class="st1" d="M149.6,144.6c7.4,4.1,15.9,6.4,24.9,6.4s17.6-2.3,24.9-6.4H149.6z"/>
	</g>
	<path class="st2" d="M1002-140c73.5,0,133,59.5,133,133s-59.5,133-133,133S869,66.5,869-7S928.5-140,1002-140z M1002,75.3
		c45.4,0,82.3-36.8,82.3-82.3s-36.8-82.3-82.3-82.3S919.7-52.4,919.7-7S956.6,75.3,1002,75.3z"/>
	<g>
		<path class="st2" d="M-45.7,111.2c-10.9-4.4-21.1-10.4-30.1-17.7V-94.6c9.1-7.3,19.2-13.2,30.1-17.7V111.2z"/>
		<path class="st2" d="M-0.5,120c-5.1,0-10.1-0.3-15.1-0.9v-239.1c4.9-0.6,10-0.9,15.1-0.9c5.1,0,10.1,0.3,15.1,0.9v239.1
			C9.6,119.7,4.6,120-0.5,120z"/>
		<path class="st2" d="M74.8,93.6c-9.1,7.3-19.2,13.2-30.1,17.7v-223.5c10.9,4.4,21.1,10.4,30.1,17.7V93.6z"/>
		<path class="st2" d="M104.9-58.9C114.5-41.6,120-21.7,120-0.5s-5.5,41.1-15.1,58.4V-58.9z"/>
		<path class="st2" d="M-105.9,57.9C-115.5,40.6-121,20.7-121-0.5s5.5-41.1,15.1-58.4V57.9z"/>
	</g>
	<circle class="st2" cx="818" cy="105" r="26"/>
	<circle class="st2" cx="861" cy="164" r="26"/>
	<circle class="st2" cx="774" cy="164" r="26"/>
	<circle class="st2" cx="86" cy="153" r="18"/>
	<circle class="st2" cx="-1" cy="186" r="41"/>
	<circle class="st1" cx="422" cy="76" r="26"/>
	<circle class="st1" cx="994" cy="183" r="21"/>
	<circle class="st1" cx="516" cy="107" r="16"/>
	<circle class="st2" cx="625" cy="0" r="83"/>
</g>
<g id="img">
</g>
</svg>
