<?xml version="1.0" encoding="utf-8"?>
<!-- Generator: Adobe Illustrator 24.2.3, SVG Export Plug-In . SVG Version: 6.00 Build 0)  -->
<svg version="1.1" id="Layer_1" xmlns="http://www.w3.org/2000/svg" xmlns:xlink="http://www.w3.org/1999/xlink" x="0px" y="0px"
	 viewBox="0 0 512 512" style="enable-background:new 0 0 512 512;" xml:space="preserve">
<style type="text/css">
	.st0{fill:#FFFFFF;}
</style>
<g id="outline">
	<path class="st0" d="M425.2,196.9l-72.1-72.1c-3.1-3.1-8.2-3.1-11.3,0c-1.8,1.8-2.6,4.4-2.3,6.9l6.6,43.1
		c-15.3,0.1-30.5,2.6-45,7.4C296.7,107.4,234.5,48,158.7,48C80,48,16,112,16,190.7C16,240.1,41.5,286,83.4,312l69.6,69.6
		c3.1,3.1,8.2,3.1,11.3,0c1.8-1.8,2.6-4.4,2.3-6.9l-6.4-41.3c13.5-0.1,26.9-2.2,39.8-6.1c2.8,78.9,67.8,142.3,147.4,142.3
		c81.3,0,147.5-66.1,147.5-147.5C494.9,271.1,468.6,223.7,425.2,196.9L425.2,196.9z M158.7,317.5c-2.3,0-4.8-0.1-7.4-0.2
		c-4.4-0.3-8.2,3.1-8.4,7.5c0,0.6,0,1.1,0.1,1.7l4.1,26.6l-53-53c-0.4-0.4-0.9-0.8-1.5-1.2C32.9,262.4,14,184.3,50.6,124.6
		S165.1,46,224.8,82.5s78.6,114.5,42.1,174.3C243.8,294.5,202.9,317.5,158.7,317.5L158.7,317.5z M347.5,453.6
		c-72.5,0-131.5-59-131.5-131.5c0-0.2,0-0.5,0-0.7c49.1-21.6,82-68.9,85.2-122.4c14.8-5.6,30.4-8.4,46.2-8.4c2.4,0,5,0.1,7.6,0.2
		c4.4,0.3,8.2-3.1,8.4-7.5c0-0.6,0-1.1-0.1-1.7l-4.4-28.4l55.5,55.5c0.4,0.4,0.9,0.8,1.5,1.2c39.2,23.8,63,66.3,62.9,112.2
		C478.9,394.6,419.9,453.6,347.5,453.6z"/>
	<path class="st0" d="M351.3,268.7c-1.8-4-6.6-5.8-10.6-4c-1.8,0.8-3.2,2.2-4,4l-40,88c-1.8,4-0.1,8.8,4,10.6c4,1.8,8.8,0.1,10.6-4
		l0,0l8.8-19.3h47.9l8.8,19.3c1.8,4,6.6,5.8,10.6,4c4-1.8,5.8-6.6,4-10.6l0,0L351.3,268.7z M327.3,328l16.7-36.7l16.7,36.7H327.3z"
		/>
	<path class="st0" d="M194.3,198.5c-4.4-3.8-9.3-7-14.6-9.4c0-1.1,0.1-2.2,0.1-3.3V176c0-4.4-3.6-8-8-8s-8,3.6-8,8v8
		c-5.3-0.9-10.7-1.2-16-0.8V160h40c4.4,0,8-3.6,8-8s-3.6-8-8-8h-40v-24c0-4.4-3.6-8-8-8s-8,3.6-8,8v24h-32c-4.4,0-8,3.6-8,8
		s3.6,8,8,8h32v26.6c-5.8,2-11.4,4.9-16.4,8.5c-14.2,10.1-17.5,29.9-7.3,44c0.3,0.5,0.7,0.9,1,1.4c10.9,13.6,30.8,15.8,44.4,4.9
		c0.9-0.7,1.8-1.5,2.6-2.3c10.3-10.2,17.6-23.1,21.2-37.2c2.3,1.4,4.6,3,6.6,4.8c8.2,7.1,9.2,19.4,2.1,27.7c-0.3,0.4-0.7,0.8-1,1.1
		c-3.1,3.2-3,8.2,0.2,11.3c3.1,3,8,3,11.1,0c13.9-13.9,13.9-36.5,0-50.4C195.7,199.7,195,199.1,194.3,198.5L194.3,198.5z
		 M121.5,230.4c-5.4-6.7-4.3-16.5,2.4-21.9c0.2-0.2,0.4-0.3,0.7-0.5c2.2-1.6,4.6-3,7.1-4.2v32.3
		C127.7,235.7,124.1,233.6,121.5,230.4L121.5,230.4z M147.7,228.5v-29.2c4.8-0.5,9.7-0.3,14.4,0.7
		C159.8,210.6,154.9,220.3,147.7,228.5L147.7,228.5z"/>
</g>
</svg>
